<?xml version="1.0" encoding="UTF-8"?>
<svg width="20px" height="20px" viewBox="0 0 20 20" version="1.1" xmlns="http://www.w3.org/2000/svg" xmlns:xlink="http://www.w3.org/1999/xlink">
    <!-- Generator: Sketch 54 (76480) - https://sketchapp.com -->
    <title>编组 7</title>
    <desc>Created with Sketch.</desc>
    <g id="主页面" stroke="none" stroke-width="1" fill="none" fill-rule="evenodd">
        <g id="我的a" transform="translate(-13.000000, -463.000000)">
            <rect fill="#FFFFFF" x="0" y="0" width="375" height="812"></rect>
            <rect id="Background复制-2" fill="#FFFFFF" x="0" y="444" width="375" height="56"></rect>
            <g id="关于Mekey" transform="translate(13.000000, 463.000000)" stroke="#00BFAF">
                <g id="LOGIO" transform="translate(5.523810, 5.523810)">
                    <path d="M7.95113474,12.899725 C6.89405367,13.3327234 5.73680789,13.5714286 4.52380952,13.5714286 C3.38412005,13.5714286 2.29364788,13.3607043 1.28922966,12.9760925 L2.23097835,8.3828658 C1.08324675,7.59095238 0.329004329,6.25190476 0.329004329,4.73338528 C0.329004329,2.30089177 2.2647013,0.329004329 4.65261472,0.329004329 C7.04036364,0.329004329 8.97622511,2.30089177 8.97622511,4.73338528 C8.97622511,6.27098701 8.20290043,7.62451082 7.03098701,8.41231169 L7.95113474,12.899725 Z" id="形状结合" stroke-width="1.3"></path>
                    <path d="M4.64594234,7.13191679 C4.06459169,7.13191679 3.50594234,6.92234103 3.07280814,6.54184753 C2.93643585,6.42176095 2.92294667,6.21383021 3.04286875,6.07745792 C3.16295533,5.94108562 3.37088607,5.92759645 3.50725836,6.04751852 C3.82014148,6.32256614 4.2244878,6.47390813 4.64594234,6.47390813 C5.08763066,6.47390813 5.50628866,6.30940597 5.82492936,6.01099904 C5.9573536,5.88679991 6.16561334,5.8935445 6.28997698,6.02596874 C6.41417611,6.15855748 6.40743152,6.36681722 6.27484278,6.49101636 C5.83397698,6.9044103 5.25542286,7.13191679 4.64594234,7.13191679" id="Fill-3" stroke-width="0.2" fill="#00BFAF"></path>
                </g>
                <circle id="椭圆形" stroke-width="1.3" cx="10.047619" cy="10.047619" r="9.04761905"></circle>
            </g>
        </g>
    </g>
</svg>