<?xml version="1.0" encoding="UTF-8"?>
<svg width="14px" height="14px" viewBox="0 0 14 14" version="1.1" xmlns="http://www.w3.org/2000/svg" xmlns:xlink="http://www.w3.org/1999/xlink">
    <title>形状结合</title>
    <g id="页面-1" stroke="none" stroke-width="1" fill="none" fill-rule="evenodd">
        <g id="切图" transform="translate(-178.000000, -86.000000)" fill="#00BFAF" fill-rule="nonzero">
            <path d="M185,86 C185.486266,86 185.887038,86.3660394 185.941811,86.837611 L185.94819,86.94819 L185.948,92.051 L191.05181,92.05181 C191.575481,92.05181 192,92.4763291 192,93 C192,93.4862658 191.633961,93.8870385 191.162389,93.9418108 L191.05181,93.94819 L185.948,93.948 L185.94819,99.05181 C185.94819,99.5754809 185.523671,100 185,100 C184.513734,100 184.112962,99.6339606 184.058189,99.162389 L184.05181,99.05181 L184.051,93.948 L178.94819,93.94819 C178.424519,93.94819 178,93.5236709 178,93 C178,92.5137342 178.366039,92.1129615 178.837611,92.0581892 L178.94819,92.05181 L184.051,92.051 L184.05181,86.94819 C184.05181,86.4245191 184.476329,86 185,86 Z" id="形状结合"></path>
        </g>
    </g>
</svg>