<svg width="14" height="16" viewBox="0 0 14 16" fill="none" xmlns="http://www.w3.org/2000/svg">
    <mask id="mask0_2284_4546" style="mask-type:alpha" maskUnits="userSpaceOnUse" x="1" y="5" width="12" height="8">
        <path fill-rule="evenodd" clip-rule="evenodd" d="M12.1997 5V12.0009H1.79091V5L12.1997 5Z" fill="white"/>
    </mask>
    <g mask="url(#mask0_2284_4546)">
        <path fill-rule="evenodd" clip-rule="evenodd" d="M7.32191 11.8947C7.45791 11.8507 7.58691 11.7827 7.68191 11.6627L12.0359 6.2187C12.2939 5.8957 12.2429 5.4247 11.9189 5.1647C11.5949 4.9057 11.1239 4.9577 10.8649 5.2817L6.99591 10.1187L3.12691 5.2817C2.86791 4.9577 2.39491 4.9057 2.07191 5.1647C1.88691 5.3127 1.79091 5.5307 1.79091 5.7497C1.79091 5.9157 1.84391 6.0807 1.95491 6.2187L6.36191 11.7287C6.59691 12.0227 7.00591 12.0807 7.32191 11.8947Z" fill="#BFBFBF"/>
    </g>
</svg>
