<svg width="120" height="96" viewBox="0 0 120 96" fill="none" xmlns="http://www.w3.org/2000/svg">
    <circle cx="60" cy="48" r="48" fill="#F7F7F7" />
    <mask id="mask0_12110_22761" style="mask-type:luminance" maskUnits="userSpaceOnUse" x="12" y="0" width="96"
        height="96">
        <circle cx="60" cy="48" r="48" fill="white" />
    </mask>
    <defs>
        <linearGradient id="paint0_linear_12110_22761" x1="-3.79132" y1="52.3447" x2="33" y2="52.3447"
            gradientUnits="userSpaceOnUse">
            <stop offset="0.000554265" stop-color="#B1FFF8" />
            <stop offset="1" stop-color="#08E0CE" />
        </linearGradient>
        <linearGradient id="paint1_linear_12110_22761" x1="123.791" y1="52.3447" x2="87" y2="52.3447"
            gradientUnits="userSpaceOnUse">
            <stop offset="0.000554265" stop-color="#B1FFF8" />
            <stop offset="1" stop-color="#08E0CE" />
        </linearGradient>
    </defs>
    <g mask="url(#mask0_12110_22761)">
        <circle opacity="0.2" cx="84.5" cy="89.5" r="12.5" fill="#31E1D3" />
        <circle opacity="0.3" cx="44" cy="18" r="4" fill="#5AFDEF" />
    </g>
    <path opacity="0.8" fill-rule="evenodd" clip-rule="evenodd"
        d="M3 52C4.65685 52 6 50.6569 6 49C6 47.3431 4.65685 46 3 46C1.34315 46 0 47.3431 0 49C0 50.6569 1.34315 52 3 52ZM19.5 49C19.5 50.6569 18.1569 52 16.5 52C14.8431 52 13.5 50.6569 13.5 49C13.5 47.3431 14.8431 46 16.5 46C18.1569 46 19.5 47.3431 19.5 49ZM33 49C33 50.6569 31.6569 52 30 52C28.3431 52 27 50.6569 27 49C27 47.3431 28.3431 46 30 46C31.6569 46 33 47.3431 33 49Z"
        fill="url(#paint0_linear_12110_22761)" />
    <path opacity="0.8" fill-rule="evenodd" clip-rule="evenodd"
        d="M117 52C115.343 52 114 50.6569 114 49C114 47.3431 115.343 46 117 46C118.657 46 120 47.3431 120 49C120 50.6569 118.657 52 117 52ZM100.5 49C100.5 50.6569 101.843 52 103.5 52C105.157 52 106.5 50.6569 106.5 49C106.5 47.3431 105.157 46 103.5 46C101.843 46 100.5 47.3431 100.5 49ZM87 49C87 50.6569 88.3431 52 90 52C91.6569 52 93 50.6569 93 49C93 47.3431 91.6569 46 90 46C88.3431 46 87 47.3431 87 49Z"
        fill="url(#paint1_linear_12110_22761)" />

</svg>