<?xml version="1.0" encoding="UTF-8"?>
<svg width="20px" height="20px" viewBox="0 0 20 20" version="1.1" xmlns="http://www.w3.org/2000/svg" xmlns:xlink="http://www.w3.org/1999/xlink">
    <title>转账</title>
    <g id="NFT" stroke="none" stroke-width="1" fill="none" fill-rule="evenodd">
        <g id="NFT-切图" transform="translate(-65.000000, -36.000000)" fill="#00BFAF" fill-rule="nonzero">
            <path d="M75,37.5 C75.6213203,37.5 76.1323525,37.9721997 76.1938045,38.577307 L76.2,38.7 L76.1999784,45.18 L80.4429777,45.1804611 C81.2226738,45.1804611 81.8634264,45.7753492 81.9361111,46.5360011 L81.9429777,46.6804611 C81.9429777,47.0274417 81.8226849,47.3636913 81.60259,47.6319333 L81.60259,47.6319333 L75.7730749,54.7366891 C75.3730109,55.2242693 74.6269891,55.2242693 74.2269251,54.7366891 L74.2269251,54.7366891 L68.39741,47.6319333 C67.8719264,46.9914971 67.965114,46.0463324 68.6055501,45.5208488 C68.8737921,45.3007539 69.2100417,45.1804611 69.5570223,45.1804611 L69.5570223,45.1804611 L73.7999784,45.18 L73.8,38.7 C73.8,38.0372583 74.3372583,37.5 75,37.5 Z M79.386,47.18 L70.613,47.18 L74.999,52.525 L79.386,47.18 Z" id="转账" transform="translate(74.999978, 46.301187) scale(1, -1) translate(-74.999978, -46.301187) "></path>
        </g>
    </g>
</svg>