<?xml version="1.0" encoding="UTF-8"?>
<svg width="20px" height="20px" viewBox="0 0 20 20" version="1.1" xmlns="http://www.w3.org/2000/svg" xmlns:xlink="http://www.w3.org/1999/xlink">
    <title>形状结合</title>
    <g id="uniswap" stroke="none" stroke-width="1" fill="none" fill-rule="evenodd">
        <g id="切图" transform="translate(-166.000000, -541.000000)" fill="#C7BEBB" fill-rule="nonzero">
            <path d="M176,541 C181.523031,541 185.998895,545.476969 186,551 C186,556.523031 181.523031,561 176,561 C170.476969,561 166,556.523031 166,551 C166,545.476969 170.476969,541 176,541 Z M176,542.427151 C171.266762,542.427151 167.428256,546.265658 167.428256,550.998895 C167.428256,555.733238 171.266762,559.57064 176,559.57064 C180.733238,559.57064 184.57064,555.733238 184.57064,550.998895 C184.57064,546.265658 180.733238,542.427151 176,542.427151 Z M178.855407,547.427704 C178.88965,547.463051 180.78184,547.762399 180.283663,548.855959 C179.975478,549.534961 181.378913,552.463316 181.662682,553.040587 L181.70616,553.128298 L181.70616,553.128298 L181.711919,553.139622 C180.171919,555.897675 178.090734,557.091663 177.556374,557.363996 L177.474819,557.404415 C177.443614,557.419381 177.427151,557.426599 177.427151,557.426599 C177.653595,556.939468 177.843588,555.20855 177.427151,553.855407 C177.042748,552.607202 175.906108,551.566663 175.998895,550.998895 C176.191097,549.816967 178.855407,547.427704 178.855407,547.427704 Z M173.855959,544.570087 C173.855959,544.570087 173.865786,544.579467 173.884142,544.597443 L173.963497,544.676379 C174.475227,545.192183 176.613901,547.466105 175.998895,548.855959 C175.998895,548.855959 170.212968,548.045178 169.570087,549.57064 C169.570087,549.57064 170.806142,546.335248 173.855959,544.570087 Z" id="形状结合"></path>
        </g>
    </g>
</svg>