<svg width="16" height="16" viewBox="0 0 16 16" fill="none" xmlns="http://www.w3.org/2000/svg">
<path fill-rule="evenodd" clip-rule="evenodd" d="M10.7417 4.14001C12.5648 5.96314 12.5648 8.91902 10.7417 10.7421C8.91856 12.5653 5.96268 12.5653 4.13955 10.7421C2.31642 8.91902 2.31642 5.96314 4.13955 4.14C5.96268 2.31687 8.91856 2.31687 10.7417 4.14001ZM12.0901 11.1841C13.9817 8.84028 13.8386 5.39845 11.6609 3.22077C9.33012 0.889953 5.55112 0.889953 3.22031 3.22077C0.889495 5.55158 0.889495 9.33057 3.22031 11.6614C5.398 13.8391 8.83984 13.9821 11.1836 12.0906C11.2044 12.1197 11.2278 12.1475 11.2539 12.1736L13.6871 14.6068C13.941 14.8606 14.3525 14.8606 14.6064 14.6068C14.8602 14.353 14.8602 13.9414 14.6064 13.6876L12.1731 11.2543C12.147 11.2282 12.1192 11.2048 12.0901 11.1841Z" fill="#00BFAF"/>
</svg>
