<svg width="24" height="24" viewBox="0 0 24 24" fill="none" xmlns="http://www.w3.org/2000/svg">
<path fill-rule="evenodd" clip-rule="evenodd" d="M12.0004 24C18.6275 24 24 18.627 24 12C24 5.37303 18.6275 0 12.0004 0C5.37252 0 0 5.37303 0 12C0 18.627 5.37252 24 12.0004 24Z" fill="#00BFAF"/>
<path fill-rule="evenodd" clip-rule="evenodd" d="M11.4543 6.72134C11.5983 6.43487 11.8845 6.25064 12.1917 6.25V7.02112C12.1869 7.02112 12.1596 7.03235 12.142 7.06601L10.8306 9.73044C10.7232 9.94848 10.518 10.104 10.2775 10.1473L7.34378 10.6811C7.33105 10.6843 7.31673 10.6859 7.3024 10.6875L7.30209 10.6875C7.29248 10.6891 7.28927 10.6907 7.28767 10.6923C7.28445 10.6955 7.27644 10.7036 7.26843 10.7212C7.26682 10.7468 7.27644 10.7901 7.29568 10.8126L9.39421 12.7668C9.58819 12.948 9.67476 13.2157 9.62507 13.4754L9.07037 16.3499V16.3515C9.07198 16.3659 9.0864 16.3948 9.10404 16.4092C9.10564 16.4108 9.11366 16.4124 9.12328 16.4124C9.1301 16.4124 9.13531 16.4108 9.13834 16.4098C9.13958 16.4094 9.14045 16.4092 9.14092 16.4092C9.14492 16.4076 9.14853 16.4056 9.15213 16.4036C9.15574 16.4016 9.15934 16.3996 9.16335 16.398L11.8518 15.0641C11.9593 15.0112 12.0763 14.984 12.1933 14.984C12.3119 14.984 12.429 15.0112 12.538 15.0657L15.2056 16.3996C15.2233 16.4076 15.2393 16.414 15.2521 16.4172C15.2537 16.4156 15.2553 16.4144 15.2569 16.4132C15.2585 16.412 15.2601 16.4108 15.2617 16.4092C15.2762 16.398 15.3002 16.3739 15.2954 16.345V16.3434L14.7616 13.4706C14.7135 13.2141 14.8 12.9496 14.9908 12.77L17.0893 10.7917C17.1166 10.7597 17.107 10.7308 17.1038 10.7212L17.1038 10.7212C17.099 10.7068 17.0941 10.6907 17.0909 10.6763C17.0893 10.6715 17.0813 10.6651 17.0765 10.6651L17.046 10.6603L14.1123 10.1473C13.8702 10.104 13.6634 9.95007 13.5544 9.72885L12.2414 7.0612C12.2386 7.05648 12.2363 7.05121 12.2339 7.0457C12.2323 7.04186 12.2306 7.0379 12.2286 7.03394C12.2206 7.02754 12.2029 7.01951 12.1933 7.01951V6.25C12.5011 6.25001 12.8089 6.43596 12.9307 6.72292L14.2437 9.39057L17.1775 9.90357C17.4853 9.94365 17.753 10.1697 17.8348 10.4775C17.9374 10.7853 17.8556 11.1139 17.6296 11.34L15.5166 13.3311L16.0505 16.204C16.1114 16.5326 15.9687 16.8404 15.7218 17.0248C15.6 17.1274 15.4349 17.1883 15.2505 17.1883C15.1271 17.1883 14.9844 17.1466 14.8609 17.0857L12.1933 15.7519L9.50482 17.0857C9.38779 17.1482 9.25632 17.1803 9.12327 17.1803C8.95333 17.1803 8.78178 17.129 8.64391 17.0248C8.39703 16.8404 8.25435 16.5118 8.31527 16.2039L8.86996 13.3311L6.75702 11.3592C6.53097 11.1332 6.4492 10.7837 6.53097 10.4967C6.63357 10.1889 6.87885 9.96449 7.20749 9.92281L10.1413 9.38896L11.4543 6.72134ZM12.1933 6.25C12.1928 6.25 12.1922 6.25 12.1917 6.25H12.1933Z" fill="white"/>
<path d="M12.1917 6.25L12.1913 6.05L12.1917 6.25ZM11.4543 6.72134L11.2756 6.6315L11.2748 6.63302L11.4543 6.72134ZM12.1917 7.02112V7.22112H12.3917V7.02112H12.1917ZM12.142 7.06601L11.9648 6.97317L11.9626 6.97769L12.142 7.06601ZM10.8306 9.73044L11.01 9.81883L11.0101 9.81876L10.8306 9.73044ZM10.2775 10.1473L10.2421 9.95043L10.2417 9.9505L10.2775 10.1473ZM7.34378 10.6811L7.3079 10.4839L7.29532 10.4871L7.34378 10.6811ZM7.3024 10.6875L7.32442 10.8863L7.32455 10.8863L7.3024 10.6875ZM7.30209 10.6875L7.28003 10.4884L7.26908 10.4903L7.30209 10.6875ZM7.28767 10.6923L7.4288 10.8341L7.42967 10.8332L7.28767 10.6923ZM7.26843 10.7212L7.08634 10.6384L7.07112 10.6719L7.06882 10.7087L7.26843 10.7212ZM7.29568 10.8126L7.14385 10.9427L7.15116 10.9513L7.15938 10.9589L7.29568 10.8126ZM9.39421 12.7668L9.53071 12.6206L9.53051 12.6205L9.39421 12.7668ZM9.62507 13.4754L9.82144 13.5133L9.8215 13.513L9.62507 13.4754ZM9.07037 16.3499L8.874 16.312L8.87037 16.3307V16.3499H9.07037ZM9.07037 16.3515H8.87037V16.3626L8.87161 16.3736L9.07037 16.3515ZM9.10404 16.4092L9.24545 16.2677L9.23838 16.2607L9.23063 16.2543L9.10404 16.4092ZM9.13834 16.4098L9.19768 16.6008L9.19775 16.6008L9.13834 16.4098ZM9.14092 16.4092V16.6092H9.1794L9.21513 16.5949L9.14092 16.4092ZM9.16335 16.398L9.23757 16.5837L9.24503 16.5807L9.25224 16.5771L9.16335 16.398ZM11.8518 15.0641L11.7635 14.8847L11.7629 14.885L11.8518 15.0641ZM12.538 15.0657L12.4485 15.2446L12.4485 15.2446L12.538 15.0657ZM15.2056 16.3996L15.1161 16.5786L15.123 16.5817L15.2056 16.3996ZM15.2521 16.4172L15.2037 16.6112L15.3135 16.6387L15.3935 16.5586L15.2521 16.4172ZM15.2569 16.4132L15.3769 16.5732V16.5732L15.2569 16.4132ZM15.2617 16.4092L15.1389 16.2513L15.1291 16.259L15.1203 16.2677L15.2617 16.4092ZM15.2954 16.345H15.0954V16.3616L15.0981 16.3779L15.2954 16.345ZM15.2954 16.3434H15.4954V16.325L15.492 16.3069L15.2954 16.3434ZM14.7616 13.4706L14.9582 13.4341L14.9581 13.4337L14.7616 13.4706ZM14.9908 12.77L15.1279 12.9157L15.128 12.9155L14.9908 12.77ZM17.0893 10.7917L17.2265 10.9373L17.2345 10.9297L17.2417 10.9213L17.0893 10.7917ZM17.1038 10.7212L16.9097 10.7697L16.9116 10.7771L16.914 10.7844L17.1038 10.7212ZM17.1038 10.7212L17.2978 10.6727L17.2959 10.6652L17.2935 10.6579L17.1038 10.7212ZM17.0909 10.6763L17.2862 10.6329L17.2839 10.6228L17.2806 10.6129L17.0909 10.6763ZM17.0765 10.6651L17.0453 10.8626L17.0608 10.8651H17.0765V10.6651ZM17.046 10.6603L17.0116 10.8573L17.0148 10.8578L17.046 10.6603ZM14.1123 10.1473L14.0771 10.3441L14.0778 10.3443L14.1123 10.1473ZM13.5544 9.72885L13.3749 9.81717L13.375 9.81725L13.5544 9.72885ZM12.2414 7.0612L12.4208 6.97288L12.4172 6.96541L12.4129 6.95827L12.2414 7.0612ZM12.2339 7.0457L12.4176 6.9665L12.4176 6.9665L12.2339 7.0457ZM12.2286 7.03394L12.4075 6.94449L12.3878 6.90517L12.3535 6.87772L12.2286 7.03394ZM12.1933 7.01951H11.9933V7.21951H12.1933V7.01951ZM12.1933 6.25L12.1933 6.05L11.9933 6.05V6.25H12.1933ZM12.9307 6.72292L12.7464 6.80121L12.7513 6.81124L12.9307 6.72292ZM14.2437 9.39057L14.0643 9.47889L14.1092 9.57007L14.2093 9.58758L14.2437 9.39057ZM17.1775 9.90357L17.143 10.1008L17.1517 10.1019L17.1775 9.90357ZM17.8348 10.4775L17.6411 10.5289L17.645 10.5407L17.8348 10.4775ZM17.6296 11.34L17.7668 11.4856L17.771 11.4814L17.6296 11.34ZM15.5166 13.3311L15.3795 13.1856L15.3001 13.2604L15.32 13.3677L15.5166 13.3311ZM16.0505 16.204L16.2471 16.1675L16.2471 16.1674L16.0505 16.204ZM15.7218 17.0248L15.602 16.8642L15.593 16.8718L15.7218 17.0248ZM14.8609 17.0857L14.7715 17.2646L14.7724 17.265L14.8609 17.0857ZM12.1933 15.7519L12.2827 15.573L12.1936 15.5284L12.1044 15.5727L12.1933 15.7519ZM9.50482 17.0857L9.41589 16.9064L9.41057 16.9093L9.50482 17.0857ZM8.64391 17.0248L8.76451 16.8652L8.76358 16.8645L8.64391 17.0248ZM8.31527 16.2039L8.51147 16.2428L8.51164 16.2419L8.31527 16.2039ZM8.86996 13.3311L9.06633 13.369L9.08731 13.2604L9.00642 13.1849L8.86996 13.3311ZM6.75702 11.3592L6.61551 11.5007L6.62056 11.5055L6.75702 11.3592ZM6.53097 10.4967L6.34105 10.4334L6.33863 10.4419L6.53097 10.4967ZM7.20749 9.92281L7.23269 10.1215L7.2433 10.1196L7.20749 9.92281ZM10.1413 9.38896L10.1771 9.58573L10.2762 9.56769L10.3207 9.47728L10.1413 9.38896ZM12.1913 6.05C11.8037 6.05081 11.4512 6.28219 11.2756 6.6315L11.633 6.81118C11.7454 6.58755 11.9653 6.45047 12.1921 6.45L12.1913 6.05ZM12.3917 7.02112V6.25H11.9917V7.02112H12.3917ZM12.3192 7.15882C12.3123 7.17195 12.302 7.18342 12.2895 7.19253C12.2835 7.1969 12.276 7.20149 12.2665 7.20576C12.2619 7.20785 12.2552 7.21059 12.2465 7.21318C12.2422 7.21448 12.2361 7.21615 12.2285 7.21761C12.2221 7.21885 12.2088 7.22112 12.1917 7.22112V6.82112C12.1613 6.82112 12.1378 6.82818 12.1313 6.83015C12.1202 6.83349 12.1104 6.83737 12.1023 6.84104C12.0858 6.84847 12.0694 6.85797 12.0538 6.86935C12.0221 6.89249 11.9894 6.92641 11.9648 6.9732L12.3192 7.15882ZM11.0101 9.81876L12.3214 7.15433L11.9626 6.97769L10.6512 9.64212L11.0101 9.81876ZM10.313 10.3441C10.6162 10.2895 10.8747 10.0936 11.01 9.81883L10.6512 9.64206C10.5717 9.80339 10.4198 9.91844 10.2421 9.95043L10.313 10.3441ZM7.37959 10.8779L10.3134 10.344L10.2417 9.9505L7.30797 10.4844L7.37959 10.8779ZM7.32455 10.8863C7.3357 10.885 7.36405 10.8822 7.39224 10.8752L7.29532 10.4871C7.29799 10.4864 7.29855 10.4865 7.29537 10.4869C7.29202 10.4874 7.28799 10.4879 7.28026 10.4887L7.32455 10.8863ZM7.32411 10.8863L7.32442 10.8863L7.28038 10.4887L7.28007 10.4887L7.32411 10.8863ZM7.42967 10.8332C7.40367 10.8594 7.37638 10.872 7.36016 10.8779C7.34592 10.8831 7.3356 10.8847 7.3351 10.8848L7.26908 10.4903C7.26089 10.4916 7.19711 10.4996 7.14567 10.5515L7.42967 10.8332ZM7.45051 10.8039C7.44874 10.8078 7.44564 10.8135 7.44067 10.8203C7.43823 10.8236 7.43567 10.8266 7.43313 10.8295C7.43061 10.8323 7.42848 10.8344 7.4288 10.834L7.14654 10.5506C7.13239 10.5647 7.1074 10.5921 7.08634 10.6384L7.45051 10.8039ZM7.44752 10.6824C7.45738 10.6939 7.46222 10.7034 7.46405 10.7073C7.46612 10.7117 7.4669 10.7144 7.46713 10.7153C7.46739 10.7162 7.46763 10.7173 7.46783 10.7189C7.46798 10.7201 7.46857 10.7252 7.46804 10.7337L7.06882 10.7087C7.06633 10.7483 7.07233 10.788 7.08134 10.8209C7.0899 10.8522 7.10734 10.9002 7.14385 10.9427L7.44752 10.6824ZM9.53051 12.6205L7.43199 10.6662L7.15938 10.9589L9.25791 12.9132L9.53051 12.6205ZM9.8215 13.513C9.88405 13.1861 9.77511 12.8489 9.53071 12.6206L9.2577 12.913C9.40126 13.0471 9.46546 13.2453 9.42863 13.4378L9.8215 13.513ZM9.26675 16.3878L9.82144 13.5133L9.42869 13.4375L8.874 16.312L9.26675 16.3878ZM9.27037 16.3515V16.3499H8.87037V16.3515H9.27037ZM9.23063 16.2543C9.24055 16.2624 9.24655 16.2696 9.24944 16.2733C9.25258 16.2774 9.25463 16.2807 9.25604 16.2832C9.25741 16.2857 9.25923 16.2893 9.26117 16.2945C9.26252 16.2981 9.26705 16.3106 9.26914 16.3293L8.87161 16.3736C8.87663 16.4187 8.89469 16.4564 8.90635 16.4774C8.91959 16.5013 8.94232 16.5353 8.97744 16.564L9.23063 16.2543ZM9.12328 16.2124C9.12873 16.2124 9.13608 16.2128 9.1455 16.2144C9.14991 16.2152 9.15866 16.217 9.16975 16.2207C9.1753 16.2225 9.18436 16.2258 9.19508 16.2312C9.20396 16.2357 9.22452 16.2468 9.24545 16.2677L8.96263 16.5506C8.99859 16.5866 9.03896 16.5987 9.04298 16.6C9.05633 16.6045 9.06799 16.6069 9.0758 16.6083C9.09204 16.6112 9.10821 16.6124 9.12328 16.6124V16.2124ZM9.079 16.2188C9.0779 16.2192 9.08397 16.2172 9.09185 16.2156C9.10006 16.2139 9.11075 16.2124 9.12328 16.2124V16.6124C9.16196 16.6124 9.19136 16.6028 9.19768 16.6008L9.079 16.2188ZM9.14092 16.2092C9.11147 16.2092 9.08815 16.2162 9.08802 16.2162C9.08494 16.217 9.08248 16.2178 9.08132 16.2181C9.08015 16.2185 9.07906 16.2188 9.07892 16.2189L9.19775 16.6008C9.19967 16.6002 9.196 16.6014 9.19181 16.6025C9.18941 16.6032 9.18423 16.6045 9.17751 16.6058C9.17175 16.6068 9.15829 16.6092 9.14092 16.6092V16.2092ZM9.05497 16.2288C9.05271 16.23 9.05375 16.2294 9.0553 16.2286C9.05724 16.2276 9.06125 16.2256 9.0667 16.2235L9.21513 16.5949C9.23279 16.5878 9.24719 16.5795 9.2493 16.5784L9.05497 16.2288ZM9.08913 16.2122C9.07147 16.2193 9.05708 16.2276 9.05497 16.2288L9.2493 16.5784C9.25156 16.5771 9.25051 16.5777 9.24896 16.5785C9.24702 16.5795 9.24302 16.5815 9.23757 16.5837L9.08913 16.2122ZM11.7629 14.885L9.07446 16.2188L9.25224 16.5771L11.9407 15.2433L11.7629 14.885ZM12.1933 14.784C12.0453 14.784 11.8981 14.8184 11.7635 14.8847L11.9402 15.2435C12.0204 15.204 12.1073 15.184 12.1933 15.184V14.784ZM12.6274 14.8869C12.4907 14.8185 12.343 14.784 12.1933 14.784V15.184C12.2809 15.184 12.3673 15.204 12.4485 15.2446L12.6274 14.8869ZM15.2951 16.2207L12.6274 14.8869L12.4485 15.2446L15.1162 16.5784L15.2951 16.2207ZM15.3006 16.2231C15.3048 16.2242 15.3058 16.2248 15.3025 16.2235C15.2995 16.2224 15.2949 16.2204 15.2883 16.2175L15.123 16.5817C15.1426 16.5906 15.1723 16.6034 15.2037 16.6112L15.3006 16.2231ZM15.137 16.2531C15.1363 16.2537 15.1237 16.2627 15.1107 16.2758L15.3935 16.5586C15.3837 16.5684 15.3744 16.5751 15.3769 16.5732L15.137 16.2531ZM15.1203 16.2677C15.1301 16.2579 15.1394 16.2513 15.137 16.2531L15.3769 16.5732C15.3776 16.5727 15.3901 16.5636 15.4032 16.5506L15.1203 16.2677ZM15.0981 16.3779C15.0895 16.3262 15.109 16.2886 15.1185 16.2742C15.1276 16.2602 15.1362 16.2534 15.1389 16.2513L15.3845 16.567C15.4017 16.5537 15.4296 16.5293 15.4531 16.4933C15.477 16.4568 15.5061 16.3927 15.4927 16.3122L15.0981 16.3779ZM15.0954 16.3434V16.345H15.4954V16.3434H15.0954ZM14.5649 13.5071L15.0988 16.38L15.492 16.3069L14.9582 13.4341L14.5649 13.5071ZM14.8537 12.6244C14.6136 12.8504 14.5043 13.1836 14.565 13.5075L14.9581 13.4337C14.9227 13.2446 14.9865 13.0487 15.1279 12.9157L14.8537 12.6244ZM16.9521 10.6462L14.8536 12.6245L15.128 12.9155L17.2265 10.9373L16.9521 10.6462ZM16.914 10.7844C16.9142 10.7849 16.9069 10.765 16.9082 10.7383C16.9097 10.7077 16.9213 10.6805 16.937 10.6622L17.2417 10.9213C17.2846 10.8709 17.305 10.8133 17.3077 10.7578C17.3102 10.7063 17.2965 10.6671 17.2935 10.658L16.914 10.7844ZM16.9097 10.7697L16.9097 10.7697L17.2978 10.6727L17.2978 10.6727L16.9097 10.7697ZM16.8957 10.7197C16.901 10.7435 16.9081 10.7668 16.914 10.7844L17.2935 10.6579C17.2898 10.6467 17.2873 10.6379 17.2862 10.6329L16.8957 10.7197ZM17.0765 10.8651C17.0372 10.8651 17.0084 10.8532 16.9961 10.8474C16.9813 10.8405 16.9698 10.8328 16.9613 10.8261C16.9527 10.8194 16.9434 10.8107 16.9343 10.7997C16.9265 10.7902 16.9114 10.77 16.9013 10.7397L17.2806 10.6129C17.2616 10.5561 17.2235 10.5234 17.2085 10.5117C17.1973 10.5028 17.1828 10.4931 17.165 10.4849C17.1499 10.4778 17.1183 10.4651 17.0765 10.4651V10.8651ZM17.0148 10.8578L17.0453 10.8626L17.1077 10.4675L17.0772 10.4627L17.0148 10.8578ZM14.0778 10.3443L17.0116 10.8573L17.0805 10.4633L14.1467 9.95026L14.0778 10.3443ZM13.375 9.81725C13.5124 10.0962 13.7732 10.2898 14.0771 10.3441L14.1475 9.95039C13.9673 9.91815 13.8144 9.80399 13.7338 9.64045L13.375 9.81725ZM12.062 7.14952L13.3749 9.81717L13.7338 9.64053L12.4208 6.97288L12.062 7.14952ZM12.0503 7.1249C12.0515 7.12781 12.059 7.14589 12.0699 7.16413L12.4129 6.95827C12.4161 6.96363 12.418 6.96763 12.4185 6.96873C12.4189 6.96952 12.419 6.96981 12.4176 6.9665L12.0503 7.1249ZM12.0497 7.12339C12.0487 7.12149 12.0483 7.12033 12.0503 7.1249L12.4176 6.9665C12.4162 6.96339 12.4124 6.95431 12.4075 6.94449L12.0497 7.12339ZM12.1933 7.21951C12.171 7.21951 12.1548 7.21536 12.1492 7.21384C12.1419 7.21184 12.1366 7.20977 12.1334 7.20842C12.13 7.20699 12.1265 7.20531 12.1228 7.20318C12.1196 7.20141 12.1126 7.19725 12.1037 7.19017L12.3535 6.87772C12.3306 6.85942 12.3065 6.84738 12.2897 6.84023C12.2773 6.83495 12.2398 6.81951 12.1933 6.81951V7.21951ZM11.9933 6.25V7.01951H12.3933V6.25H11.9933ZM13.1148 6.64476C12.9589 6.2775 12.5741 6.05001 12.1933 6.05L12.1933 6.45C12.4281 6.45 12.6589 6.59441 12.7467 6.80108L13.1148 6.64476ZM14.4232 9.30225L13.1102 6.6346L12.7513 6.81124L14.0643 9.47889L14.4232 9.30225ZM17.2119 9.70656L14.2782 9.19356L14.2093 9.58758L17.143 10.1006L17.2119 9.70656ZM18.0281 10.4262C17.9249 10.0377 17.5893 9.7555 17.2033 9.70524L17.1517 10.1019C17.3813 10.1318 17.5812 10.3017 17.6415 10.5288L18.0281 10.4262ZM17.771 11.4814C18.0496 11.2028 18.1515 10.7953 18.0245 10.4143L17.645 10.5407C17.7232 10.7753 17.6617 11.0251 17.4882 11.1986L17.771 11.4814ZM15.6538 13.4767L17.7668 11.4855L17.4924 11.1944L15.3795 13.1856L15.6538 13.4767ZM16.2471 16.1674L15.7133 13.2946L15.32 13.3677L15.8538 16.2405L16.2471 16.1674ZM15.8415 17.185C16.1436 16.9594 16.3232 16.5779 16.2471 16.1675L15.8538 16.2404C15.8996 16.4873 15.7938 16.7214 15.6022 16.8645L15.8415 17.185ZM15.2505 17.3883C15.4789 17.3883 15.6904 17.3127 15.8507 17.1778L15.593 16.8718C15.5096 16.9421 15.3909 16.9883 15.2505 16.9883V17.3883ZM14.7724 17.265C14.914 17.3349 15.0874 17.3883 15.2505 17.3883V16.9883C15.1667 16.9883 15.0547 16.9583 14.9494 16.9063L14.7724 17.265ZM12.1038 15.9308L14.7715 17.2646L14.9504 16.9068L12.2827 15.573L12.1038 15.9308ZM9.59371 17.2649L12.2822 15.931L12.1044 15.5727L9.41593 16.9065L9.59371 17.2649ZM9.12327 17.3803C9.28828 17.3803 9.45223 17.3405 9.59907 17.2621L9.41057 16.9093C9.32334 16.9559 9.22437 16.9803 9.12327 16.9803V17.3803ZM8.52332 17.1843C8.69941 17.3174 8.9144 17.3803 9.12327 17.3803V16.9803C8.99226 16.9803 8.86415 16.9405 8.76451 16.8652L8.52332 17.1843ZM8.11908 16.1651C8.04187 16.5552 8.22133 16.9588 8.52425 17.185L8.76358 16.8645C8.57272 16.722 8.46683 16.4683 8.51146 16.2428L8.11908 16.1651ZM8.67359 13.2932L8.1189 16.166L8.51164 16.2419L9.06633 13.369L8.67359 13.2932ZM6.62056 11.5055L8.73351 13.4773L9.00642 13.1849L6.89348 11.213L6.62056 11.5055ZM6.33863 10.4419C6.23741 10.7972 6.3371 11.2222 6.6156 11.5007L6.89844 11.2178C6.72485 11.0442 6.66099 10.7703 6.72332 10.5515L6.33863 10.4419ZM7.18233 9.7244C6.7694 9.77677 6.46549 10.0607 6.34124 10.4335L6.72071 10.56C6.80165 10.3171 6.9883 10.1522 7.23265 10.1212L7.18233 9.7244ZM10.1055 9.19219L7.17169 9.72604L7.2433 10.1196L10.1771 9.58573L10.1055 9.19219ZM11.2748 6.63302L9.96183 9.30064L10.3207 9.47728L11.6337 6.80966L11.2748 6.63302ZM12.1933 6.05C12.1931 6.05 12.193 6.05 12.1926 6.05C12.1923 6.05 12.1918 6.05 12.1913 6.05L12.1921 6.45C12.1921 6.45 12.1921 6.45 12.1922 6.45C12.1922 6.45 12.1923 6.45 12.1924 6.45C12.1925 6.45 12.193 6.45 12.1933 6.45V6.05ZM12.1917 6.45H12.1933V6.05H12.1917V6.45Z" fill="white"/>
</svg>
