<?xml version="1.0" encoding="UTF-8"?>
<svg width="375px" height="916px" viewBox="0 0 375 916" version="1.1" xmlns="http://www.w3.org/2000/svg" xmlns:xlink="http://www.w3.org/1999/xlink">
    <title>矩形</title>
    <g id="页面-1" stroke="none" stroke-width="1" fill="none" fill-rule="evenodd">
        <g id="详情-加载" transform="translate(0.000000, -90.000000)">
            <rect id="矩形" fill="#FFFFFF" x="0" y="90" width="375" height="78"></rect>
            <rect id="矩形备份-3" fill="#F7F7F7" x="303" y="131.999157" width="57" height="14" rx="2"></rect>
            <rect id="矩形" fill="#F7F7F7" x="267" y="106.999157" width="93" height="19" rx="4"></rect>
            <g id="编组" transform="translate(10.000000, 176.000000)">
                <path d="M10,0 L345,0 C350.522847,-1.01453063e-15 355,4.4771525 355,10 L355,53 L355,53 L0,53 L0,10 C-6.76353751e-16,4.4771525 4.4771525,1.01453063e-15 10,0 Z" id="矩形" fill="#FFFFFF"></path>
                <line x1="0" y1="52.5" x2="355" y2="52.5" id="直线-14" stroke="#EDEDED" stroke-width="0.5" stroke-linecap="square"></line>
                <rect id="矩形备份-3" fill="#F7F7F7" x="247" y="21" width="93" height="14" rx="2"></rect>
                <g id="编组-25" transform="translate(0.000000, 53.000000)">
                    <path d="M0,0 L355,0 L355,347 C355,352.522847 350.522847,357 345,357 L10,357 C4.4771525,357 3.07842777e-14,352.522847 0,347 L0,0 L0,0 Z" id="矩形" fill="#FFFFFF"></path>
                    <g id="编组-7" transform="translate(0.000000, 40.000000)">
                        <g id="列表备份">
                            <rect id="矩形65" fill="#FFFFFF" x="0" y="0" width="355" height="75"></rect>
                            <line x1="64.2698334" y1="74.5" x2="355" y2="74.5" id="直线-21复制49" stroke="#EDEDED" stroke-width="0.5" stroke-linecap="square"></line>
                        </g>
                        <g id="编组-3" transform="translate(15.000000, 20.000000)" fill="#F7F7F7">
                            <g id="编组-11">
                                <ellipse id="椭圆形" cx="18.5217391" cy="18" rx="18.5217391" ry="18"></ellipse>
                            </g>
                            <rect id="矩形" x="49" y="8" width="95" height="20" rx="4"></rect>
                            <g id="编组-5" transform="translate(173.000000, 1.000000)">
                                <rect id="矩形备份-4" x="0" y="0" width="152" height="17" rx="4"></rect>
                                <rect id="矩形备份-5" x="0" y="24" width="152" height="10" rx="2"></rect>
                            </g>
                        </g>
                    </g>
                    <g id="编组-7备份" transform="translate(0.000000, 115.000000)">
                        <g id="列表备份">
                            <rect id="矩形65" fill="#FFFFFF" x="0" y="0" width="355" height="75"></rect>
                            <line x1="64.2698334" y1="74.5" x2="355" y2="74.5" id="直线-21复制49" stroke="#EDEDED" stroke-width="0.5" stroke-linecap="square"></line>
                        </g>
                        <g id="编组-3" transform="translate(15.000000, 20.000000)" fill="#F7F7F7">
                            <g id="编组-11">
                                <ellipse id="椭圆形" cx="18.5217391" cy="18" rx="18.5217391" ry="18"></ellipse>
                            </g>
                            <rect id="矩形" x="49" y="8" width="95" height="20" rx="4"></rect>
                            <g id="编组-5" transform="translate(173.000000, 1.000000)">
                                <rect id="矩形备份-4" x="0" y="0" width="152" height="17" rx="4"></rect>
                                <rect id="矩形备份-5" x="0" y="24" width="152" height="10" rx="2"></rect>
                            </g>
                        </g>
                    </g>
                    <g id="编组-7备份-2" transform="translate(0.000000, 190.000000)">
                        <g id="列表备份">
                            <rect id="矩形65" fill="#FFFFFF" x="0" y="0" width="355" height="75"></rect>
                            <line x1="64.2698334" y1="74.5" x2="355" y2="74.5" id="直线-21复制49" stroke="#EDEDED" stroke-width="0.5" stroke-linecap="square"></line>
                        </g>
                        <g id="编组-3" transform="translate(15.000000, 20.000000)" fill="#F7F7F7">
                            <g id="编组-11">
                                <ellipse id="椭圆形" cx="18.5217391" cy="18" rx="18.5217391" ry="18"></ellipse>
                            </g>
                            <rect id="矩形" x="49" y="8" width="95" height="20" rx="4"></rect>
                            <g id="编组-5" transform="translate(173.000000, 1.000000)">
                                <rect id="矩形备份-4" x="0" y="0" width="152" height="17" rx="4"></rect>
                                <rect id="矩形备份-5" x="0" y="24" width="152" height="10" rx="2"></rect>
                            </g>
                        </g>
                    </g>
                    <g id="编组-7备份-3" transform="translate(0.000000, 265.000000)">
                        <g id="列表备份" fill="#FFFFFF">
                            <rect id="矩形65" x="0" y="0" width="355" height="75"></rect>
                        </g>
                        <g id="编组-3" transform="translate(15.000000, 20.000000)" fill="#F7F7F7">
                            <g id="编组-11">
                                <ellipse id="椭圆形" cx="18.5217391" cy="18" rx="18.5217391" ry="18"></ellipse>
                            </g>
                            <rect id="矩形" x="49" y="8" width="95" height="20" rx="4"></rect>
                            <g id="编组-5" transform="translate(173.000000, 1.000000)">
                                <rect id="矩形备份-4" x="0" y="0" width="152" height="17" rx="4"></rect>
                                <rect id="矩形备份-5" x="0" y="24" width="152" height="10" rx="2"></rect>
                            </g>
                        </g>
                    </g>
                    <rect id="矩形" fill="#F7F7F7" x="15" y="16" width="48" height="14" rx="2"></rect>
                    <rect id="矩形" fill="#F7F7F7" x="283" y="16" width="57" height="14" rx="2"></rect>
                </g>
                <rect id="矩形" fill="#F7F7F7" x="15" y="16" width="93" height="19" rx="4"></rect>
            </g>
            <g id="编组备份" transform="translate(10.000000, 596.000000)">
                <path d="M10,0 L345,0 C350.522847,-1.01453063e-15 355,4.4771525 355,10 L355,53 L355,53 L0,53 L0,10 C-6.76353751e-16,4.4771525 4.4771525,1.01453063e-15 10,0 Z" id="矩形" fill="#FFFFFF"></path>
                <line x1="0" y1="52.5" x2="355" y2="52.5" id="直线-14" stroke="#EDEDED" stroke-width="0.5" stroke-linecap="square"></line>
                <rect id="矩形备份-3" fill="#F7F7F7" x="247" y="21" width="93" height="14" rx="2"></rect>
                <g id="编组-25" transform="translate(0.000000, 53.000000)">
                    <path d="M0,0 L355,0 L355,347 C355,352.522847 350.522847,357 345,357 L10,357 C4.4771525,357 3.07842777e-14,352.522847 0,347 L0,0 L0,0 Z" id="矩形" fill="#FFFFFF"></path>
                    <g id="编组-7" transform="translate(0.000000, 40.000000)">
                        <g id="列表备份">
                            <rect id="矩形65" fill="#FFFFFF" x="0" y="0" width="355" height="75"></rect>
                            <line x1="64.2698334" y1="74.5" x2="355" y2="74.5" id="直线-21复制49" stroke="#EDEDED" stroke-width="0.5" stroke-linecap="square"></line>
                        </g>
                        <g id="编组-3" transform="translate(15.000000, 20.000000)" fill="#F7F7F7">
                            <g id="编组-11">
                                <ellipse id="椭圆形" cx="18.5217391" cy="18" rx="18.5217391" ry="18"></ellipse>
                            </g>
                            <rect id="矩形" x="49" y="8" width="95" height="20" rx="4"></rect>
                            <g id="编组-5" transform="translate(173.000000, 1.000000)">
                                <rect id="矩形备份-4" x="0" y="0" width="152" height="17" rx="4"></rect>
                                <rect id="矩形备份-5" x="0" y="24" width="152" height="10" rx="2"></rect>
                            </g>
                        </g>
                    </g>
                    <g id="编组-7备份" transform="translate(0.000000, 115.000000)">
                        <g id="列表备份">
                            <rect id="矩形65" fill="#FFFFFF" x="0" y="0" width="355" height="75"></rect>
                            <line x1="64.2698334" y1="74.5" x2="355" y2="74.5" id="直线-21复制49" stroke="#EDEDED" stroke-width="0.5" stroke-linecap="square"></line>
                        </g>
                        <g id="编组-3" transform="translate(15.000000, 20.000000)" fill="#F7F7F7">
                            <g id="编组-11">
                                <ellipse id="椭圆形" cx="18.5217391" cy="18" rx="18.5217391" ry="18"></ellipse>
                            </g>
                            <rect id="矩形" x="49" y="8" width="95" height="20" rx="4"></rect>
                            <g id="编组-5" transform="translate(173.000000, 1.000000)">
                                <rect id="矩形备份-4" x="0" y="0" width="152" height="17" rx="4"></rect>
                                <rect id="矩形备份-5" x="0" y="24" width="152" height="10" rx="2"></rect>
                            </g>
                        </g>
                    </g>
                    <g id="编组-7备份-2" transform="translate(0.000000, 190.000000)">
                        <g id="列表备份">
                            <rect id="矩形65" fill="#FFFFFF" x="0" y="0" width="355" height="75"></rect>
                            <line x1="64.2698334" y1="74.5" x2="355" y2="74.5" id="直线-21复制49" stroke="#EDEDED" stroke-width="0.5" stroke-linecap="square"></line>
                        </g>
                        <g id="编组-3" transform="translate(15.000000, 20.000000)" fill="#F7F7F7">
                            <g id="编组-11">
                                <ellipse id="椭圆形" cx="18.5217391" cy="18" rx="18.5217391" ry="18"></ellipse>
                            </g>
                            <rect id="矩形" x="49" y="8" width="95" height="20" rx="4"></rect>
                            <g id="编组-5" transform="translate(173.000000, 1.000000)">
                                <rect id="矩形备份-4" x="0" y="0" width="152" height="17" rx="4"></rect>
                                <rect id="矩形备份-5" x="0" y="24" width="152" height="10" rx="2"></rect>
                            </g>
                        </g>
                    </g>
                    <g id="编组-7备份-3" transform="translate(0.000000, 265.000000)">
                        <g id="列表备份" fill="#FFFFFF">
                            <rect id="矩形65" x="0" y="0" width="355" height="75"></rect>
                        </g>
                        <g id="编组-3" transform="translate(15.000000, 20.000000)" fill="#F7F7F7">
                            <g id="编组-11">
                                <ellipse id="椭圆形" cx="18.5217391" cy="18" rx="18.5217391" ry="18"></ellipse>
                            </g>
                            <rect id="矩形" x="49" y="8" width="95" height="20" rx="4"></rect>
                            <g id="编组-5" transform="translate(173.000000, 1.000000)">
                                <rect id="矩形备份-4" x="0" y="0" width="152" height="17" rx="4"></rect>
                                <rect id="矩形备份-5" x="0" y="24" width="152" height="10" rx="2"></rect>
                            </g>
                        </g>
                    </g>
                    <rect id="矩形" fill="#F7F7F7" x="15" y="16" width="48" height="14" rx="2"></rect>
                    <rect id="矩形" fill="#F7F7F7" x="283" y="16" width="57" height="14" rx="2"></rect>
                </g>
                <rect id="矩形" fill="#F7F7F7" x="15" y="16" width="93" height="19" rx="4"></rect>
            </g>
            <rect id="矩形" fill="#F7F7F7" x="78" y="131.999157" width="57" height="14" rx="2"></rect>
            <rect id="矩形" fill="#F7F7F7" x="78" y="106.999157" width="114" height="19" rx="4"></rect>
            <path d="M29.0145656,105 L48.9854344,105 L48.9854344,105 L49.6418048,105.006727 C49.7479455,105.008406 49.8524859,105.010365 49.9554661,105.012601 L50.5549474,105.029348 L50.5549474,105.029348 L51.118915,105.052727 L51.118915,105.052727 L51.6492991,105.0827 L51.6492991,105.0827 L52.1480296,105.119228 C53.1957151,105.205447 54.0340976,105.337558 54.7515158,105.513806 L55.0743645,105.598278 C55.1268483,105.612877 55.1786967,105.627736 55.22995,105.642853 L55.5306499,105.736656 L55.5306499,105.736656 L55.8189965,105.83663 L55.8189965,105.83663 L56.0969199,105.942738 L56.0969199,105.942738 L56.36635,106.054942 C56.4106545,106.074148 56.4546855,106.093607 56.4984833,106.113317 L56.7587923,106.234592 C56.8018179,106.255305 56.8446906,106.276268 56.8874507,106.297481 L57.1429812,106.42774 C57.1854516,106.449946 57.2278898,106.4724 57.2703359,106.495101 C59.0955211,107.47122 60.5279371,108.903636 61.5040569,110.728821 L61.6372919,110.983724 C61.659002,111.026299 61.6804638,111.068947 61.7016764,111.111707 L61.8259554,111.36994 C61.846168,111.413312 61.8661299,111.456876 61.8858403,111.500674 L62.001077,111.766581 C62.0197778,111.811473 62.0382255,111.856678 62.0564192,111.902237 L62.1625274,112.180161 L62.1625274,112.180161 L62.2625018,112.468507 L62.2625018,112.468507 L62.3563043,112.769207 C62.3714216,112.820461 62.3862801,112.872309 62.400879,112.924793 L62.4853516,113.247642 C62.6480415,113.909874 62.7731241,114.675176 62.8592187,115.613029 L62.8990105,116.096657 L62.8990105,116.096657 L62.932266,116.610973 C62.9372618,116.699357 62.9419836,116.7891 62.9464307,116.880242 L62.9698097,117.44421 L62.9698097,117.44421 L62.9865565,118.043691 L62.9865565,118.043691 L62.9966327,118.680616 L62.9966327,118.680616 L63,119.356915 L63,119.356915 L62.9991574,138.984592 L62.9991574,138.984592 L62.9924309,139.640962 C62.9907512,139.747103 62.9887928,139.851643 62.9865565,139.954624 L62.9698097,140.554105 L62.9698097,140.554105 L62.9464307,141.118072 L62.9464307,141.118072 L62.9164577,141.648456 L62.9164577,141.648456 L62.8799293,142.147187 C62.7937101,143.194872 62.661599,144.033255 62.4853516,144.750673 L62.400879,145.073522 C62.3862801,145.126006 62.3714216,145.177854 62.3563043,145.229107 L62.2625018,145.529807 L62.2625018,145.529807 L62.1625274,145.818154 L62.1625274,145.818154 L62.0564192,146.096077 L62.0564192,146.096077 L61.9442158,146.365507 C61.9250094,146.409812 61.9055506,146.453843 61.8858403,146.497641 L61.7645658,146.75795 C61.7438523,146.800975 61.7228889,146.843848 61.7016764,146.886608 L61.5714171,147.142139 C61.549211,147.184609 61.5267573,147.227047 61.5040569,147.269493 C60.5279371,149.094679 59.0955211,150.527095 57.2703359,151.503214 L57.0154332,151.636449 C56.9728582,151.658159 56.9302107,151.679621 56.8874507,151.700834 L56.6292169,151.825113 C56.5858455,151.845325 56.542281,151.865287 56.4984833,151.884998 L56.232576,152.000234 C56.1876844,152.018935 56.1424791,152.037383 56.0969199,152.055577 L55.8189965,152.161685 L55.8189965,152.161685 L55.5306499,152.261659 L55.5306499,152.261659 L55.22995,152.355462 C55.1786967,152.370579 55.1268483,152.385437 55.0743645,152.400036 L54.7515158,152.484509 C54.0892836,152.647199 53.3239813,152.772282 52.386128,152.858376 L51.9025004,152.898168 L51.9025004,152.898168 L51.3881844,152.931423 C51.2998004,152.936419 51.2100574,152.941141 51.118915,152.945588 L50.5549474,152.968967 L50.5549474,152.968967 L49.9554661,152.985714 L49.9554661,152.985714 L49.3185413,152.99579 L49.3185413,152.99579 L48.6422429,152.999157 L48.6422429,152.999157 L29.0145656,152.998315 L29.0145656,152.998315 L28.3581952,152.991588 C28.2520545,152.989909 28.1475141,152.98795 28.0445339,152.985714 L27.4450526,152.968967 L27.4450526,152.968967 L26.881085,152.945588 L26.881085,152.945588 L26.3507009,152.915615 L26.3507009,152.915615 L25.8519704,152.879087 C24.8042849,152.792867 23.9659024,152.660756 23.2484842,152.484509 L22.9256355,152.400036 C22.8731517,152.385437 22.8213033,152.370579 22.77005,152.355462 L22.4693501,152.261659 L22.4693501,152.261659 L22.1810035,152.161685 L22.1810035,152.161685 L21.9030801,152.055577 L21.9030801,152.055577 L21.63365,151.943373 C21.5893455,151.924167 21.5453145,151.904708 21.5015167,151.884998 L21.2412077,151.763723 C21.1981821,151.74301 21.1553094,151.722046 21.1125493,151.700834 L20.8570188,151.570574 C20.8145484,151.548368 20.7721102,151.525915 20.7296641,151.503214 C18.9044789,150.527095 17.4720629,149.094679 16.4959431,147.269493 L16.3627081,147.014591 C16.340998,146.972016 16.3195362,146.929368 16.2983236,146.886608 L16.1740446,146.628374 C16.153832,146.585003 16.1338701,146.541438 16.1141597,146.497641 L15.998923,146.231733 C15.9802222,146.186842 15.9617745,146.141636 15.9435808,146.096077 L15.8374726,145.818154 L15.8374726,145.818154 L15.7374982,145.529807 L15.7374982,145.529807 L15.6436957,145.229107 C15.6285784,145.177854 15.6137199,145.126006 15.599121,145.073522 L15.5146484,144.750673 C15.3519585,144.088441 15.2268759,143.323139 15.1407813,142.385285 L15.1009895,141.901658 L15.1009895,141.901658 L15.067734,141.387342 C15.0627382,141.298958 15.0580164,141.209215 15.0535693,141.118072 L15.0301903,140.554105 L15.0301903,140.554105 L15.0134435,139.954624 L15.0134435,139.954624 L15.0033673,139.317699 L15.0033673,139.317699 L15,138.6414 L15,138.6414 L15.0008426,119.013723 L15.0008426,119.013723 L15.0075691,118.357353 C15.0092488,118.251212 15.0112072,118.146671 15.0134435,118.043691 L15.0301903,117.44421 L15.0301903,117.44421 L15.0535693,116.880242 L15.0535693,116.880242 L15.0835423,116.349858 L15.0835423,116.349858 L15.1200707,115.851128 C15.2062899,114.803442 15.338401,113.96506 15.5146484,113.247642 L15.599121,112.924793 C15.6137199,112.872309 15.6285784,112.820461 15.6436957,112.769207 L15.7374982,112.468507 L15.7374982,112.468507 L15.8374726,112.180161 L15.8374726,112.180161 L15.9435808,111.902237 L15.9435808,111.902237 L16.0557842,111.632807 C16.0749906,111.588503 16.0944494,111.544472 16.1141597,111.500674 L16.2354342,111.240365 C16.2561477,111.19734 16.2771111,111.154467 16.2983236,111.111707 L16.4285829,110.856176 C16.450789,110.813706 16.4732427,110.771268 16.4959431,110.728821 C17.4720629,108.903636 18.9044789,107.47122 20.7296641,106.495101 L20.9845668,106.361866 C21.0271418,106.340155 21.0697893,106.318694 21.1125493,106.297481 L21.3707831,106.173202 C21.4141545,106.152989 21.457719,106.133027 21.5015167,106.113317 L21.767424,105.99808 C21.8123156,105.97938 21.8575209,105.960932 21.9030801,105.942738 L22.1810035,105.83663 L22.1810035,105.83663 L22.4693501,105.736656 L22.4693501,105.736656 L22.77005,105.642853 C22.8213033,105.627736 22.8731517,105.612877 22.9256355,105.598278 L23.2484842,105.513806 C23.9107164,105.351116 24.6760187,105.226033 25.613872,105.139939 L26.0974996,105.100147 L26.0974996,105.100147 L26.6118156,105.066891 C26.7001996,105.061896 26.7899426,105.057174 26.881085,105.052727 L27.4450526,105.029348 L27.4450526,105.029348 L28.0445339,105.012601 L28.0445339,105.012601 L28.6814587,105.002525 C28.7908403,105.001403 28.9018626,105.000561 29.0145656,105 Z" id="蒙版" fill="#F7F7F7"></path>
        </g>
    </g>
</svg>