<svg width="80" height="80" viewBox="0 0 80 80" fill="none" xmlns="http://www.w3.org/2000/svg">
    <rect width="80" height="80" fill="#F2F2F2" />
    <rect x="10" y="10" width="60" height="60" rx="20" fill="#F2F2F2" />
    <path
        d="M23.3335 31.7148H27.477L32.0695 39.1038L36.6621 31.7148H40.8056V49.1869H37.012V37.7807L32.0716 45.2432H32.024L27.127 37.8558V49.1869H23.3335V31.7148Z"
        fill="#D1D8D7" />
    <path
        d="M43.3125 31.667V49.2062H56.6666V45.7738H47.1444V42.0905H55.4138V38.6581H47.1444V35.0994H56.542V31.667H43.3125Z"
        fill="#D1D8D7" />
    <path d="M32.0474 45.2814V39.0078L29.5239 41.5054L32.0474 45.2814Z" fill="#E3EBEA" />
    <path d="M29.524 41.5058L32.0478 39.0082L29.5032 35.0117L29.524 41.5058Z" fill="#D1D8D7" />
    <path d="M29.5238 41.5053L29.5032 35.0117L27.0854 37.749L29.5238 41.5053Z" fill="#C3CCCB" />
    <path d="M27.0854 37.8286L29.5032 35.0114L27.5537 31.7148H27.0854V37.8286Z" fill="#B0B8B7" />
    <path d="M32.0476 45.2814V39.0078L34.5905 41.5054L32.0476 45.2814Z" fill="#D9E0DF" />
    <path d="M34.5905 41.5058L32.0476 39.0082L34.6054 35.0117L34.5905 41.5058Z" fill="#D1D8D7" />
    <path d="M34.5906 41.5053L34.6056 35.0117L37.0234 37.749L34.5906 41.5053Z" fill="#C3CCCB" />
    <path d="M37.0234 37.8286L34.6057 35.0114L36.5552 31.7148H37.0234V37.8286Z" fill="#B0B8B7" />
</svg>