<?xml version="1.0" encoding="UTF-8"?>
<svg width="20px" height="20px" viewBox="0 0 20 20" version="1.1" xmlns="http://www.w3.org/2000/svg" xmlns:xlink="http://www.w3.org/1999/xlink">
    <!-- Generator: Sketch 54 (76480) - https://sketchapp.com -->
    <title>删除</title>
    <desc>Created with Sketch.</desc>
    <g id="主页面" stroke="none" stroke-width="1" fill="none" fill-rule="evenodd">
        <g id="添加资产-搜索历史" transform="translate(-340.000000, -110.000000)">
            <rect fill="#FFFFFF" x="0" y="0" width="375" height="812"></rect>
            <g id="删除" transform="translate(341.500000, 112.000000)" fill="#666260" fill-rule="nonzero">
                <path d="M16.3241375,2.68291084 L0.675862473,2.68291084 C0.305610651,2.68291084 0.00521545201,2.98307305 0.00521545201,3.35353843 C0.00521545201,3.72400382 0.305610651,4.02416602 0.675862473,4.02416602 L2.01713709,4.02416602 L2.01713709,14.9780284 C2.01713709,16.1293621 3.19730264,16.9899307 4.25260772,16.9899307 L12.7473922,16.9899307 C13.8005034,16.9899307 14.5357649,16.1625625 14.5357649,14.9780284 L14.5357649,4.02418545 L16.3241375,4.02418545 C16.6943893,4.02418545 16.9947845,3.72402324 16.9947845,3.35355786 C16.9947845,2.98309247 16.6943893,2.68291084 16.3241375,2.68291084 Z M13.1944709,14.9780479 C13.1944709,15.2841124 13.116751,15.6486755 12.7473729,15.6486755 L4.25260774,15.6486755 C3.83476874,15.6486755 3.35841172,15.291529 3.35841172,14.9780479 L3.35841172,4.02418545 L13.1944709,4.02418545 L13.1944709,14.9780479 Z" id="形状"></path>
                <path d="M6.48807836,1.34165563 L10.5119216,1.34165563 C10.8821735,1.34165563 11.1825687,1.04149343 11.1825687,0.671028041 C11.1825687,0.300562656 10.8821735,0.000381020089 10.5119216,0.000381020089 L6.48807836,0.000381020089 C6.11782654,0.000381020089 5.81743134,0.300543228 5.81743134,0.671008613 C5.81743134,1.041474 6.11782654,1.34165563 6.48807836,1.34165563 Z" id="路径"></path>
                <path d="M6.26452937,14.5309499 C6.63478119,14.5309499 6.93517639,14.2305547 6.93517639,13.8603223 L6.93517637,5.81251925 C6.93517637,5.44205385 6.63478117,5.14189166 6.26452935,5.14189166 C5.89427753,5.14189166 5.59388233,5.44205387 5.59388233,5.81251925 L5.59388233,13.8603223 C5.59388235,14.2305741 5.89427753,14.5309499 6.26452937,14.5309499 Z" id="路径"></path>
                <path d="M10.2883726,14.5309499 C10.6586244,14.5309499 10.9590196,14.2305547 10.9590196,13.8603223 L10.9590196,5.81251925 C10.9590196,5.44205385 10.6586244,5.14189166 10.2883726,5.14189166 C9.9181208,5.14189166 9.6177256,5.44205387 9.6177256,5.81251925 L9.6177256,13.8603223 C9.61772562,14.2305741 9.9181208,14.5309499 10.2883726,14.5309499 Z" id="路径"></path>
            </g>
        </g>
    </g>
</svg>