<svg width="20" height="20" viewBox="0 0 20 20" fill="none" xmlns="http://www.w3.org/2000/svg">
<g opacity="0.5">
<path fill-rule="evenodd" clip-rule="evenodd" d="M17.9773 3.86116C17.9773 3.44812 17.6425 3.11328 17.2294 3.11328H2.72517L2.62369 3.12011C2.25865 3.16963 1.97729 3.48254 1.97729 3.86116C1.97729 4.2742 2.31213 4.60903 2.72517 4.60903H17.2294L17.3309 4.6022C17.6959 4.55268 17.9773 4.23978 17.9773 3.86116ZM2.72517 7.90922C2.72517 7.47964 3.23113 7.25005 3.55442 7.53293L5.92119 9.60385C6.14885 9.80305 6.14885 10.1572 5.92119 10.3564L3.55442 12.4273C3.23113 12.7102 2.72517 12.4806 2.72517 12.0511V7.90922ZM17.2294 15.1246C17.6425 15.1246 17.9773 15.4594 17.9773 15.8725C17.9773 16.2511 17.6959 16.564 17.3309 16.6135L17.2294 16.6204H2.72517C2.31213 16.6204 1.97729 16.2855 1.97729 15.8725C1.97729 15.4939 2.25865 15.181 2.62369 15.1314L2.72517 15.1246H17.2294ZM17.9773 9.98014C17.9773 9.5671 17.6425 9.23226 17.2294 9.23226H8.61752L8.51604 9.23909C8.151 9.28861 7.86965 9.60152 7.86965 9.98014C7.86965 10.3932 8.20448 10.728 8.61752 10.728H17.2294L17.3309 10.7212C17.6959 10.6717 17.9773 10.3588 17.9773 9.98014Z" fill="#BAC6C5"/>
</g>
</svg>
