<?xml version="1.0" encoding="UTF-8"?>
<svg width="20px" height="20px" viewBox="0 0 20 20" version="1.1" xmlns="http://www.w3.org/2000/svg" xmlns:xlink="http://www.w3.org/1999/xlink">
    <title>形状</title>
    <g id="页面-1" stroke="none" stroke-width="1" fill="none" fill-rule="evenodd">
        <g id="帮助中心" transform="translate(-15.000000, -496.000000)">
            <rect fill="#FFFFFF" x="0" y="0" width="375" height="930"></rect>
            <g id="编组-4" transform="translate(15.000000, 496.000000)" fill="#00BFAF" fill-rule="nonzero" stroke="#00BFAF" stroke-width="0.3">
                <path d="M19.1666319,9.91619228 C19.1641135,4.8460614 15.0805998,0.722848644 10.0107306,0.671281512 C4.9408613,0.619714379 0.774324314,4.65901344 0.668679854,9.72804419 C0.563035394,14.7970749 4.55766022,19.006462 9.62527566,19.1661718 C9.81712709,19.2093384 10.0161729,19.2093384 10.2080244,19.1661718 C15.2025091,19.008768 19.1691093,14.9131561 19.1666319,9.91619228 L19.1666319,9.91619228 Z M18.0797569,11.5303137 L13.107893,11.5303137 C13.1356429,11.0030649 13.1541428,10.466566 13.1541428,9.93469223 C13.1541428,9.40281841 13.1541428,8.75069486 13.094018,8.16332117 L18.052007,8.16332117 C18.1764689,8.73935171 18.2400264,9.32687116 18.2416316,9.91619228 C18.241464,10.4552159 18.1872344,10.9928638 18.0797569,11.5210637 L18.0797569,11.5303137 Z M10.0507747,18.2411738 L9.78252531,18.2411738 C9.00552703,18.0237993 8.04815415,15.928679 7.71977989,12.4645616 L12.1135201,12.4645616 C11.7666459,15.896304 10.841648,18.0052994 10.0507747,18.2411738 Z M7.65040504,11.5210637 C7.60415513,11.0123149 7.60415513,10.485066 7.60415513,9.91619228 C7.60415513,9.34731854 7.60415513,8.70444497 7.65965501,8.14482119 L12.173645,8.14482119 C12.2291449,8.71369493 12.2291449,9.30569363 12.2291449,9.91619228 C12.2291449,10.5266909 12.2291449,11.0030649 12.182895,11.5118137 L7.65040504,11.5210637 Z M1.59166845,9.91619228 C1.59327362,9.32687116 1.65683113,8.73935171 1.78129303,8.16332117 L6.73928205,8.16332117 C6.67915719,8.74144487 6.67915719,9.33806855 6.67915719,9.91619228 C6.67915719,10.494316 6.67915719,10.9845649 6.72540708,11.5118137 L1.7535431,11.5118137 C1.64667919,10.9866431 1.59245268,10.4521246 1.59166845,9.91619228 L1.59166845,9.91619228 Z M9.91665002,1.59121071 C10.6982733,1.59121071 11.734271,3.67708108 12.0950202,7.21982325 L7.73827984,7.21982325 C8.09902904,3.68633107 9.13502675,1.59121071 9.91665002,1.59121071 Z M17.7791326,7.22907322 L13.0153931,7.22907322 C12.7887687,4.97670321 12.2661448,2.92320776 11.4798966,1.73458538 C14.4109545,2.30816808 16.812717,4.40309755 17.7791326,7.22907322 L17.7791326,7.22907322 Z M8.34877849,1.73458538 C7.56715522,2.92320776 7.04453137,4.97207821 6.81790688,7.22907322 L2.05416742,7.22907322 C3.01482402,4.40102187 5.41686025,2.30431428 8.34877849,1.73458538 L8.34877849,1.73458538 Z M1.99404256,12.4460617 L6.79940691,12.4460617 C7.01678144,14.7585566 7.53478028,16.8490519 8.32102855,18.0746742 C5.34403175,17.4913763 2.91998675,15.3348977 1.99404256,12.4460617 Z M11.5122715,18.0746742 C12.2985198,16.8490519 12.8165186,14.7400566 13.0338931,12.4460617 L17.8392575,12.4460617 C16.9133133,15.3348977 14.4892683,17.4913763 11.5122715,18.0746742 L11.5122715,18.0746742 Z" id="形状"></path>
            </g>
        </g>
    </g>
</svg>