<svg width="14" height="14" viewBox="0 0 14 14" fill="none" xmlns="http://www.w3.org/2000/svg">
<path fill-rule="evenodd" clip-rule="evenodd" d="M0 7C0 3.13411 3.13397 0 7 0C10.866 0 14 3.13411 14 7C14 10.866 10.866 14 7 14C3.13397 14 0 10.866 0 7ZM10.2044 10.204C10.457 9.95139 10.457 9.54176 10.2044 9.28855L7.91542 7.00017L10.2044 4.71117C10.457 4.4586 10.457 4.04878 10.2044 3.79576C9.9514 3.54319 9.54158 3.54319 9.28855 3.79576L7 6.08476L4.71081 3.79576C4.45838 3.54319 4.04856 3.54319 3.79553 3.79576C3.54315 4.04878 3.54315 4.4586 3.79553 4.71117L6.08454 7.00017L3.79553 9.28855C3.54315 9.54176 3.54315 9.95139 3.79553 10.204C4.0486 10.4572 4.45842 10.4572 4.71081 10.204L7 7.91559L9.28855 10.204C9.54158 10.4572 9.9514 10.4572 10.2044 10.204Z" fill="#BAC6C5"/>
</svg>
