<svg width="120" height="96" viewBox="0 0 120 96" fill="none" xmlns="http://www.w3.org/2000/svg">
    <defs>
        <linearGradient id="paint0_linear_10618_23670" x1="41" y1="37" x2="41" y2="61" gradientUnits="userSpaceOnUse">
            <stop stop-color="#17EAD8" />
            <stop offset="1" stop-color="#0FD8C7" />
        </linearGradient>
        <linearGradient id="paint1_linear_10618_23670" x1="-3.79132" y1="52.3447" x2="33" y2="52.3447"
            gradientUnits="userSpaceOnUse">
            <stop offset="0.000554265" stop-color="#B1FFF8" />
            <stop offset="1" stop-color="#08E0CE" />
        </linearGradient>
        <linearGradient id="paint2_linear_10618_23670" x1="123.791" y1="52.3447" x2="87" y2="52.3447"
            gradientUnits="userSpaceOnUse">
            <stop offset="0.000554265" stop-color="#B1FFF8" />
            <stop offset="1" stop-color="#08E0CE" />
        </linearGradient>
    </defs>
    <circle cx="60" cy="48" r="48" fill="#E8FCFA" />
    <mask id="mask0_10618_23670" style="mask-type:alpha" maskUnits="userSpaceOnUse" x="12" y="0" width="96" height="96">
        <circle cx="60" cy="48" r="48" fill="white" />
    </mask>
    <g mask="url(#mask0_10618_23670)">
        <circle opacity="0.2" cx="84.5" cy="89.5" r="12.5" fill="#31E1D3" />
        <circle opacity="0.3" cx="44" cy="18" r="4" fill="#5AFDEF" />
    </g>
    <path fill-rule="evenodd" clip-rule="evenodd"
        d="M71.5388 41.6892C65.2765 35.4369 55.1235 35.4369 48.8613 41.6892L48.0341 42.5151C47.7209 42.8277 47.7209 43.3345 48.0341 43.6472L50.6122 46.2212C50.7688 46.3775 51.0226 46.3775 51.1791 46.2212L52.2898 45.1123C56.6585 40.7506 63.7415 40.7506 68.1102 45.1123L69.1473 46.1478C69.3039 46.3041 69.5577 46.3041 69.7143 46.1478L72.2924 43.5737C72.6055 43.2611 72.6055 42.7543 72.2924 42.4416L71.5388 41.6892ZM79.1652 49.3035L76.8706 47.0126C76.5575 46.7 76.0498 46.7 75.7367 47.0126L68.3936 54.344C68.3153 54.4222 68.1884 54.4222 68.1101 54.344L60.7668 47.0124L60.7668 47.0124C60.4537 46.6998 59.946 46.6998 59.6329 47.0124L52.29 54.344C52.2117 54.4222 52.0848 54.4222 52.0066 54.344L44.6633 47.0124C44.3502 46.6998 43.8425 46.6998 43.5294 47.0124L41.2348 49.3033C40.9217 49.616 40.9217 50.1228 41.2348 50.4354L51.5814 60.7655C51.8945 61.0782 52.4022 61.0781 52.7153 60.7655L60.0583 53.434C60.1366 53.3559 60.2635 53.3559 60.3418 53.434L67.685 60.7655C67.9981 61.0782 68.5058 61.0781 68.8189 60.7655L79.1652 50.4355C79.4783 50.1229 79.4783 49.6161 79.1652 49.3035Z"
        fill="url(#paint0_linear_10618_23670)" />
    <path opacity="0.8" fill-rule="evenodd" clip-rule="evenodd"
        d="M3 52C4.65685 52 6 50.6569 6 49C6 47.3431 4.65685 46 3 46C1.34315 46 0 47.3431 0 49C0 50.6569 1.34315 52 3 52ZM19.5 49C19.5 50.6569 18.1569 52 16.5 52C14.8431 52 13.5 50.6569 13.5 49C13.5 47.3431 14.8431 46 16.5 46C18.1569 46 19.5 47.3431 19.5 49ZM33 49C33 50.6569 31.6569 52 30 52C28.3431 52 27 50.6569 27 49C27 47.3431 28.3431 46 30 46C31.6569 46 33 47.3431 33 49Z"
        fill="url(#paint1_linear_10618_23670)" />
    <path opacity="0.8" fill-rule="evenodd" clip-rule="evenodd"
        d="M117 52C115.343 52 114 50.6569 114 49C114 47.3431 115.343 46 117 46C118.657 46 120 47.3431 120 49C120 50.6569 118.657 52 117 52ZM100.5 49C100.5 50.6569 101.843 52 103.5 52C105.157 52 106.5 50.6569 106.5 49C106.5 47.3431 105.157 46 103.5 46C101.843 46 100.5 47.3431 100.5 49ZM87 49C87 50.6569 88.3431 52 90 52C91.6569 52 93 50.6569 93 49C93 47.3431 91.6569 46 90 46C88.3431 46 87 47.3431 87 49Z"
        fill="url(#paint2_linear_10618_23670)" />
</svg>