<?xml version="1.0" encoding="UTF-8"?>
<svg width="20px" height="20px" viewBox="0 0 20 20" version="1.1" xmlns="http://www.w3.org/2000/svg" xmlns:xlink="http://www.w3.org/1999/xlink">
    <title>编组 17</title>
    <g id="页面-1" stroke="none" stroke-width="1" fill="none" fill-rule="evenodd">
        <g id="切图" transform="translate(-136.000000, -91.000000)">
            <g id="编组-17" transform="translate(137.000000, 92.000000)">
                <g id="编组-10备份" stroke="#00BFAF" stroke-width="1.3">
                    <path d="M17.2641113,5.49419394 C16.8155524,4.42829136 16.1634307,3.44382446 15.3464772,2.62403861 L15.2239792,2.50098024 C13.5504404,0.902126376 11.3058447,0 8.97928343,0 C6.57165733,0 4.32616093,0.942844217 2.61208967,2.62403861 L2.61208967,2.66566129 C0.939451561,4.38757352 0,6.64243704 0,9.02035892 C0,10.0048258 0.163931145,10.9060474 0.449459568,11.8081737 C0.73498799,12.6279596 1.10248199,13.4079324 1.59157326,14.1453778 L1.67353883,14.2277183 L1.67353883,17.6724476 C1.67353883,17.835319 1.83656926,18 2.0005004,18 L8.97928343,18 C10.2033627,18 11.3463771,17.7529784 12.4893915,17.3023677 C13.5504404,16.8517569 14.5304243,16.1957472 15.3464772,15.3750566 L15.4689752,15.252903 C17.1010809,13.5717086 18,11.357563 18,8.97964108 C17.9585669,7.79068014 17.7135709,6.64243704 17.265012,5.49419394 L17.2641113,5.49419394 Z" id="路径" transform="translate(9.000000, 9.000000) scale(-1, 1) translate(-9.000000, -9.000000) "></path>
                </g>
                <path d="M9.15131429,11.9132 C9.64074286,11.9132 10.0358857,12.3212 10.0358857,12.8226286 C10.0358857,13.3240571 9.64074286,13.7329143 9.15131429,13.7329143 C8.91302857,13.7294857 8.68588571,13.6317714 8.52045714,13.4612 C8.35417143,13.2897714 8.26245714,13.0609143 8.26674286,12.8226286 C8.26674286,12.3212 8.66274286,11.9132 9.15131429,11.9132 Z M9.21628571,5 C9.73057143,5 10.1831429,5.09857143 10.5748571,5.294 C10.9674286,5.49028571 11.2717143,5.75771429 11.486,6.09457143 C11.6985714,6.43228571 11.8065714,6.8 11.8065714,7.196 C11.8065714,7.50714286 11.7457143,7.78057143 11.6231429,8.01542857 C11.5014286,8.25028571 11.3565714,8.45257143 11.1877143,8.62228571 L11.0370045,8.77255357 C10.8609821,8.94451786 10.6091429,9.18157143 10.2825714,9.48371429 C10.1805714,9.57885714 10.0845714,9.67914286 9.99542857,9.78371429 C9.88057143,9.914 9.79657143,10.0682857 9.74942857,10.2345714 C9.73057143,10.3074286 9.70142857,10.4334286 9.66285714,10.6134286 C9.596,10.9948571 9.38514286,11.1842857 9.03028571,11.1842857 C8.85628571,11.1885714 8.68828571,11.1208571 8.56657143,10.9974286 C8.44142857,10.8722857 8.378,10.688 8.378,10.442 C8.378,10.1342857 8.42428571,9.866 8.516,9.64057143 C8.60342857,9.42285714 8.72771429,9.22228571 8.88371429,9.04742857 C9.03457143,8.87514286 9.23942857,8.67371429 9.49828571,8.43885714 C9.72457143,8.23314286 9.88828571,8.07885714 9.98857143,7.97342857 C10.0897143,7.86971429 10.1754286,7.75228571 10.2431429,7.62457143 C10.436,7.23371429 10.3502857,6.76228571 10.0322857,6.464 C9.81114286,6.25828571 9.51714286,6.14942857 9.21628571,6.16057143 C8.82714286,6.16057143 8.54085714,6.26257143 8.35657143,6.46657143 C8.17314286,6.66971429 8.018,6.96885714 7.88942857,7.36657143 C7.76942857,7.78057143 7.54142857,7.988 7.20542857,7.988 C7.01428571,7.99142857 6.83085714,7.91171429 6.70314286,7.77028571 C6.57628571,7.646 6.50342857,7.478 6.5,7.30057143 C6.5,6.95171429 6.608,6.59771429 6.82314286,6.24028571 C7.03828571,5.88285714 7.35457143,5.58714286 7.76771429,5.35314286 C8.18171429,5.11657143 8.66514286,5 9.21628571,5 Z" id="形状结合" fill="#00BFAF"></path>
            </g>
        </g>
    </g>
</svg>