<svg width="96" height="96" viewBox="0 0 96 96" fill="none" xmlns="http://www.w3.org/2000/svg">
    <circle cx="48" cy="48" r="48" fill="#E8FCFA" />
    <mask id="mask0_7872_14960" style="mask-type:alpha" maskUnits="userSpaceOnUse" x="0" y="0" width="96" height="96">
        <circle cx="48" cy="48" r="48" fill="white" />
    </mask>
    <defs>
        <linearGradient id="paint0_linear_7872_14960" x1="-15.4506" y1="34.4043" x2="-2.11317" y2="94.6596"
            gradientUnits="userSpaceOnUse">
            <stop stop-color="#B7FFF9" />
            <stop offset="1" stop-color="#36C1B6" />
        </linearGradient>
        <linearGradient id="paint1_linear_7872_14960" x1="163.465" y1="11.1531" x2="26.9033" y2="-69.2244"
            gradientUnits="userSpaceOnUse">
            <stop stop-color="#ADEFEA" />
            <stop offset="1" stop-color="#0FCEBE" />
        </linearGradient>
    </defs>
    <g mask="url(#mask0_7872_14960)">
        <circle opacity="0.2" cx="33" cy="93" r="6" fill="#52D8CD" />
        <circle opacity="0.3" cx="59" cy="13" r="3" fill="#00BFAF" />
        <path fill-rule="evenodd" clip-rule="evenodd"
            d="M57.9512 79.6898L70.8333 82.9998L57.51 74.5696L44.7534 71.3682L57.9512 79.6898Z" fill="#5DD6CB" />
        <path fill-rule="evenodd" clip-rule="evenodd"
            d="M59.4871 27.1768C59.442 27.1683 59.3969 27.1599 59.3489 27.1514C59.3024 27.1444 59.2559 27.1359 59.208 27.1275C59.16 27.1204 59.1093 27.1134 59.0599 27.1063C59.0106 27.0993 58.9598 27.0922 58.9091 27.0866C58.8823 27.0838 58.8541 27.0823 58.8273 27.0795C58.8076 27.0767 58.7921 27.0725 58.7709 27.0711C58.7216 27.0654 58.6596 27.064 58.6074 27.0598C58.4946 27.0485 58.3875 27.0358 58.2649 27.0288C58.1986 27.0245 58.1211 27.0231 58.052 27.0203C58.0055 27.0175 57.9688 27.0133 57.9209 27.0105C57.8715 27.009 57.8095 27.0105 57.7588 27.009C57.6798 27.0062 57.6093 27.0006 57.5247 27.0006C57.3951 26.9992 57.2442 27.0006 57.1061 27.002C57.0356 27.002 56.9778 26.9992 56.9045 27.0006C56.872 27.0006 56.8312 27.002 56.8001 27.002C56.7564 27.0034 56.717 27.002 56.6719 27.0034C56.3674 27.0105 56.0417 27.0217 55.6921 27.0386L27.6344 28.4371C27.3792 28.4498 27.1368 28.4639 26.9056 28.4794C26.797 28.4878 26.6997 28.4963 26.5954 28.5048C26.5306 28.5104 26.4629 28.516 26.3995 28.5217C26.3501 28.5259 26.2937 28.5287 26.2444 28.533C26.0358 28.5527 25.8356 28.5738 25.6467 28.5964C25.6114 28.602 25.5804 28.6063 25.5452 28.6119C25.5283 28.6133 25.5057 28.6147 25.4874 28.6175C25.4564 28.6218 25.431 28.6274 25.4 28.6316C25.3013 28.6443 25.1984 28.657 25.1053 28.6725C25.0165 28.6852 24.9305 28.6993 24.8474 28.7134C24.7853 28.7247 24.7275 28.736 24.6683 28.7472C24.6585 28.7486 24.65 28.7501 24.6401 28.7529C24.626 28.7543 24.6134 28.7571 24.6007 28.7599C24.5203 28.7754 24.4428 28.7909 24.3666 28.8078C24.2905 28.8248 24.2172 28.8417 24.1453 28.8586C24.1016 28.8699 24.0593 28.8797 24.017 28.891C23.9931 28.8967 23.9691 28.9037 23.9451 28.9093C23.9423 28.9108 23.9409 28.9108 23.9381 28.9108C23.9367 28.9122 23.9353 28.9122 23.9325 28.9136C23.9198 28.9164 23.9057 28.9206 23.893 28.9234C23.8521 28.9361 23.8112 28.946 23.7717 28.9587C23.7323 28.97 23.6928 28.9812 23.6547 28.9939C23.6251 29.0024 23.5969 29.0108 23.5687 29.0207C23.5391 29.0292 23.5109 29.039 23.4828 29.0489C23.4546 29.0574 23.4278 29.0672 23.3996 29.0771C23.3756 29.0856 23.3502 29.094 23.3263 29.1025C23.3249 29.1039 23.3249 29.1039 23.3235 29.1039C23.322 29.1039 23.3206 29.1053 23.3178 29.1053C23.2953 29.1152 23.2727 29.1222 23.2487 29.1307C23.2262 29.1405 23.2036 29.1476 23.1811 29.1575C23.1585 29.1659 23.136 29.1744 23.1148 29.1828L23.0486 29.2096C23.0288 29.2181 23.0091 29.2265 22.9894 29.235L22.9316 29.2604C22.9118 29.2674 22.8935 29.2773 22.8738 29.2857C22.854 29.2928 22.8357 29.3027 22.816 29.3111C22.8061 29.3153 22.7976 29.3196 22.7878 29.3238C22.7878 29.3252 22.7864 29.3252 22.7864 29.3252C22.7849 29.3252 22.7849 29.3252 22.7849 29.3252C22.7779 29.3294 22.7708 29.3323 22.7638 29.3365C22.7455 29.345 22.7271 29.352 22.7102 29.3605C22.6919 29.3689 22.675 29.3788 22.6581 29.3858C22.6397 29.3957 22.6228 29.4042 22.6059 29.4126C22.589 29.4211 22.5707 29.4295 22.5552 29.438C22.5382 29.4479 22.5199 29.4563 22.5044 29.4648C22.4861 29.4732 22.4706 29.4831 22.4537 29.4916C22.4367 29.5 22.4198 29.5099 22.4029 29.5183L22.3522 29.548C22.3352 29.5564 22.3169 29.5663 22.3 29.5761C22.2831 29.586 22.2662 29.5959 22.2492 29.6058C22.2323 29.6142 22.2154 29.6255 22.1985 29.6354C22.1788 29.6452 22.1604 29.6565 22.1421 29.6692C22.1224 29.6791 22.104 29.6917 22.0857 29.703C22.0674 29.7143 22.0477 29.7256 22.0293 29.7369L21.9729 29.7721C21.9617 29.7791 21.949 29.7862 21.9377 29.7947C21.925 29.8017 21.9137 29.8102 21.9025 29.8172C21.8898 29.8243 21.8785 29.8327 21.8658 29.8398C21.8545 29.8482 21.8418 29.8553 21.8306 29.8623C21.8249 29.8666 21.8193 29.8708 21.8136 29.8736C21.808 29.8778 21.8024 29.8806 21.7967 29.8849C21.7911 29.8891 21.7854 29.8919 21.7798 29.8962C21.7756 29.9004 21.7699 29.9046 21.7629 29.9074L21.7234 29.9342C21.7107 29.9427 21.6966 29.9525 21.6839 29.9624L21.6445 29.9892C21.6318 29.9977 21.6191 30.0075 21.605 30.0174C21.5923 30.0258 21.5782 30.0357 21.5641 30.047C21.55 30.0555 21.5359 30.0667 21.5218 30.0766C21.5091 30.0865 21.495 30.0963 21.4824 30.1062C21.4683 30.1161 21.4542 30.1259 21.4401 30.1372C21.4274 30.1471 21.4147 30.157 21.4006 30.1668C21.3879 30.1767 21.3752 30.1866 21.3625 30.1964C21.3484 30.2063 21.3357 30.2162 21.3231 30.2274C21.309 30.2373 21.2977 30.2472 21.2836 30.257C21.2723 30.2669 21.2582 30.2782 21.2469 30.2881C21.2342 30.2979 21.2216 30.3078 21.2089 30.3177C21.1962 30.3275 21.1849 30.3374 21.1722 30.3487L21.1342 30.3783C21.1229 30.3881 21.1102 30.3994 21.0989 30.4079C21.0862 30.4192 21.0749 30.429 21.0637 30.4389C21.051 30.4488 21.0397 30.46 21.027 30.4699L20.9918 30.5009C20.9805 30.5108 20.9692 30.5207 20.9565 30.5305C20.9467 30.5418 20.934 30.5517 20.9227 30.5615C20.9114 30.5714 20.9001 30.5827 20.8889 30.5926C20.8776 30.6024 20.8663 30.6137 20.855 30.6236L20.8212 30.6546C20.8099 30.6645 20.7986 30.6743 20.7874 30.6856C20.7775 30.6969 20.7662 30.7067 20.7549 30.7166C20.7451 30.7279 20.7338 30.7378 20.7225 30.749C20.7112 30.7589 20.7 30.7688 20.6901 30.7801C20.6788 30.7899 20.6689 30.8012 20.6577 30.8111L20.6267 30.8435C20.6154 30.8534 20.6041 30.8646 20.5942 30.8745C20.583 30.8858 20.5731 30.8956 20.5632 30.9069C20.5519 30.9168 20.5421 30.9281 20.5322 30.9379C20.5209 30.9492 20.5111 30.9605 20.5012 30.9704C20.4899 30.9816 20.48 30.9929 20.4702 31.0028C20.4589 31.0141 20.4504 31.0239 20.4392 31.0352C20.4293 31.0465 20.4194 31.0564 20.4096 31.0676C20.3983 31.0789 20.3898 31.0902 20.3785 31.1015C20.3687 31.1127 20.3588 31.1226 20.3489 31.1339C20.3391 31.1452 20.3292 31.1564 20.3193 31.1677C20.3095 31.1776 20.2996 31.1889 20.2897 31.2001C20.2799 31.2114 20.27 31.2227 20.2601 31.234C20.2503 31.2453 20.2418 31.2565 20.2319 31.2678C20.2221 31.2791 20.2122 31.289 20.2023 31.3016L20.1967 31.3073V31.3087L20.1741 31.3355C20.1643 31.3468 20.1544 31.358 20.1445 31.3693C20.1361 31.3806 20.1262 31.3919 20.1163 31.4046C20.1065 31.4144 20.098 31.4271 20.0881 31.4384C20.0783 31.4497 20.0698 31.4624 20.0599 31.4736C20.0501 31.4849 20.0416 31.4962 20.0318 31.5089C20.0233 31.5202 20.0134 31.5314 20.005 31.5441C19.9951 31.5554 19.9852 31.5667 19.9768 31.5794C19.9669 31.5906 19.9584 31.6033 19.9486 31.6146C19.9401 31.6273 19.9303 31.6386 19.9218 31.6513C19.9119 31.6625 19.9035 31.6752 19.895 31.6879C19.8851 31.6992 19.8753 31.7119 19.8668 31.7246C19.8584 31.7358 19.8485 31.7485 19.84 31.7598L19.8132 31.7979L19.7865 31.8345C19.778 31.8472 19.7681 31.8599 19.7583 31.874C19.7512 31.8853 19.7413 31.898 19.7329 31.9106C19.723 31.9247 19.7146 31.936 19.7061 31.9501C19.6962 31.9628 19.6878 31.9755 19.6793 31.9882L19.6525 32.0277C19.6441 32.0418 19.6342 32.0544 19.6272 32.0671C19.6173 32.0812 19.6088 32.0939 19.6004 32.108C19.5919 32.1207 19.582 32.1334 19.575 32.1475L19.5468 32.1884C19.544 32.194 19.5398 32.2011 19.5355 32.2067V32.2081C19.5299 32.2151 19.5257 32.2222 19.5214 32.2292C19.513 32.2433 19.5045 32.2574 19.4961 32.2715C19.4862 32.2856 19.4791 32.2983 19.4693 32.3124C19.4608 32.3265 19.4524 32.342 19.4439 32.3561C19.4354 32.3702 19.427 32.3843 19.4185 32.3984C19.4087 32.4125 19.4002 32.428 19.3917 32.4421C19.3833 32.4562 19.3748 32.4703 19.3664 32.4858C19.3579 32.4999 19.3494 32.5154 19.341 32.5309C19.3325 32.5464 19.3241 32.5605 19.3142 32.576C19.3072 32.5915 19.2987 32.6071 19.2888 32.6212L19.2649 32.6677C19.255 32.6832 19.2465 32.6987 19.2381 32.7142C19.2296 32.7311 19.2212 32.7466 19.2127 32.7621C19.2042 32.779 19.1958 32.7945 19.1873 32.8115C19.1789 32.827 19.1704 32.8425 19.162 32.8594C19.1535 32.8749 19.145 32.8932 19.1366 32.9087C19.1281 32.9271 19.1197 32.9426 19.1112 32.9609C19.1027 32.9778 19.0943 32.9933 19.0858 33.0116L19.0605 33.0624C19.0534 33.0765 19.0478 33.0892 19.0421 33.1019L19.0224 33.1413L19.0041 33.1808C18.9984 33.1935 18.9914 33.2076 18.9871 33.2203C18.9829 33.2273 18.9801 33.2344 18.9773 33.2414C18.973 33.2485 18.9702 33.2555 18.9674 33.2612C18.9646 33.2682 18.9604 33.2753 18.9575 33.2823C18.9547 33.2894 18.9519 33.2964 18.9491 33.3035C18.9378 33.326 18.9279 33.35 18.9167 33.3739C18.9054 33.3993 18.8955 33.4219 18.8842 33.4458L18.8532 33.5191C18.8434 33.5431 18.8335 33.5671 18.8236 33.591L18.7968 33.6545C18.787 33.677 18.7785 33.6982 18.77 33.7193C18.7616 33.7419 18.7517 33.763 18.7447 33.7842C18.7362 33.8067 18.7263 33.8279 18.7193 33.8504C18.7108 33.8716 18.7024 33.8927 18.6939 33.9139C18.6869 33.935 18.6784 33.9562 18.6714 33.9773C18.6629 33.9984 18.6559 34.021 18.6474 34.0422C18.6404 34.0633 18.6333 34.0859 18.6248 34.107C18.6164 34.1296 18.6093 34.1521 18.6023 34.1747L18.5783 34.2423C18.5713 34.2663 18.5642 34.2889 18.5572 34.3114C18.5558 34.3128 18.5558 34.3128 18.5558 34.3128V34.3142V34.3156C18.5487 34.3382 18.5417 34.3593 18.5346 34.3819C18.5262 34.4073 18.5191 34.4326 18.5121 34.4594C18.5036 34.4848 18.4966 34.5102 18.4881 34.537C18.4811 34.5623 18.474 34.5891 18.4655 34.6159C18.4585 34.6413 18.4515 34.6681 18.4444 34.6949C18.4359 34.7273 18.4275 34.7597 18.419 34.7921C18.4106 34.8245 18.4021 34.857 18.3951 34.8894C18.3922 34.9021 18.3894 34.9148 18.3852 34.9275C18.3852 34.9289 18.3852 34.9303 18.3852 34.9317C18.3796 34.9514 18.3753 34.9697 18.3711 34.9895C18.3626 35.0233 18.3556 35.0572 18.3471 35.091C18.3373 35.1389 18.3274 35.1883 18.3161 35.2376C18.3063 35.2869 18.2964 35.3377 18.2865 35.3884C18.2781 35.4392 18.2682 35.4913 18.2583 35.5435L18.247 35.6182C18.2456 35.621 18.2456 35.6239 18.2442 35.6267C18.2442 35.6295 18.2442 35.6337 18.2428 35.6351C18.24 35.6591 18.2358 35.6817 18.2315 35.7042C18.2118 35.8311 18.1963 35.9777 18.178 36.1144C18.1639 36.2329 18.1455 36.3442 18.1329 36.4711C18.1314 36.4838 18.13 36.4922 18.1286 36.5035C18.1117 36.6628 18.1004 36.8461 18.0877 37.0181C18.0779 37.1421 18.0652 37.2521 18.0567 37.3832C18.0567 37.3931 18.0567 37.4029 18.0567 37.4114C18.0553 37.4213 18.0539 37.4269 18.0539 37.4368C18.0412 37.6595 18.0342 37.9132 18.0257 38.1614C18.0215 38.2812 18.0158 38.3869 18.0116 38.5138C18.0116 38.5194 18.0116 38.5237 18.0116 38.5307C18.0018 38.924 17.9989 39.3498 18.0003 39.8093L18.0722 62.2789C18.0751 63.2164 18.099 64.0044 18.1441 64.6783C18.1907 65.3521 18.2555 65.9118 18.3415 66.3967C18.4275 66.8831 18.5346 67.2919 18.6601 67.664C18.7841 68.0362 18.9293 68.3689 19.0943 68.703C19.2578 69.0329 19.4425 69.3444 19.6455 69.6348C19.8471 69.9267 20.0684 70.1987 20.3081 70.4482C20.5449 70.7006 20.8015 70.9304 21.0721 71.1376C21.3442 71.3462 21.6332 71.5323 21.9363 71.6959C22.0462 71.7537 22.1562 71.8086 22.2676 71.8622C22.3789 71.9144 22.4903 71.9651 22.6059 72.0116C22.7215 72.0582 22.8399 72.1033 22.964 72.1427C23.0866 72.185 23.2149 72.2231 23.3474 72.2569C23.7182 72.3528 24.2116 72.4811 24.5823 72.5769C24.7233 72.6122 24.8939 72.6573 25.0532 72.6982L26.0062 72.9449C26.1556 72.9843 26.3107 73.0238 26.4418 73.0576C26.6053 73.0999 26.797 73.1493 26.9873 73.1986L27.1762 73.248C27.3539 73.2931 27.5329 73.3396 27.6851 73.3791C27.7401 73.3932 27.8064 73.4101 27.8684 73.427L28.1602 73.5017C28.2096 73.5158 28.2645 73.5285 28.3096 73.5412C28.6466 73.6286 29.0751 73.7385 29.4318 73.8316L30.2818 74.0515C30.4665 74.0994 30.6526 74.1474 30.8119 74.1882C30.9811 74.2319 31.1939 74.2869 31.373 74.3334L32.6431 74.6619C32.6615 74.6675 32.6826 74.6718 32.6995 74.6774C32.7263 74.6831 32.7601 74.6929 32.7883 74.7L33.6595 74.9255C33.761 74.9509 33.8724 74.9805 33.964 75.0031C34.1529 75.0524 34.4053 75.1187 34.5956 75.1666C34.7394 75.2047 34.9086 75.2484 35.0763 75.2921L35.8658 75.4951C35.7304 75.4612 35.6021 75.4232 35.4767 75.3809C35.3526 75.34 35.2328 75.2949 35.1158 75.2484C35.0002 75.2004 34.886 75.1497 34.7732 75.0961C34.6619 75.0425 34.5505 74.9861 34.4391 74.9269C34.1332 74.762 33.8428 74.5731 33.5679 74.363C33.293 74.1516 33.035 73.919 32.794 73.6652C32.5543 73.4101 32.3316 73.1352 32.1272 72.8391C31.9228 72.5445 31.7367 72.2287 31.5717 71.8932C31.4068 71.5563 31.2616 71.218 31.1347 70.8402C31.0079 70.4638 30.9021 70.0479 30.8161 69.5559C30.7301 69.0625 30.6653 68.4944 30.6202 67.8107C30.5765 67.1269 30.5539 66.3276 30.5525 65.3775L30.5285 42.5738C30.5285 42.1001 30.5328 41.6659 30.5441 41.2613C30.5483 41.1119 30.5567 40.9864 30.561 40.8455C30.5694 40.6058 30.5779 40.3591 30.5906 40.142C30.6004 39.9954 30.6131 39.8699 30.6244 39.7332C30.6385 39.5471 30.6512 39.3554 30.6709 39.1862C30.6836 39.0551 30.7019 38.9423 30.7175 38.8211C30.7386 38.6576 30.7597 38.487 30.7837 38.339C30.7851 38.3333 30.7865 38.3263 30.7879 38.3193C30.8288 38.0711 30.8768 37.8399 30.9289 37.6228C30.9289 37.6214 30.9289 37.62 30.9303 37.6186C30.9825 37.3987 31.0403 37.1929 31.1023 36.9969C31.1037 36.9969 31.1037 36.9955 31.1037 36.9955C31.2292 36.6022 31.3758 36.2441 31.5407 35.8861C31.7071 35.5238 31.8932 35.1812 32.0976 34.8584L32.099 34.857C32.3034 34.5341 32.5275 34.2282 32.7686 33.9435H32.77C33.0111 33.6587 33.2705 33.3937 33.5468 33.1484C33.8231 32.9031 34.1163 32.6789 34.425 32.4759C34.7366 32.2729 35.0467 32.0911 35.3907 31.9304C35.3921 31.9304 35.3935 31.929 35.3935 31.929C35.5655 31.8486 35.7445 31.7739 35.9362 31.7034C35.9377 31.7034 35.9391 31.7034 35.9405 31.702C36.1308 31.6343 36.3338 31.5695 36.5523 31.5103C36.5565 31.5089 36.5608 31.5089 36.565 31.5075C36.7821 31.4483 37.0161 31.3947 37.2684 31.3468C37.2783 31.3454 37.2882 31.3425 37.2966 31.3411C37.525 31.2974 37.7745 31.2594 38.0381 31.2227C38.0861 31.2157 38.134 31.2086 38.1848 31.2016C38.454 31.1677 38.7416 31.1367 39.0517 31.1099C39.1138 31.1043 39.1786 31.0986 39.242 31.0944C39.5719 31.0676 39.9173 31.0437 40.2979 31.0239L68.67 29.5818C69.076 29.5606 69.4425 29.5508 69.7907 29.5437C69.8993 29.5423 69.9966 29.5437 70.0995 29.5423C70.3307 29.5423 70.5534 29.5437 70.7592 29.5494C70.8607 29.5522 70.9608 29.5564 71.0567 29.5606C71.2569 29.5705 71.4415 29.5846 71.6192 29.6001C71.6925 29.6072 71.77 29.6128 71.8405 29.6198C72.0787 29.6466 72.3015 29.6791 72.5059 29.7185L59.4871 27.1768Z"
            fill="url(#paint0_linear_7872_14960)" />
        <path fill-rule="evenodd" clip-rule="evenodd"
            d="M55.3394 43.8054C55.4268 43.8012 55.5085 43.8153 55.5847 43.8463C55.6594 43.8773 55.727 43.9238 55.7834 43.983C55.8398 44.0437 55.8863 44.117 55.9174 44.2001C55.9498 44.2833 55.9667 44.3764 55.9653 44.4764L55.9314 54.6744C55.9314 54.7745 55.9131 54.8689 55.8821 54.9549C55.8483 55.0409 55.8032 55.1184 55.7454 55.1861C55.689 55.2524 55.6213 55.3059 55.5452 55.3454C55.4705 55.3849 55.3873 55.4089 55.3013 55.4131L52.7215 55.5653C52.6341 55.571 52.5495 55.5555 52.4762 55.5259C52.4001 55.4948 52.3324 55.4483 52.276 55.3891C52.2182 55.3285 52.1731 55.2566 52.1407 55.1734C52.1097 55.0917 52.0928 54.9986 52.0928 54.8999L52.121 44.6879C52.121 44.5878 52.1379 44.4934 52.1717 44.4074C52.2027 44.32 52.2507 44.2424 52.3071 44.1762C52.3648 44.1085 52.4311 44.0549 52.5072 44.0155C52.5834 43.976 52.6665 43.952 52.7539 43.9478L55.3394 43.8054Z"
            fill="#DFDFDF" />
        <path fill-rule="evenodd" clip-rule="evenodd"
            d="M77.2149 33.3127C77.3734 33.6509 77.5149 33.9891 77.6366 34.3684C77.7569 34.7448 77.8588 35.1608 77.9395 35.6533C78.0187 36.1458 78.0782 36.7147 78.1164 37.3982C78.1532 38.0803 78.1701 38.8784 78.1631 39.8266L78.0003 62.391C77.9933 63.3321 77.965 64.1245 77.9183 64.8066C77.8701 65.4887 77.8022 66.0604 77.7159 66.5586C77.6296 67.0553 77.522 67.4798 77.3961 67.869C77.2701 68.2582 77.1258 68.6119 76.9616 68.9671C76.7989 69.3181 76.6163 69.6535 76.4168 69.9719C76.2158 70.2903 75.9979 70.5903 75.7616 70.8733C75.5267 71.1549 75.2719 71.4182 75.0016 71.663C74.7299 71.9064 74.4427 72.13 74.1384 72.3338C73.9261 72.4724 73.7139 72.6041 73.4917 72.7258C73.2681 72.846 73.0346 72.9593 72.777 73.0626C72.5209 73.1659 72.2421 73.2578 71.9308 73.3428C71.618 73.4277 71.2728 73.5027 70.8822 73.5692L70.8256 82.9997L57.4525 74.5385L40.1439 75.6593C39.3005 75.7131 38.5915 75.7343 37.9816 75.7259C37.3716 75.7159 36.8622 75.6763 36.4193 75.6084C35.9763 75.5405 35.5999 75.4457 35.2574 75.3254C34.9135 75.2065 34.605 75.0622 34.2937 74.8966C33.9866 74.731 33.6937 74.5414 33.4177 74.3291C33.1418 74.1183 32.8828 73.8833 32.6422 73.6286C32.4017 73.3739 32.1767 73.0965 31.9715 72.8008C31.7677 72.5036 31.5809 72.1866 31.4139 71.8512C31.2497 71.513 31.1026 71.1719 30.9766 70.7941C30.8493 70.4148 30.7431 69.9974 30.6568 69.5035C30.5705 69.0096 30.504 68.4379 30.4601 67.7515C30.4148 67.0666 30.3922 66.2642 30.3908 65.309L30.3667 42.4191C30.3667 41.4554 30.3879 40.6445 30.4318 39.9469C30.4742 39.2492 30.5393 38.6662 30.6257 38.1567C30.7106 37.6487 30.8181 37.2156 30.9441 36.8194C31.0714 36.4232 31.2186 36.0651 31.3842 35.7043C31.5498 35.342 31.738 34.9981 31.9432 34.6726C32.1498 34.3471 32.3734 34.0415 32.6168 33.7556C32.8602 33.4698 33.1206 33.2037 33.3979 32.9575C33.6739 32.7112 33.9682 32.4862 34.2796 32.281C34.5909 32.0773 34.9036 31.8947 35.2503 31.7334C35.5956 31.5721 35.9735 31.4305 36.4207 31.3103C36.8664 31.19 37.3801 31.0909 37.9943 31.0102C38.6085 30.9282 39.3245 30.8673 40.1736 30.8234L68.6547 29.3772C69.4925 29.3333 70.1958 29.3234 70.7973 29.3418C71.4001 29.3602 71.9011 29.4083 72.3355 29.4819C72.77 29.5569 73.1379 29.6574 73.4733 29.7833C73.8101 29.9078 74.1129 30.0579 74.4158 30.2277C74.72 30.3989 75.0059 30.5914 75.2776 30.8065C75.5465 31.0216 75.7984 31.2579 76.0319 31.5154C76.2654 31.773 76.4819 32.0518 76.6786 32.3518C76.8767 32.6518 77.055 32.973 77.2149 33.3127Z"
            fill="url(#paint1_linear_7872_14960)" />
        <path fill-rule="evenodd" clip-rule="evenodd"
            d="M54.9845 62.2311C55.1769 62.0754 55.3397 61.8872 55.4713 61.6792C55.6015 61.4698 55.6991 61.2405 55.7628 61.0013C55.8265 60.7622 55.8548 60.5131 55.8463 60.2641C55.8378 60.015 55.7911 59.7659 55.7062 59.5282C55.6284 59.3272 55.5265 59.1475 55.4048 58.9904C55.2831 58.8348 55.1415 58.7017 54.9873 58.5956C54.8316 58.4895 54.6604 58.4102 54.4835 58.3607C54.3052 58.3097 54.117 58.2885 53.9259 58.2998C53.8934 58.3027 53.8623 58.3055 53.8297 58.3083C53.7972 58.3126 53.766 58.3168 53.7335 58.3225C53.7023 58.3281 53.6684 58.3338 53.6373 58.3409C53.6047 58.3494 53.5722 58.3579 53.5396 58.3664C53.3132 58.4343 53.1037 58.5432 52.9169 58.6862C52.7287 58.8277 52.5632 59.0032 52.4259 59.2027C52.29 59.4008 52.1825 59.6258 52.1089 59.865C52.0353 60.1041 51.9971 60.3589 51.9985 60.6207C51.9957 60.7608 52.0056 60.9009 52.0282 61.0367C52.0509 61.1712 52.0863 61.3042 52.133 61.4301C52.1825 61.5547 52.2419 61.675 52.3127 61.7882C52.3834 61.9 52.4655 62.0033 52.5589 62.0967C52.6523 62.1986 52.7514 62.2849 52.8561 62.3585C52.9622 62.4321 53.074 62.4929 53.1901 62.5382C53.3047 62.5849 53.425 62.6174 53.5467 62.6387C53.6698 62.6571 53.7943 62.6627 53.9189 62.6556C54.0123 62.65 54.1028 62.6372 54.1948 62.616C54.2868 62.5962 54.3774 62.5693 54.4679 62.5339C54.5571 62.4986 54.6462 62.4561 54.7312 62.4052C54.8189 62.3542 54.9024 62.2962 54.9845 62.2311Z"
            fill="white" />
        <path fill-rule="evenodd" clip-rule="evenodd"
            d="M55.8676 54.5658L55.9016 44.3286C55.903 44.2282 55.886 44.1348 55.8534 44.0513C55.8223 43.9678 55.777 43.8942 55.7204 43.8348C55.6624 43.7739 55.5945 43.7272 55.5195 43.6961C55.443 43.6649 55.361 43.6508 55.2732 43.655L52.6779 43.798C52.5901 43.8036 52.5066 43.8263 52.4302 43.8659C52.3552 43.9055 52.2873 43.9593 52.2293 44.0272C52.1727 44.0937 52.1245 44.1716 52.0934 44.2593C52.0609 44.3456 52.0425 44.4404 52.0425 44.5409L52.0142 54.7922C52.0142 54.8912 52.0311 54.9846 52.0637 55.0681C52.0948 55.1502 52.1401 55.2224 52.1981 55.2832C52.2547 55.3427 52.3227 55.3908 52.3991 55.4205C52.4741 55.4502 52.5576 55.4658 52.6453 55.4601L55.235 55.3073C55.3213 55.3031 55.4048 55.279 55.4813 55.2394C55.5563 55.1997 55.6242 55.146 55.6808 55.0795C55.7388 55.0115 55.7841 54.9337 55.8181 54.8474C55.8492 54.7611 55.8676 54.6662 55.8676 54.5658Z"
            fill="white" />
        <path fill-rule="evenodd" clip-rule="evenodd"
            d="M55.7701 59.6186C55.8561 59.8555 55.9012 60.1036 55.9111 60.3517C55.9181 60.5998 55.8899 60.8493 55.8265 61.0876C55.7631 61.3258 55.6658 61.5542 55.5361 61.7614C55.405 61.9686 55.2429 62.1561 55.0512 62.3112C54.9623 62.3845 54.8665 62.4465 54.7706 62.4987C54.6748 62.5508 54.5747 62.5917 54.4746 62.6241C54.3745 62.6566 54.273 62.6805 54.1687 62.6946C54.0672 62.7087 53.9643 62.7158 53.8614 62.7144C53.8473 62.7144 53.8332 62.713 53.8191 62.7101C53.8064 62.7087 53.7937 62.7059 53.7796 62.7031C53.7655 62.7017 53.7528 62.6989 53.7401 62.696C53.726 62.6932 53.7119 62.6918 53.6978 62.689C53.6006 62.6777 53.5047 62.6594 53.4088 62.6354C53.3144 62.6101 53.2199 62.5776 53.1311 62.5353C53.0395 62.4945 52.9535 62.4451 52.8689 62.3859C52.7871 62.3253 52.7082 62.2576 52.6349 62.1773C52.5419 62.0842 52.4601 61.9799 52.391 61.8685C52.3191 61.7572 52.2599 61.6373 52.212 61.5119C52.164 61.3864 52.1288 61.2553 52.1062 61.12C52.0837 60.9861 52.0738 60.8465 52.0766 60.7055C52.0752 60.4447 52.1133 60.191 52.1866 59.9527C52.2599 59.7145 52.367 59.4917 52.5038 59.2944C52.6391 59.0942 52.8041 58.9208 52.9916 58.7784C53.1776 58.6375 53.3877 58.5289 53.6132 58.4612C53.6527 58.45 53.6922 58.4415 53.7317 58.4359C53.7711 58.4302 53.8092 58.426 53.8501 58.4246C53.8881 58.4218 53.9276 58.4204 53.9671 58.4204C54.0051 58.4189 54.0446 58.4189 54.0841 58.4189C54.1659 58.4189 54.2462 58.4246 54.3266 58.4345C54.4041 58.4443 54.483 58.4598 54.5592 58.481C54.6339 58.5021 54.7086 58.5275 54.7819 58.5599C54.8538 58.5909 54.9243 58.6276 54.9919 58.6699C55.0032 58.6783 55.0145 58.6854 55.0258 58.6938C55.0357 58.7037 55.0455 58.7122 55.0568 58.7206C55.0667 58.7305 55.0779 58.739 55.0892 58.7488C55.0977 58.7587 55.109 58.7671 55.1202 58.7756C55.1879 58.8278 55.2542 58.8842 55.3176 58.9448C55.3796 59.0054 55.4388 59.0702 55.4952 59.1393C55.5502 59.2084 55.6009 59.2831 55.6475 59.3635C55.694 59.4424 55.7349 59.5284 55.7701 59.6186Z"
            fill="white" />
    </g>
</svg>