<svg width="165" height="165" viewBox="0 0 165 165" fill="none" xmlns="http://www.w3.org/2000/svg">
    <rect width="165" height="165" fill="#F2F2F2" />
    <rect x="42" y="43" width="80" height="80" rx="20" fill="#F2F2F2" />
    <path
        d="M59.7781 71.9526H65.3028L71.4261 81.8046L77.5495 71.9526H83.0742V95.2488H78.0161V80.0404L71.4289 89.9904H71.3654L64.8361 80.1406V95.2488H59.7781V71.9526Z"
        fill="#D1D8D7" />
    <path
        d="M86.417 71.8887V95.2743H104.223V90.6977H91.5262V85.7867H102.552V81.2101H91.5262V76.4652H104.056V71.8887H86.417Z"
        fill="#D1D8D7" />
    <path d="M71.3966 90.042V81.6772L68.032 85.0074L71.3966 90.042Z" fill="#E3EBEA" />
    <path d="M68.0322 85.007L71.3973 81.6768L68.0044 76.3481L68.0322 85.007Z" fill="#D1D8D7" />
    <path d="M68.0319 85.0062L68.0044 76.3481L64.7808 79.9979L68.0319 85.0062Z" fill="#C3CCCB" />
    <path d="M64.7808 80.1044L68.0044 76.3481L65.405 71.9526H64.7808V80.1044Z" fill="#B0B8B7" />
    <path d="M71.3972 90.042V81.6772L74.7877 85.0074L71.3972 90.042Z" fill="#D9E0DF" />
    <path d="M74.7877 85.007L71.3972 81.6768L74.8076 76.3481L74.7877 85.007Z" fill="#D1D8D7" />
    <path d="M74.7876 85.0062L74.8077 76.3481L78.0313 79.9979L74.7876 85.0062Z" fill="#C3CCCB" />
    <path d="M78.0312 80.1044L74.8076 76.3481L77.407 71.9526H78.0312V80.1044Z" fill="#B0B8B7" />
</svg>