<svg width="16" height="16" viewBox="0 0 16 16" fill="none" xmlns="http://www.w3.org/2000/svg">
<circle cx="8" cy="8" r="7" stroke="#BAC6C5"/>
<path fill-rule="evenodd" clip-rule="evenodd" d="M9.878 4.583C9.438 4.187 8.855 4 8.14 4C7.326 4 6.688 4.231 6.215 4.693C5.731 5.155 5.5 5.793 5.5 6.607H6.754C6.754 6.145 6.842 5.782 7.029 5.529C7.238 5.221 7.579 5.078 8.063 5.078C8.437 5.078 8.734 5.177 8.943 5.386C9.141 5.595 9.251 5.881 9.251 6.244C9.251 6.519 9.152 6.783 8.954 7.025L8.822 7.179C8.107 7.817 7.678 8.279 7.535 8.576C7.381 8.873 7.315 9.236 7.315 9.654V9.808H8.58V9.654C8.58 9.39 8.635 9.159 8.745 8.939C8.844 8.741 8.987 8.554 9.185 8.389C9.713 7.927 10.032 7.63 10.131 7.52C10.395 7.168 10.538 6.717 10.538 6.167C10.538 5.496 10.318 4.968 9.878 4.583ZM8.558 10.578C8.393 10.424 8.184 10.347 7.942 10.347C7.7 10.347 7.502 10.424 7.337 10.578C7.172 10.732 7.095 10.93 7.095 11.172C7.095 11.414 7.172 11.612 7.337 11.766C7.502 11.92 7.7 12.008 7.942 12.008C8.184 12.008 8.382 11.931 8.547 11.777C8.712 11.623 8.8 11.414 8.8 11.172C8.8 10.93 8.712 10.732 8.558 10.578Z" fill="#BAC6C5"/>
</svg>
