<svg width="96" height="96" viewBox="0 0 96 96" fill="none" xmlns="http://www.w3.org/2000/svg">
    <defs>
        <linearGradient id="paint0_linear_7872_14988" x1="31.3062" y1="-23.576" x2="-54.8423" y2="18.879"
            gradientUnits="userSpaceOnUse">
            <stop stop-color="#2EDFD0" />
            <stop offset="1" stop-color="#10CDBD" />
        </linearGradient>
        <linearGradient id="paint1_linear_7872_14988" x1="11" y1="54.2388" x2="15.19" y2="123.909"
            gradientUnits="userSpaceOnUse">
            <stop stop-color="white" />
            <stop offset="1" stop-color="#45DBCE" />
        </linearGradient>
        <linearGradient id="paint2_linear_7872_14988" x1="51.1946" y1="48.7505" x2="71.3763" y2="59.8678"
            gradientUnits="userSpaceOnUse">
            <stop stop-color="#ABF8F1" />
            <stop offset="1" stop-color="#2BE1D2" />
        </linearGradient>
        <linearGradient id="paint3_linear_7872_14988" x1="50.5888" y1="77.2733" x2="97.5558" y2="126.693"
            gradientUnits="userSpaceOnUse">
            <stop stop-color="white" />
            <stop offset="1" stop-color="#86FEF4" />
        </linearGradient>
    </defs>
    <circle cx="48" cy="48" r="48" fill="#DAF2F0" />
    <mask id="mask0_7872_14988" style="mask-type:alpha" maskUnits="userSpaceOnUse" x="0" y="0" width="96" height="96">
        <circle cx="48" cy="48" r="48" fill="white" />
    </mask>
    <g mask="url(#mask0_7872_14988)">
        <path fill-rule="evenodd" clip-rule="evenodd"
            d="M11 60.6023L59.9772 23L97.5188 84.905L39.8163 122.402L11 60.6023Z"
            fill="url(#paint0_linear_7872_14988)" />
        <path fill-rule="evenodd" clip-rule="evenodd"
            d="M11 60.602L36.0469 52.6279L64.5703 108.077L39.8163 122.402L11 60.602Z"
            fill="url(#paint1_linear_7872_14988)" />
        <path fill-rule="evenodd" clip-rule="evenodd" d="M36.0469 62.2142V52.6279L46.2458 72.7007L36.0469 62.2142Z"
            fill="#68FDF0" />
        <path fill-rule="evenodd" clip-rule="evenodd" d="M59.9772 23L57.562 32.4578L68.1187 35.8596L59.9772 23Z"
            fill="#ABFDF6" />
        <path fill-rule="evenodd" clip-rule="evenodd" d="M57.562 32.458L70.0186 62.0285L83.657 25.3408L57.562 32.458Z"
            fill="url(#paint2_linear_7872_14988)" />
        <path fill-rule="evenodd" clip-rule="evenodd"
            d="M65.0896 117.131L36.0469 62.2147L83.657 25.3408L113.423 82.1281L65.0896 117.131Z"
            fill="url(#paint3_linear_7872_14988)" />
        <circle cx="38.2458" cy="46.8057" r="1.5" fill="white" />
        <circle cx="48.2458" cy="38.8057" r="1.5" fill="white" />
        <circle cx="61.2458" cy="49.8057" r="1.5" fill="#00BFAF" />
        <circle cx="71.2458" cy="41.8057" r="1.5" fill="#00BFAF" />
    </g>
</svg>