<?xml version="1.0" encoding="UTF-8"?>
<svg width="10px" height="13px" viewBox="0 0 10 13" version="1.1" xmlns="http://www.w3.org/2000/svg" xmlns:xlink="http://www.w3.org/1999/xlink">
    <title>形状</title>
    <g id="页面-1" stroke="none" stroke-width="1" fill="none" fill-rule="evenodd">
        <g id="切图" transform="translate(-49.000000, -78.000000)" fill="#CCC3C0" fill-rule="nonzero">
            <path d="M51.207024,81.979728 C51.207024,80.630544 52.455744,79.377024 53.799888,79.377024 C55.144032,79.377024 56.392832,80.630528 56.392832,81.979728 L56.392832,83.006608 L57.784896,83.006608 L57.784896,82.000208 C57.784896,79.791024 56.000672,78 53.799888,78 C51.599184,78 49.81504,79.790944 49.81504,82.000208 L49.81504,83.006608 L51.207024,83.006608 L51.207024,81.979728 Z M57.481872,83.517648 L50.118,83.517648 C49.50048,83.517648 49,84.020128 49,84.639968 L49,89.6776 C49,90.29744 49.50056,90.8 50.118,90.8 L57.481872,90.8 C58.099392,90.8 58.599952,90.29744 58.599952,89.6776 L58.599952,84.639952 C58.599952,84.020208 58.099312,83.517648 57.481872,83.517648 L57.481872,83.517648 Z M54.511728,88.444816 L53.090224,88.444816 L53.402224,87.271456 C53.097264,87.123056 52.886864,86.809296 52.886864,86.446176 C52.886864,85.939936 53.295664,85.529456 53.799904,85.529456 C54.304224,85.529456 54.713024,85.939856 54.713024,86.446176 C54.713024,86.808576 54.503584,87.121696 54.199504,87.270496 L54.511728,88.444816 Z" id="形状"></path>
        </g>
    </g>
</svg>