<?xml version="1.0" encoding="UTF-8"?>
<svg width="20px" height="20px" viewBox="0 0 20 20" version="1.1" xmlns="http://www.w3.org/2000/svg" xmlns:xlink="http://www.w3.org/1999/xlink">
    <title>面容</title>
    <g id="NFT" stroke="none" stroke-width="1" fill="none" fill-rule="evenodd">
        <path d="M14.6,0 C17.3614237,0 19.6,2.23857625 19.6,5 L19.6,14.6 C19.6,17.3614237 17.3614237,19.6 14.6,19.6 L5,19.6 C2.23857625,19.6 0,17.3614237 0,14.6 L0,5 C0,2.23857625 2.23857625,0 5,0 L14.6,0 Z M14.6,1.3 L5,1.3 C3.02246428,1.3 1.40727657,2.85139624 1.3051287,4.80349687 L1.3,5 L1.3,14.6 C1.3,16.5775357 2.85139624,18.1927234 4.80349687,18.2948713 L5,18.3 L14.6,18.3 C16.5775357,18.3 18.1927234,16.7486038 18.2948713,14.7965031 L18.3,14.6 L18.3,5 C18.3,3.02246428 16.7486038,1.40727657 14.7965031,1.3051287 L14.6,1.3 Z M14.2604141,11.4044461 C14.5893295,11.5482688 14.7393767,11.9314987 14.5955539,12.2604141 C13.8036226,14.0715212 12.0112881,15.2670037 10,15.2670037 C7.98871193,15.2670037 6.19637737,14.0715212 5.40444606,12.2604141 C5.26062332,11.9314987 5.41067054,11.5482688 5.7395859,11.4044461 C6.06850126,11.2606233 6.45173121,11.4106705 6.59555394,11.7395859 C7.18232548,13.0815029 8.50991804,13.9670037 10,13.9670037 C11.490082,13.9670037 12.8176745,13.0815029 13.4044461,11.7395859 C13.5482688,11.4106705 13.9314987,11.2606233 14.2604141,11.4044461 Z M6.615,5.635 C6.98710185,5.635 7.29462114,5.9115108 7.34329032,6.27026485 L7.35,6.37 L7.35,8.14848466 C7.35,8.55441396 7.02092929,8.88348466 6.615,8.88348466 C6.24289815,8.88348466 5.93537886,8.60697386 5.88670968,8.24821981 L5.88,8.14848466 L5.88,6.37 C5.88,5.96407071 6.20907071,5.635 6.615,5.635 Z M12.985,5.635 C13.3571019,5.635 13.6646211,5.9115108 13.7132903,6.27026485 L13.72,6.37 L13.72,8.14848466 C13.72,8.55441396 13.3909293,8.88348466 12.985,8.88348466 C12.6128981,8.88348466 12.3053789,8.60697386 12.2567097,8.24821981 L12.25,8.14848466 L12.25,6.37 C12.25,5.96407071 12.5790707,5.635 12.985,5.635 Z" id="面容" fill="#00BFAF" fill-rule="nonzero"></path>
    </g>
</svg>