<svg width="38px" height="38px" viewBox="0 0 38 38" version="1.1" xmlns="http://www.w3.org/2000/svg" xmlns:xlink="http://www.w3.org/1999/xlink">
    <g transform="matrix(0.39583334 0 0 0.39583334 0 0)">
        <path d="M96 48C 96 61.254833 91.313705 72.56854 81.941124 81.941124C 72.56854 91.313705 61.254833 96 48 96C 34.745167 96 23.43146 91.313705 14.058876 81.941124C 4.686292 72.56854 0 61.254833 0 48C 0 34.745167 4.686292 23.43146 14.058876 14.058876C 23.43146 4.686292 34.745167 0 48 0C 61.254833 0 72.56854 4.686292 81.941124 14.058876C 91.313705 23.43146 96 34.745167 96 48C 96 48.558563 95.99026 49.116955 95.970764 49.675175" stroke="none" fill="#000000" fill-rule="nonzero" />
        <path d="M30.4342 34.9106C 40.1355 25.2642 55.8644 25.2642 65.5658 34.9106L65.5658 34.9106L73.9459 43.2433L65.5658 51.576C 55.8645 61.2225 40.1355 61.2225 30.4342 51.576L30.4342 51.576L22.0541 43.2433L30.4342 34.9106z" stroke="none" fill="#000000" fill-rule="nonzero" />
        <path d="M16 43.2569L35.027 24.2168L60.9729 24.2168L79.9999 43.2569L47.9999 75.2437L16 43.2569zM62.7026 36.3245C 54.6181 28.2046 41.3817 28.2046 33.2972 36.3246L33.2972 36.3246L26.3783 43.2436L33.2972 50.1625C 41.3817 58.2824 54.6181 58.2824 62.7026 50.1625L62.7026 50.1625L69.6215 43.2436L62.7026 36.3245z" stroke="none" fill="#0CE466" fill-rule="nonzero" />
        <path d="M47.9999 49.2975C 44.6577 49.2975 41.9459 46.5884 41.9459 43.2435C 41.9459 39.8986 44.6577 37.1895 47.9999 37.1895C 51.3421 37.1895 54.054 39.8986 54.054 43.2435C 54.054 46.5884 51.3421 49.2975 47.9999 49.2975z" stroke="none" fill="#000000" fill-rule="nonzero" />
        <path d="M38.0541 43.2428C 38.0541 48.738 42.5093 53.1887 48 53.1887C 53.4907 53.1887 57.9459 48.738 57.9459 43.2428C 57.9459 37.7476 53.4907 33.2969 48 33.2969C 42.5093 33.2969 38.0541 37.7476 38.0541 43.2428zM43.6757 43.2428C 43.6757 45.632 45.6127 47.5671 48 47.5671C 50.3872 47.5671 52.3243 45.632 52.3243 43.2428C 52.3243 40.8536 50.3872 38.9185 48 38.9185C 45.6127 38.9185 43.6757 40.8536 43.6757 43.2428z" stroke="none" fill="#FFFFFF" fill-rule="nonzero" />
    </g>
</svg>