<svg width="24" height="24" viewBox="0 0 24 24" fill="none" xmlns="http://www.w3.org/2000/svg">
    <defs>
        <linearGradient id="paint0_linear_1862_4600" x1="15.0111" y1="30.3108" x2="31.8402" y2="10.5846" gradientUnits="userSpaceOnUse">
            <stop offset="0.000554265" stop-color="#FD9B4E"/>
            <stop offset="1" stop-color="#FF6E1C"/>
        </linearGradient>
        <linearGradient id="paint1_linear_1862_4600" x1="15.0111" y1="30.3108" x2="31.8402" y2="10.5846" gradientUnits="userSpaceOnUse">
            <stop offset="0.000554265" stop-color="#FD9B4E"/>
            <stop offset="1" stop-color="#FF6E1C"/>
        </linearGradient>
    </defs>
    <path d="M16.0017 2.52087C15.6334 2.18573 15.1534 2 14.6555 2H4.00006C2.89549 2 2.00006 2.89543 2.00006 4V20C2.00006 21.1046 2.89549 22 4.00006 22H19.7778C20.8824 22 21.7778 21.1046 21.7778 20V8.66187C21.7778 8.09876 21.5405 7.56175 21.124 7.18273L16.0017 2.52087Z" fill="url(#paint0_linear_1862_4600)" stroke="url(#paint1_linear_1862_4600)" stroke-width="1.4"/>
<path d="M14.9667 9.99997C14.9667 11.7611 13.539 13.1889 11.7778 13.1889C10.0166 13.1889 8.58892 11.7611 8.58892 9.99997C8.58892 8.2388 10.0166 6.81108 11.7778 6.81108C13.539 6.81108 14.9667 8.2388 14.9667 9.99997Z" stroke="white" stroke-width="1.4"/>
<path d="M16.7779 17.2222C16.4998 15.3473 14.3366 13.8889 11.7472 13.8889C9.15775 13.8889 7.05595 15.3473 6.77789 17.2222" stroke="white" stroke-width="1.4" stroke-linecap="round"/>

</svg>
