<svg width="24" height="24" viewBox="0 0 24 24" fill="none" xmlns="http://www.w3.org/2000/svg">
<path d="M9.77628 18.1217L9.76568 18.12L9.75504 18.1186C9.46766 18.0808 9.17586 18.1396 8.92555 18.2858L8.91582 18.2915L8.90627 18.2974L6.01543 20.1039L6.01508 20.1041C6.01203 20.106 6.00851 20.1071 6.00489 20.1072C6.00129 20.1073 5.99772 20.1064 5.99456 20.1046C5.9914 20.1029 5.98877 20.1003 5.98694 20.0972C5.98511 20.0941 5.98415 20.0906 5.98415 20.087V20.0864V17.371C5.98665 17.1734 5.94479 16.9778 5.8616 16.7986L5.18129 17.1143L5.8616 16.7986C5.77719 16.6167 5.65245 16.4564 5.49686 16.33L5.48944 16.3239L5.48188 16.3181C3.54368 14.8229 2.45 12.6647 2.45 10.4137C2.45 6.16783 6.32161 2.60718 11.2004 2.60718C16.0795 2.60718 19.9495 6.16894 19.9495 10.4252C19.9495 14.671 16.0778 18.2317 11.1997 18.2317C10.7051 18.2317 10.2286 18.1944 9.77628 18.1217Z" stroke="#403D3C" stroke-width="1.5"/>
<path d="M16.7172 19.6467L16.7278 19.645L16.7385 19.6436C16.9936 19.6101 17.2527 19.6623 17.4749 19.792L17.4846 19.7977L17.4942 19.8037L19.3454 20.9605V19.2896C19.3434 19.1149 19.3805 18.942 19.454 18.7836L20.1287 19.0966L19.454 18.7836C19.5288 18.6223 19.6394 18.4803 19.7773 18.3682L19.7847 18.3621L19.7923 18.3563C21.1758 17.289 21.9495 15.7548 21.9495 14.1619C21.9495 11.1619 19.2056 8.60718 15.6992 8.60718C12.1928 8.60718 9.44988 11.1625 9.44988 14.1704C9.44988 17.1705 12.1938 19.7252 15.6997 19.7252C16.0543 19.7252 16.3949 19.6985 16.7172 19.6467Z" fill="white" stroke="#403D3C" stroke-width="1.5"/>
</svg>
