<?xml version="1.0" encoding="UTF-8"?>
<svg width="18px" height="18px" viewBox="0 0 18 18" version="1.1" xmlns="http://www.w3.org/2000/svg" xmlns:xlink="http://www.w3.org/1999/xlink">
    <!-- Generator: Sketch 54 (76480) - https://sketchapp.com -->
    <title>邮件</title>
    <desc>Created with Sketch.</desc>
    <g id="主页面" stroke="none" stroke-width="1" fill="none" fill-rule="evenodd">
        <path d="M16.0714286,2 L1.92857143,2 C0.9,2 0,2.9 0,3.92857143 L0,14.4714286 C0,15.5 0.9,16.4 1.92857143,16.4 L16.0714286,16.4 C17.1,16.4 18,15.5 18,14.4714286 L18,3.92857143 C18,2.9 17.1,2 16.0714286,2 Z M9,10.1 L2.05714286,3.28571429 L15.8142857,3.28571429 L9,10.1 Z M16.0714286,15.1142857 L1.92857143,15.1142857 C1.54285714,15.1142857 1.28571429,14.8571429 1.28571429,14.4714286 L1.28571429,4.31428571 L8.48571429,11.5142857 C8.61428571,11.6428571 8.74285714,11.6428571 9,11.6428571 C9.12857143,11.6428571 9.38571429,11.6428571 9.51428571,11.5142857 L16.7142857,4.18571429 L16.7142857,14.4714286 C16.7142857,14.8571429 16.4571429,15.1142857 16.0714286,15.1142857 Z" id="email" fill="#CCC3C0" fill-rule="nonzero"></path>
    </g>
</svg>