<?xml version="1.0" encoding="UTF-8"?>
<svg width="20px" height="20px" viewBox="0 0 20 20" version="1.1" xmlns="http://www.w3.org/2000/svg" xmlns:xlink="http://www.w3.org/1999/xlink">
    <title>编组 11</title>
    <g id="keyrecover" stroke="none" stroke-width="1" fill="none" fill-rule="evenodd">
        <g id="我的_恢复助手" transform="translate(-15.000000, -403.000000)">
            <rect fill="#FAF8F7" x="0" y="0" width="375" height="812"></rect>
            <rect id="Background备份-2" fill="#FFFFFF" x="0" y="384" width="375" height="56"></rect>
            <g id="编组-11" transform="translate(15.000000, 404.000000)">
                <g id="编组-10" transform="translate(0.000000, 0.000000)" stroke="#00BFAF" stroke-linecap="round" stroke-width="1.3">
                    <path d="M3.05693098,14.9247689 C4.70055826,16.777121 7.09912337,17.9444444 9.77033149,17.9444444 C14.725553,17.9444444 18.7425537,13.9274437 18.7425537,8.97222222 C18.7425537,4.01700072 14.725553,0 9.77033149,0 C4.81510998,0 0.798109266,4.01700072 0.798109266,8.97222222" id="路径"></path>
                    <path d="M0.798109266,9.09566243 L3.85950385,6.33333333 L0.798109266,9.09566243 Z" id="路径-8" stroke-linejoin="round"></path>
                </g>
                <path d="M14.175,8.25 L10.3625,8.25 C10.05,7.1875 9.1125,6.375 7.925,6.375 C6.55,6.375 5.425,7.5 5.425,8.875 C5.425,10.25 6.55,11.375 7.925,11.375 C9.1125,11.375 10.05,10.5625 10.3625,9.5 L12.3,9.5 L12.3,10.75 L13.55,10.75 L13.55,9.5 L14.175,9.5 L14.175,8.25 Z M7.925,10.125 C7.2375,10.125 6.675,9.5625 6.675,8.875 C6.675,8.1875 7.2375,7.625 7.925,7.625 C8.6125,7.625 9.175,8.1875 9.175,8.875 C9.175,9.5625 8.6125,10.125 7.925,10.125 Z" id="形状" fill="#00BFAF" fill-rule="nonzero" transform="translate(9.800000, 8.875000) scale(-1, -1) rotate(90.000000) translate(-9.800000, -8.875000) "></path>
            </g>
        </g>
    </g>
</svg>