<svg width="48" height="48" viewBox="0 0 48 48" fill="none" xmlns="http://www.w3.org/2000/svg">
<circle cx="24" cy="24" r="24" fill="#0E1125"/>
<path d="M17.2849 37.9369C17.6817 37.9369 18.0034 37.6153 18.0034 37.2185C18.0034 36.8217 17.6817 36.5 17.2849 36.5C16.8881 36.5 16.5664 36.8217 16.5664 37.2185C16.5664 37.6153 16.8881 37.9369 17.2849 37.9369Z" fill="#E1177C"/>
<path d="M23.2185 35.0063C23.6153 35.0063 23.937 34.6846 23.937 34.2878C23.937 33.891 23.6153 33.5693 23.2185 33.5693C22.8217 33.5693 22.5 33.891 22.5 34.2878C22.5 34.6846 22.8217 35.0063 23.2185 35.0063Z" fill="#E1177C"/>
<path d="M35.9098 33.5693C36.2967 33.5693 36.6283 33.9009 36.6283 34.2878C36.6283 34.6747 36.2967 35.0063 35.9098 35.0063H25.6301C25.2432 35.0063 24.9116 34.6747 24.9116 34.2878C24.9116 33.9009 25.2432 33.5693 25.6301 33.5693H35.9098Z" fill="#E1177C"/>
<path d="M29.9982 36.5C30.3851 36.5 30.7167 36.8316 30.7167 37.2185C30.7167 37.6053 30.3851 37.9369 29.9982 37.9369H19.7185C19.3316 37.9369 19 37.6053 19 37.2185C19 36.8316 19.3316 36.5 19.7185 36.5H29.9982Z" fill="#E1177C"/>
<path d="M9.10031 32.3539C9.49712 32.3539 9.81878 32.0323 9.81878 31.6355C9.81878 31.2387 9.49712 30.917 9.10031 30.917C8.70351 30.917 8.38184 31.2387 8.38184 31.6355C8.38184 32.0323 8.70351 32.3539 9.10031 32.3539Z" fill="#E1177C"/>
<path d="M20.3248 30.917C20.7116 30.917 21.0432 31.2486 21.0432 31.6355C21.0432 32.0223 20.7116 32.3539 20.3248 32.3539H11.8689C11.482 32.3539 11.1504 32.0223 11.1504 31.6355C11.1504 31.2486 11.482 30.917 11.8689 30.917H20.3248Z" fill="#E1177C"/>
<path d="M39.2815 30.917C39.6683 30.917 39.9999 31.2486 39.9999 31.6355C39.9999 32.0223 39.6683 32.3539 39.2815 32.3539H22.4802C22.0933 32.3539 21.7617 32.0223 21.7617 31.6355C21.7617 31.2486 22.0933 30.917 22.4802 30.917H39.2815Z" fill="#E1177C"/>
<path d="M36.1313 28.2637C36.5182 28.2637 36.8498 28.5953 36.8498 28.9821C36.8498 29.369 36.5182 29.7006 36.1313 29.7006H15.5166C15.1297 29.7006 14.7981 29.369 14.7981 28.9821C14.7981 28.5953 15.1297 28.2637 15.5166 28.2637H36.1313Z" fill="#E1177C"/>
<path d="M12.7185 29.7006C13.1153 29.7006 13.437 29.379 13.437 28.9821C13.437 28.5853 13.1153 28.2637 12.7185 28.2637C12.3217 28.2637 12 28.5853 12 28.9821C12 29.379 12.3217 29.7006 12.7185 29.7006Z" fill="#E1177C"/>
<path d="M31.8202 25.6665C32.2071 25.6665 32.5387 25.9981 32.5387 26.385C32.5387 26.7719 32.2071 27.1035 31.8202 27.1035H11.2055C10.8187 27.1035 10.4871 26.7719 10.4871 26.385C10.4871 25.9981 10.8187 25.6665 11.2055 25.6665H31.8202Z" fill="#E1177C"/>
<path d="M8.71848 27.1035C9.11528 27.1035 9.43695 26.7818 9.43695 26.385C9.43695 25.9882 9.11528 25.6665 8.71848 25.6665C8.32167 25.6665 8 25.9882 8 26.385C8 26.7818 8.32167 27.1035 8.71848 27.1035Z" fill="#E1177C"/>
<path d="M13.2505 24.4506C13.6473 24.4506 13.9689 24.129 13.9689 23.7321C13.9689 23.3353 13.6473 23.0137 13.2505 23.0137C12.8537 23.0137 12.532 23.3353 12.532 23.7321C12.532 24.129 12.8537 24.4506 13.2505 24.4506Z" fill="#E1177C"/>
<path d="M38.1206 23.0137C38.5075 23.0137 38.8391 23.3453 38.8391 23.7321C38.8391 24.119 38.5075 24.4506 38.1206 24.4506H15.6821C15.2952 24.4506 14.9636 24.119 14.9636 23.7321C14.9636 23.3453 15.2952 23.0137 15.6821 23.0137H38.1206Z" fill="#E1177C"/>
<path d="M30.328 11.7942C33.8586 13.2921 36.2501 16.9129 36.1493 20.6519C36.1437 20.8616 35.9685 21.0239 35.7586 21.0239C29.4923 21.0259 23.226 21.075 16.9596 20.9751C16.7414 20.9716 16.5657 20.7936 16.5732 20.5754C16.6581 18.1057 17.5454 15.6263 19.3298 13.8944C22.0931 11.0758 26.6803 10.1915 30.328 11.7942Z" fill="#5FC0C1"/>
</svg>
