<svg width="38px" height="38px" viewBox="0 0 38 38" version="1.1" xmlns="http://www.w3.org/2000/svg" xmlns:xlink="http://www.w3.org/1999/xlink">
    <path d="M38 19C38 29.4928 29.4928 38 19 38C8.50717 38 0 29.4928 0 19C0 8.50717 8.50717 0 19 0C29.495 0 38 8.50717 38 19Z" fill="#2081E2"/>
    <path d="M9.37383 19.6384L9.45579 19.5095L14.3985 11.7774C14.4707 11.6642 14.6405 11.6759 14.6952 11.7988C15.5209 13.6494 16.2334 15.9509 15.8996 17.3837C15.7571 17.9733 15.3667 18.7716 14.9274 19.5095C14.8709 19.6169 14.8084 19.7223 14.742 19.8238C14.7108 19.8707 14.6581 19.898 14.6014 19.898H9.51827C9.38162 19.898 9.30159 19.7496 9.37383 19.6384Z" fill="white"/>
    <path d="M31.4049 21.0752V22.2991C31.4049 22.3694 31.3619 22.4318 31.2994 22.4592C30.9169 22.6231 29.607 23.2244 29.0624 23.9818C27.6725 25.9163 26.6106 28.6824 24.2368 28.6824H14.334C10.8242 28.6824 7.97998 25.8285 7.97998 22.3069V22.1937C7.97998 22.1 8.05609 22.0239 8.1498 22.0239H13.6703C13.7796 22.0239 13.8596 22.1254 13.8499 22.2327C13.8108 22.5919 13.8772 22.9589 14.047 23.2927C14.375 23.9584 15.0543 24.3742 15.7883 24.3742H18.5212V22.2405H15.8195C15.6809 22.2405 15.5989 22.0804 15.679 21.9672C15.7082 21.9223 15.7414 21.8755 15.7766 21.8228C16.0323 21.4597 16.3973 20.8956 16.7604 20.2533C17.0083 19.82 17.2484 19.3573 17.4417 18.8927C17.4807 18.8088 17.5119 18.7229 17.5432 18.6389C17.5959 18.4906 17.6506 18.352 17.6896 18.2134C17.7287 18.0963 17.7599 17.9733 17.7911 17.8581C17.8829 17.4638 17.9219 17.0461 17.9219 16.6127C17.9219 16.4429 17.9141 16.2652 17.8985 16.0954C17.8906 15.91 17.8672 15.7245 17.8438 15.539C17.8282 15.3751 17.7989 15.213 17.7677 15.0432C17.7287 14.7953 17.674 14.5494 17.6115 14.3014L17.59 14.2078C17.5432 14.0379 17.5041 13.8759 17.4495 13.7061C17.2953 13.1731 17.1177 12.6539 16.9302 12.1678C16.8619 11.9746 16.7838 11.7891 16.7057 11.6037C16.5906 11.3245 16.4734 11.0708 16.3661 10.8307C16.3114 10.7213 16.2646 10.6218 16.2177 10.5203C16.165 10.4051 16.1104 10.2899 16.0557 10.1806C16.0167 10.0967 15.9718 10.0186 15.9405 9.94051L15.6067 9.32366C15.5599 9.23971 15.638 9.14015 15.7297 9.16554L17.8184 9.73162H17.8243C17.8282 9.73162 17.8302 9.7336 17.8321 9.7336L18.1073 9.80971L18.4099 9.89563L18.5212 9.92683V8.68533C18.5212 8.08603 19.0014 7.59998 19.5948 7.59998C19.8915 7.59998 20.1609 7.72101 20.3542 7.91815C20.5474 8.11533 20.6684 8.38471 20.6684 8.68533V10.5281L20.891 10.5905C20.9086 10.5964 20.9261 10.6042 20.9417 10.6159C20.9964 10.6569 21.0745 10.7174 21.174 10.7916C21.2521 10.8541 21.3361 10.9302 21.4376 11.0083C21.6386 11.1703 21.8787 11.3792 22.1423 11.6193C22.2125 11.6798 22.2809 11.7423 22.3433 11.8048C22.683 12.121 23.0637 12.4919 23.4268 12.9018C23.5283 13.017 23.6278 13.1341 23.7293 13.2571C23.8308 13.382 23.9382 13.505 24.0319 13.628C24.1549 13.792 24.2876 13.9618 24.4028 14.1394C24.4574 14.2234 24.5199 14.3093 24.5726 14.3932C24.721 14.6177 24.8518 14.85 24.9767 15.0823C25.0294 15.1896 25.084 15.3068 25.1309 15.4219C25.2695 15.7323 25.3788 16.0486 25.4491 16.3648C25.4705 16.4331 25.4862 16.5073 25.494 16.5737V16.5893C25.5174 16.683 25.5252 16.7825 25.533 16.884C25.5643 17.2081 25.5486 17.5321 25.4784 17.8581C25.4491 17.9967 25.41 18.1275 25.3632 18.2661C25.3163 18.3989 25.2695 18.5374 25.209 18.6682C25.0919 18.9396 24.9533 19.2109 24.7893 19.4647C24.7366 19.5584 24.6741 19.6579 24.6116 19.7517C24.5433 19.8512 24.473 19.9449 24.4106 20.0367C24.3247 20.1538 24.233 20.2767 24.1393 20.3861C24.0553 20.5012 23.9694 20.6164 23.8757 20.7179C23.7449 20.8721 23.62 21.0185 23.4892 21.1591C23.4111 21.2508 23.3272 21.3445 23.2413 21.4285C23.1574 21.5221 23.0715 21.6061 22.9934 21.6842C22.8626 21.815 22.7533 21.9165 22.6615 22.0004L22.4468 22.1976C22.4156 22.2249 22.3746 22.2405 22.3316 22.2405H20.6684V24.3742H22.7611C23.2296 24.3742 23.6747 24.2082 24.0338 23.9037C24.1568 23.7963 24.6936 23.3317 25.328 22.631C25.3495 22.6075 25.3769 22.5899 25.4081 22.5822L31.1882 20.9112C31.2956 20.8799 31.4049 20.9619 31.4049 21.0752Z" fill="white"/>
</svg>
