<svg width="48" height="48" viewBox="0 0 48 48" fill="none" xmlns="http://www.w3.org/2000/svg">
<mask id="mask0_398_727" style="mask-type:alpha" maskUnits="userSpaceOnUse" x="0" y="0" width="48" height="48">
<path d="M0 0H48V48H0V0Z" fill="#FE0420"/>
</mask>
<g mask="url(#mask0_398_727)">
</g>
<path d="M24 48C37.2548 48 48 37.2548 48 24C48 10.7452 37.2548 0 24 0C10.7452 0 0 10.7452 0 24C0 37.2548 10.7452 48 24 48Z" fill="#FF0420"/>
<path d="M15.0517 32C13.2409 32 11.7572 31.5851 10.6007 30.7555C9.45934 29.9111 8.88867 28.7111 8.88867 27.1556C8.88867 26.8296 8.92675 26.4296 9.00278 25.9555C9.20071 24.8889 9.48221 23.6073 9.8474 22.1111C10.8822 18.037 13.5529 16 17.8595 16C19.0312 16 20.0812 16.1926 21.0095 16.5777C21.9378 16.948 22.6682 17.5111 23.2008 18.2667C23.7334 19.0073 23.9998 19.8963 23.9998 20.9333C23.9998 21.2444 23.9617 21.637 23.8856 22.1111C23.6573 23.4296 23.3834 24.7111 23.0638 25.9555C22.5312 27.9852 21.6106 29.5037 20.3018 30.5111C18.9931 31.5037 17.2432 32 15.0517 32ZM15.3713 28.8C16.2236 28.8 16.9463 28.5555 17.5399 28.0666C18.1486 27.5778 18.5823 26.8296 18.8409 25.8222C19.1909 24.4296 19.4573 23.2147 19.6399 22.1778C19.7008 21.8666 19.7312 21.5482 19.7312 21.2221C19.7312 19.874 19.0083 19.1999 17.5627 19.1999C16.7105 19.1999 15.9801 19.4443 15.3713 19.9332C14.7779 20.4222 14.3518 21.1704 14.0931 22.1778C13.8192 23.1703 13.5452 24.3852 13.2714 25.8222C13.2104 26.1184 13.18 26.4296 13.18 26.7555C13.18 28.1185 13.9105 28.8 15.3713 28.8Z" fill="white"/>
<path d="M25.3455 32C25.1826 32 25.0567 31.9466 24.968 31.8399C24.8939 31.718 24.8718 31.581 24.9014 31.4286L27.9654 16.5714C27.995 16.4038 28.0764 16.2667 28.2097 16.1599C28.3429 16.0534 28.4835 16 28.6315 16H34.5377C36.1807 16 37.4981 16.3505 38.4899 17.0514C39.4965 17.7524 39.9998 18.7657 39.9998 20.0914C39.9998 20.4723 39.9554 20.8686 39.8665 21.2799C39.4965 23.0324 38.749 24.3276 37.624 25.1657C36.5138 26.0038 34.9891 26.4228 33.05 26.4228H30.0526L29.0313 31.4286C29.0016 31.5962 28.9201 31.7332 28.787 31.8399C28.6538 31.9466 28.5131 32 28.3652 32H25.3455ZM33.2055 23.2686C33.8271 23.2686 34.3674 23.0933 34.8263 22.7428C35.3 22.3923 35.6109 21.8895 35.7589 21.2343C35.8033 20.9752 35.8255 20.7466 35.8255 20.5486C35.8255 20.1066 35.6997 19.7714 35.448 19.5429C35.1963 19.299 34.7672 19.1772 34.1602 19.1772H31.4958L30.652 23.2686H33.2055Z" fill="white"/>
</svg>
