<svg width="14" height="14" viewBox="0 0 14 14" fill="none" xmlns="http://www.w3.org/2000/svg">
<path fill-rule="evenodd" clip-rule="evenodd" d="M13 7C13 10.3137 10.3137 13 7 13C3.68629 13 1 10.3137 1 7C1 3.68629 3.68629 1 7 1C10.3137 1 13 3.68629 13 7ZM7 14C10.866 14 14 10.866 14 7C14 3.13401 10.866 0 7 0C3.13401 0 0 3.13401 0 7C0 10.866 3.13401 14 7 14ZM7 4.86668C7.46024 4.86668 7.83334 4.49358 7.83334 4.03335C7.83334 3.57311 7.46024 3.20001 7 3.20001C6.53977 3.20001 6.16667 3.57311 6.16667 4.03335C6.16667 4.49358 6.53977 4.86668 7 4.86668ZM6.3333 6.66668C6.3333 6.29849 6.63177 6.00001 6.99996 6.00001C7.36815 6.00001 7.66663 6.29849 7.66663 6.66668V10.3333C7.66663 10.7015 7.36815 11 6.99996 11C6.63177 11 6.3333 10.7015 6.3333 10.3333V6.66668Z" fill="#00BFAF"/>
</svg>
