<?xml version="1.0" encoding="UTF-8"?>
<svg width="20px" height="20px" viewBox="0 0 20 20" version="1.1" xmlns="http://www.w3.org/2000/svg" xmlns:xlink="http://www.w3.org/1999/xlink">
    <title>编组 6</title>
    <g id="主页面" stroke="none" stroke-width="1" fill="none" fill-rule="evenodd">
        <g id="首页2备份" transform="translate(-335.000000, -279.000000)">
            <g id="编组-6" transform="translate(335.000000, 279.000000)">
                <circle id="Oval" stroke="#02C8B7" stroke-width="1.3" cx="10" cy="10" r="9.35"></circle>
                <g id="Group" transform="translate(5.315789, 5.315789)" fill="#02C8B7" fill-rule="nonzero">
                    <path d="M4.68421053,0.35 C5.01056061,0.35 5.28073699,0.590508192 5.32716286,0.903947764 L5.33421053,1 L5.33421053,8.36842105 C5.33421053,8.72740614 5.04319561,9.01842105 4.68421053,9.01842105 C4.35786045,9.01842105 4.08768407,8.77791286 4.0412582,8.46447329 L4.03421053,8.36842105 L4.03421053,1 C4.03421053,0.641014913 4.32522544,0.35 4.68421053,0.35 Z" id="Path-7"></path>
                    <path d="M4.68421053,0.35 C5.01056061,0.35 5.28073699,0.590508192 5.32716286,0.903947764 L5.33421053,1 L5.33421053,8.36842105 C5.33421053,8.72740614 5.04319561,9.01842105 4.68421053,9.01842105 C4.35786045,9.01842105 4.08768407,8.77791286 4.0412582,8.46447329 L4.03421053,8.36842105 L4.03421053,1 C4.03421053,0.641014913 4.32522544,0.35 4.68421053,0.35 Z" id="Path-7" transform="translate(4.684211, 4.684211) rotate(90.000000) translate(-4.684211, -4.684211) "></path>
                </g>
            </g>
        </g>
    </g>
</svg>