<svg width="48" height="48" viewBox="0 0 48 48" fill="none" xmlns="http://www.w3.org/2000/svg">
<path d="M0 24C0 10.7452 10.7452 0 24 0C37.2548 0 48 10.7452 48 24C48 37.2548 37.2548 48 24 48C10.7452 48 0 37.2548 0 24Z" fill="white"/>
<path d="M24.1974 15.557C26.942 15.557 29.167 14.2629 29.167 12.6667C29.167 11.0704 26.942 9.77637 24.1974 9.77637C21.4527 9.77637 19.2278 11.0704 19.2278 12.6667C19.2278 14.2629 21.4527 15.557 24.1974 15.557Z" fill="#E6007A"/>
<path d="M24.1974 37.3343C26.942 37.3343 29.167 36.0403 29.167 34.444C29.167 32.8477 26.942 31.5537 24.1974 31.5537C21.4527 31.5537 19.2278 32.8477 19.2278 34.444C19.2278 36.0403 21.4527 37.3343 24.1974 37.3343Z" fill="#E6007A"/>
<path d="M17.272 19.5603C18.6443 17.1834 18.6354 14.6091 17.2521 13.8105C15.8688 13.0118 13.6349 14.2912 12.2626 16.668C10.8903 19.0449 10.8992 21.6191 12.2825 22.4178C13.6658 23.2165 15.8997 21.9371 17.272 19.5603Z" fill="#E6007A"/>
<path d="M36.1305 30.447C37.5028 28.0701 37.4946 25.4963 36.1123 24.6982C34.7299 23.9 32.4968 25.1798 31.1244 27.5567C29.7521 29.9335 29.7603 32.5074 31.1427 33.3055C32.525 34.1036 34.7581 32.8238 36.1305 30.447Z" fill="#E6007A"/>
<path d="M17.2529 33.2999C18.6362 32.5012 18.6451 29.9269 17.2728 27.5501C15.9004 25.1732 13.6666 23.8939 12.2833 24.6925C10.9 25.4912 10.891 28.0655 12.2634 30.4423C13.6357 32.8192 15.8696 34.0986 17.2529 33.2999Z" fill="#E6007A"/>
<path d="M36.1132 22.4122C37.4956 21.6141 37.5037 19.0402 36.1314 16.6634C34.7591 14.2865 32.526 13.0067 31.1436 13.8048C29.7613 14.603 29.7531 17.1768 31.1254 19.5537C32.4977 21.9305 34.7309 23.2103 36.1132 22.4122Z" fill="#E6007A"/>
</svg>
