<svg width="26" height="26" viewBox="0 0 26 26" fill="none" xmlns="http://www.w3.org/2000/svg">
<path d="M12.5203 6.29046L13 6.6897L13.4798 6.29046L14.2328 5.66381C16.8241 3.50731 20.6755 3.85715 22.8347 6.4446C24.9408 8.96854 24.3495 12.5271 21.9808 15.1004C20.1632 17.075 15.967 20.861 13.8076 22.7836C13.3444 23.1959 12.6515 23.1965 12.1863 22.7838C10.1229 20.9534 6.16968 17.3913 4.01428 15.0951C2.58024 13.5674 1.85443 12.0332 1.72928 10.599C1.60522 9.1774 2.06301 7.76559 3.16534 6.4446C5.3245 3.85715 9.17591 3.50731 11.7672 5.66381L12.5203 6.29046Z" stroke="#403D3C" stroke-width="1.5" stroke-linecap="round"/>
</svg>
