<?xml version="1.0" encoding="UTF-8"?>
<svg width="16px" height="18px" viewBox="0 0 16 18" version="1.1" xmlns="http://www.w3.org/2000/svg" xmlns:xlink="http://www.w3.org/1999/xlink">
    <title>记录</title>
    <g id="主页面" stroke="none" stroke-width="1" fill="none" fill-rule="evenodd">
        <g id="记录">
            <g id="编组" transform="translate(4.142857, 5.142857)" fill="#303033">
                <path d="M7.07168571,3.21428571 L0.643371429,3.21428571 C0.288514286,3.21428571 0,3.53158797 0,3.92100437 C0,4.31211758 0.288514286,4.62857143 0.643371429,4.62857143 L7.07168571,4.62857143 C7.42654286,4.62857143 7.71428571,4.31211758 7.71428571,3.92100437 C7.71428571,3.53158797 7.42654286,3.21428571 7.07168571,3.21428571" id="Fill-1"></path>
                <path d="M4.49951788,6.42857143 L0.642567872,6.42857143 C0.288499861,6.42857143 0,6.74587368 0,7.13613849 C0,7.52640329 0.288499861,7.84285714 0.642567872,7.84285714 L4.49951788,7.84285714 C4.85512867,7.84285714 5.14285714,7.52640329 5.14285714,7.13613849 C5.14285714,6.74587368 4.85512867,6.42857143 4.49951788,6.42857143" id="Fill-3"></path>
                <path d="M7.07168571,-4.5519144e-14 L0.643371429,-4.5519144e-14 C0.288514286,-4.5519144e-14 0,0.316453852 0,0.706718656 C0,1.09698346 0.288514286,1.41428571 0.643371429,1.41428571 L7.07168571,1.41428571 C7.42654286,1.41428571 7.71428571,1.09698346 7.71428571,0.706718656 C7.71428571,0.316453852 7.42654286,-4.5519144e-14 7.07168571,-4.5519144e-14" id="Fill-7"></path>
            </g>
            <rect id="矩形" stroke="#303033" stroke-width="1.3" x="0.935714286" y="1.29285714" width="14.1285714" height="15.4142857" rx="2"></rect>
        </g>
    </g>
</svg>