<svg width="28" height="28" viewBox="0 0 28 28" fill="none" xmlns="http://www.w3.org/2000/svg">
<circle cx="14" cy="14" r="13.25" stroke="#403D3C" stroke-width="1.5"/>
<path d="M8.44713 15.9478C8.16724 16.2531 8.18787 16.7275 8.49321 17.0074C8.79855 17.2873 9.27297 17.2667 9.55287 16.9613L8.44713 15.9478ZM14 11L14.5529 10.4932C14.4108 10.3382 14.2102 10.25 14 10.25C13.7898 10.25 13.5892 10.3382 13.4471 10.4932L14 11ZM18.4471 16.9613C18.727 17.2667 19.2015 17.2873 19.5068 17.0074C19.8121 16.7275 19.8328 16.2531 19.5529 15.9478L18.4471 16.9613ZM9.55287 16.9613L14.5529 11.5068L13.4471 10.4932L8.44713 15.9478L9.55287 16.9613ZM13.4471 11.5068L18.4471 16.9613L19.5529 15.9478L14.5529 10.4932L13.4471 11.5068Z" fill="#403D3C"/>
</svg>
