<svg width="30" height="30" viewBox="0 0 30 30" fill="none" xmlns="http://www.w3.org/2000/svg">
<path d="M14.0357 2.55637C14.9639 2.02047 16.1075 2.02047 17.0357 2.55637L25.5622 7.47911C26.4904 8.01501 27.0622 9.00539 27.0622 10.0772V19.9227C27.0622 20.9945 26.4904 21.9848 25.5622 22.5207L17.0357 27.4435C16.1075 27.9794 14.9639 27.9794 14.0357 27.4435L5.50929 22.5207C4.58108 21.9848 4.00929 20.9945 4.00929 19.9227V10.0772C4.00929 9.00539 4.58109 8.01501 5.50929 7.47911L14.0357 2.55637Z" stroke="#403D3C" stroke-width="2"/>
<path d="M13.0607 11.7856V11.6856H12.9607H11.6819H11.5819V11.7856V16.1504L8.86871 11.7333L8.83943 11.6856H8.7835H7.5H7.4V11.7856V18.5812V18.6812H7.5H8.7835H8.8835V18.5812V14.2218L11.5873 18.6334L11.6165 18.6812H11.6725H12.9607H13.0607V18.5812V11.7856ZM15.115 11.6856H14.2675H14.1675V11.7856V18.5812V18.6812H14.2675H15.551H15.651V18.5812V15.8341H18.2907H18.3907V15.7341V14.7214V14.6214H18.2907H15.651V12.8984H18.6501H18.7501V12.7984V11.7856V11.6856H18.6501H15.651H15.551H15.215H15.115ZM21.1544 11.6856H19.1682H19.0682V11.7856V12.7984V12.8984H19.1682H21.1544V18.5812V18.6812H21.2544H22.5333H22.6333V18.5812V12.8984H24.6429H24.7429V12.7984V11.7856V11.6856H24.6429H22.6333H22.5333H21.2544H21.1544Z" fill="#403D3C" stroke="#403D3C" stroke-width="0.2"/>
</svg>
