<svg width="58" height="59" viewBox="0 0 58 59" fill="none" xmlns="http://www.w3.org/2000/svg">
<defs>
<linearGradient id="paint0_linear_3204_5345" x1="8.5" y1="6" x2="29" y2="57.7625" gradientUnits="userSpaceOnUse">
<stop stop-color="#FF9A8C"/>
<stop offset="1" stop-color="#FFE791" stop-opacity="0.82"/>
</linearGradient>
<radialGradient id="paint1_radial_3204_5345" cx="0" cy="0" r="1" gradientUnits="userSpaceOnUse" gradientTransform="translate(-27 74) rotate(-45.2229) scale(90.8639 89.7421)">
<stop stop-color="#41FFFF"/>
<stop offset="1" stop-color="#59FFFF" stop-opacity="0"/>
</radialGradient>
</defs>
<ellipse cx="29" cy="29.4125" rx="28" ry="28.35" fill="url(#paint0_linear_3204_5345)"/>
<ellipse cx="29" cy="29.4125" rx="28" ry="28.35" fill="url(#paint1_radial_3204_5345)"/>
<ellipse cx="29" cy="29.4125" rx="28" ry="28.35" stroke="#F2F2F2" stroke-width="0.5"/>
<path fill-rule="evenodd" clip-rule="evenodd" d="M23.4452 19.6672C24.5557 19.6672 25.5818 20.0216 26.4248 20.6255C27.7517 21.5762 28.6159 23.1434 28.6159 24.9156C28.6159 26.3682 28.0372 27.6829 27.0974 28.6332L28.2138 36.3423C28.4448 37.9368 29.7928 39.1185 31.381 39.1185H34.3724C34.4706 39.1185 34.5502 39.0377 34.5502 38.938C34.5502 38.9292 34.5496 38.9204 34.5483 38.9117L33.0581 28.6332C33.9964 27.6829 34.5783 26.3682 34.5783 24.9156C34.5783 22.0169 32.2642 19.6672 29.4059 19.6672H23.4452Z" fill="white"/>
<path fill-rule="evenodd" clip-rule="evenodd" d="M36.6246 24.9156C36.6246 26.3682 36.0427 27.6829 35.1046 28.6332L36.4781 37.3547C36.6381 38.3708 37.5019 39.1185 38.5161 39.1185H40.0686C40.1668 39.1185 40.2464 39.0377 40.2464 38.938C40.2464 38.9287 40.2457 38.9194 40.2443 38.9102L38.6681 28.6332C39.5962 27.693 40.1758 26.3965 40.1881 24.9621V24.8692C40.1636 21.9918 37.8576 19.6672 35.016 19.6672C34.3896 19.6672 33.791 19.7803 33.2354 19.9866C35.2147 20.7237 36.6246 22.6523 36.6246 24.9156Z" fill="white"/>
<path fill-rule="evenodd" clip-rule="evenodd" d="M23.445 19.6674L23.4429 19.6728C20.693 19.795 18.5 22.0947 18.5 24.9156C18.5 26.3682 19.0821 27.6831 20.0216 28.6333H20.0202L18.53 38.9118C18.5157 39.0104 18.5829 39.1021 18.68 39.1166C18.6886 39.1178 18.6973 39.1185 18.7059 39.1185H21.6979C23.2859 39.1185 24.6339 37.9371 24.865 36.3428L25.9827 28.6333C25.0433 27.6831 24.4626 26.3682 24.4626 24.9156C24.4626 23.3928 25.103 22.022 26.1241 21.0633L26.1858 21.0072L26.2569 20.9444L26.3368 20.8761C26.4069 20.8172 26.4855 20.7538 26.5711 20.6888L26.6771 20.6103C26.9317 20.4263 27.236 20.2395 27.5557 20.1153C27.6025 20.0971 27.6504 20.0796 27.699 20.0627L27.7973 20.0297L27.8974 19.9984L27.9986 19.9688L28.1006 19.9407L28.2028 19.9142L28.3049 19.8892L28.4064 19.8658L28.5562 19.8334L28.702 19.8042L28.8421 19.7783L28.9316 19.7626L29.0989 19.7354L29.2477 19.7132L29.5306 19.6768L29.5872 19.6706L23.445 19.6674Z" fill="white"/>
<path fill-rule="evenodd" clip-rule="evenodd" d="M26.5414 20.7115C26.5513 20.704 26.5612 20.6964 26.5712 20.6888L26.6771 20.6103C26.9317 20.4263 27.236 20.2395 27.5558 20.1153C27.6025 20.0971 27.6504 20.0796 27.6991 20.0627L27.7974 20.0297L27.8974 19.9984L27.9986 19.9687L28.1006 19.9407L28.2029 19.9142L28.305 19.8892L28.4064 19.8657L28.5563 19.8334L28.7021 19.8042L28.8421 19.7782L28.9316 19.7626L29.0989 19.7354L29.2477 19.7132L29.5307 19.6767L29.5873 19.6706L23.4906 19.6674C24.5836 19.6769 25.5933 20.0299 26.4248 20.6255C26.4641 20.6536 26.503 20.6823 26.5414 20.7115Z" fill="white"/>
</svg>
