<svg width="32px" height="32px" viewBox="0 0 32 32" fill="none" xmlns="http://www.w3.org/2000/svg">
    <mask id="path-1-inside-1_310_5110" fill="white">
        <path fill-rule="evenodd" clip-rule="evenodd" d="M7.55005 18.8C7.96426 18.8 8.30005 19.1358 8.30005 19.55V22.55C8.30005 23.2403 8.85969 23.8 9.55005 23.8H13.05C13.4643 23.8 13.8 24.1358 13.8 24.55C13.8 24.9642 13.4643 25.3 13.05 25.3H9.55005C8.03127 25.3 6.80005 24.0688 6.80005 22.55V19.55C6.80005 19.1358 7.13584 18.8 7.55005 18.8ZM24.55 18.8C24.9643 18.8 25.3 19.1358 25.3 19.55V22.55C25.3 24.0688 24.0688 25.3 22.55 25.3H19.05C18.6358 25.3 18.3 24.9642 18.3 24.55C18.3 24.1358 18.6358 23.8 19.05 23.8H22.55C23.2404 23.8 23.8 23.2403 23.8 22.55V19.55C23.8 19.1358 24.1358 18.8 24.55 18.8ZM9.55005 8.29999C8.85969 8.29999 8.30005 8.85963 8.30005 9.54999V12.55C8.30005 12.9642 7.96426 13.3 7.55005 13.3C7.13584 13.3 6.80005 12.9642 6.80005 12.55V9.54999C6.80005 8.0312 8.03127 6.79999 9.55005 6.79999H13.05C13.4643 6.79999 13.8 7.13577 13.8 7.54999C13.8 7.9642 13.4643 8.29999 13.05 8.29999H9.55005ZM18.3 7.54999C18.3 7.13577 18.6358 6.79999 19.05 6.79999H22.55C24.0688 6.79999 25.3 8.0312 25.3 9.54999V12.55C25.3 12.9642 24.9643 13.3 24.55 13.3C24.1358 13.3 23.8 12.9642 23.8 12.55V9.54999C23.8 8.85963 23.2404 8.29999 22.55 8.29999H19.05C18.6358 8.29999 18.3 7.9642 18.3 7.54999Z"/>
    </mask>
    <path d="M9.80005 19.55C9.80005 18.3073 8.79269 17.3 7.55005 17.3V20.3C7.13584 20.3 6.80005 19.9642 6.80005 19.55H9.80005ZM9.80005 22.55V19.55H6.80005V22.55H9.80005ZM9.55005 22.3C9.68812 22.3 9.80005 22.4119 9.80005 22.55H6.80005C6.80005 24.0688 8.03127 25.3 9.55005 25.3V22.3ZM13.05 22.3H9.55005V25.3H13.05V22.3ZM15.3 24.55C15.3 23.3073 14.2927 22.3 13.05 22.3V25.3C12.6358 25.3 12.3 24.9642 12.3 24.55H15.3ZM13.05 26.8C14.2927 26.8 15.3 25.7926 15.3 24.55H12.3C12.3 24.1358 12.6358 23.8 13.05 23.8V26.8ZM9.55005 26.8H13.05V23.8H9.55005V26.8ZM5.30005 22.55C5.30005 24.8972 7.20284 26.8 9.55005 26.8V23.8C8.85969 23.8 8.30005 23.2403 8.30005 22.55H5.30005ZM5.30005 19.55V22.55H8.30005V19.55H5.30005ZM7.55005 17.3C6.30741 17.3 5.30005 18.3073 5.30005 19.55H8.30005C8.30005 19.9642 7.96426 20.3 7.55005 20.3V17.3ZM26.8 19.55C26.8 18.3073 25.7927 17.3 24.55 17.3V20.3C24.1358 20.3 23.8 19.9642 23.8 19.55H26.8ZM26.8 22.55V19.55H23.8V22.55H26.8ZM22.55 26.8C24.8973 26.8 26.8 24.8972 26.8 22.55H23.8C23.8 23.2403 23.2404 23.8 22.55 23.8V26.8ZM19.05 26.8H22.55V23.8H19.05V26.8ZM16.8 24.55C16.8 25.7926 17.8074 26.8 19.05 26.8V23.8C19.4643 23.8 19.8 24.1358 19.8 24.55H16.8ZM19.05 22.3C17.8074 22.3 16.8 23.3073 16.8 24.55H19.8C19.8 24.9642 19.4643 25.3 19.05 25.3V22.3ZM22.55 22.3H19.05V25.3H22.55V22.3ZM22.3 22.55C22.3 22.4119 22.412 22.3 22.55 22.3V25.3C24.0688 25.3 25.3 24.0688 25.3 22.55H22.3ZM22.3 19.55V22.55H25.3V19.55H22.3ZM24.55 17.3C23.3074 17.3 22.3 18.3073 22.3 19.55H25.3C25.3 19.9642 24.9643 20.3 24.55 20.3V17.3ZM9.80005 9.54999C9.80005 9.68806 9.68812 9.79999 9.55005 9.79999V6.79999C8.03127 6.79999 6.80005 8.0312 6.80005 9.54999H9.80005ZM9.80005 12.55V9.54999H6.80005V12.55H9.80005ZM7.55005 14.8C8.79269 14.8 9.80005 13.7926 9.80005 12.55H6.80005C6.80005 12.1358 7.13584 11.8 7.55005 11.8V14.8ZM5.30005 12.55C5.30005 13.7926 6.30741 14.8 7.55005 14.8V11.8C7.96426 11.8 8.30005 12.1358 8.30005 12.55H5.30005ZM5.30005 9.54999V12.55H8.30005V9.54999H5.30005ZM9.55005 5.29999C7.20284 5.29999 5.30005 7.20278 5.30005 9.54999H8.30005C8.30005 8.85963 8.85969 8.29999 9.55005 8.29999V5.29999ZM13.05 5.29999H9.55005V8.29999H13.05V5.29999ZM15.3 7.54999C15.3 6.30735 14.2927 5.29999 13.05 5.29999V8.29999C12.6358 8.29999 12.3 7.9642 12.3 7.54999H15.3ZM13.05 9.79999C14.2927 9.79999 15.3 8.79263 15.3 7.54999H12.3C12.3 7.13577 12.6358 6.79999 13.05 6.79999V9.79999ZM9.55005 9.79999H13.05V6.79999H9.55005V9.79999ZM19.05 5.29999C17.8074 5.29999 16.8 6.30735 16.8 7.54999H19.8C19.8 7.9642 19.4643 8.29999 19.05 8.29999V5.29999ZM22.55 5.29999H19.05V8.29999H22.55V5.29999ZM26.8 9.54999C26.8 7.20278 24.8973 5.29999 22.55 5.29999V8.29999C23.2404 8.29999 23.8 8.85963 23.8 9.54999H26.8ZM26.8 12.55V9.54999H23.8V12.55H26.8ZM24.55 14.8C25.7927 14.8 26.8 13.7926 26.8 12.55H23.8C23.8 12.1358 24.1358 11.8 24.55 11.8V14.8ZM22.3 12.55C22.3 13.7926 23.3074 14.8 24.55 14.8V11.8C24.9643 11.8 25.3 12.1358 25.3 12.55H22.3ZM22.3 9.54999V12.55H25.3V9.54999H22.3ZM22.55 9.79999C22.412 9.79999 22.3 9.68806 22.3 9.54999H25.3C25.3 8.0312 24.0688 6.79999 22.55 6.79999V9.79999ZM19.05 9.79999H22.55V6.79999H19.05V9.79999ZM16.8 7.54999C16.8 8.79263 17.8074 9.79999 19.05 9.79999V6.79999C19.4643 6.79999 19.8 7.13577 19.8 7.54999H16.8Z" fill="white" mask="url(#path-1-inside-1_310_5110)"/>
    <path d="M11.55 16.05H20.55" stroke="white" stroke-width="1.5" stroke-linecap="round"/>
</svg>
