<svg width="48" height="48" viewBox="0 0 48 48" fill="none" xmlns="http://www.w3.org/2000/svg">
<g id="&#231;&#189;&#145;&#231;&#187;&#156;">
<path id="Fill 1" fill-rule="evenodd" clip-rule="evenodd" d="M0 24C0 37.2558 10.7458 48 24 48C37.2542 48 48 37.2558 48 24C48 10.7457 37.2542 0 24 0C10.7458 0 0 10.7457 0 24" fill="white"/>
<g id="&#231;&#189;&#145;&#231;&#187;&#156;_2">
<path id="&#232;&#183;&#175;&#229;&#190;&#132;" d="M29.1405 21.4271C29.7383 20.1148 27.4677 19.7556 27.4266 19.7132C27.4266 19.7132 24.2294 22.5803 23.9987 23.9986C23.8874 24.6799 25.2514 25.9286 25.7127 27.4264C26.2124 29.0502 25.9844 31.1273 25.7127 31.7119C25.7127 31.7119 28.7176 30.3943 30.8544 26.5675C30.8544 26.5701 28.7296 22.3324 29.1405 21.4271Z" fill="#666260"/>
<path id="&#232;&#183;&#175;&#229;&#190;&#132;_2" d="M21.4272 16.2841C17.7674 18.4023 16.2841 22.2848 16.2841 22.2848C17.0556 20.4542 23.9987 21.4272 23.9987 21.4272C24.8351 19.537 21.4272 16.2841 21.4272 16.2841Z" fill="#666260"/>
<circle id="Ellipse 1" cx="24" cy="24" r="11" stroke="#666260" stroke-width="2"/>
</g>
</g>
</svg>
