<svg width="310" height="82" viewBox="0 0 310 82" fill="none" xmlns="http://www.w3.org/2000/svg">
    <defs>
        <linearGradient id="paint0_linear_11779_22382" x1="98.4256" y1="0" x2="98.4256" y2="29.9297"
            gradientUnits="userSpaceOnUse">
            <stop stop-color="#E5FFFD" />
            <stop offset="1" stop-color="#F7FAFA" stop-opacity="0.01" />
        </linearGradient>
    </defs>
    <ellipse cx="155" cy="41" rx="155" ry="41" fill="url(#paint0_linear_11779_22382)" />
    <path
        d="M85.1567 75H86.2487V70.272C86.9087 69.612 87.3647 69.276 88.0367 69.276C88.9007 69.276 89.2727 69.792 89.2727 71.016V75H90.3647V70.872C90.3647 69.204 89.7407 68.316 88.3727 68.316C87.4847 68.316 86.8127 68.808 86.2127 69.408L86.2487 68.064V65.448H85.1567V75ZM94.4978 75.156C94.8938 75.156 95.3258 75.036 95.6978 74.916L95.4818 74.1C95.2658 74.184 94.9658 74.268 94.7378 74.268C93.9818 74.268 93.7298 73.812 93.7298 73.008V69.372H95.4938V68.484H93.7298V66.66H92.8178L92.6858 68.484L91.6658 68.544V69.372H92.6378V72.984C92.6378 74.292 93.1058 75.156 94.4978 75.156ZM98.7517 75.156C99.1477 75.156 99.5797 75.036 99.9517 74.916L99.7357 74.1C99.5197 74.184 99.2197 74.268 98.9917 74.268C98.2357 74.268 97.9837 73.812 97.9837 73.008V69.372H99.7477V68.484H97.9837V66.66H97.0717L96.9397 68.484L95.9197 68.544V69.372H96.8917V72.984C96.8917 74.292 97.3597 75.156 98.7517 75.156ZM101.223 77.748H102.315V75.54L102.291 74.4C102.879 74.88 103.503 75.156 104.091 75.156C105.591 75.156 106.923 73.872 106.923 71.64C106.923 69.636 106.011 68.316 104.331 68.316C103.575 68.316 102.843 68.748 102.255 69.228H102.219L102.123 68.484H101.223V77.748ZM103.911 74.244C103.479 74.244 102.903 74.064 102.315 73.56V70.14C102.951 69.552 103.515 69.24 104.067 69.24C105.303 69.24 105.783 70.212 105.783 71.652C105.783 73.272 104.991 74.244 103.911 74.244ZM110.369 75.156C111.905 75.156 112.745 74.28 112.745 73.224C112.745 71.988 111.701 71.604 110.753 71.244C110.021 70.968 109.313 70.74 109.313 70.116C109.313 69.612 109.685 69.18 110.501 69.18C111.089 69.18 111.545 69.42 112.001 69.756L112.529 69.048C112.013 68.652 111.305 68.316 110.501 68.316C109.085 68.316 108.257 69.132 108.257 70.164C108.257 71.268 109.289 71.712 110.201 72.048C110.921 72.324 111.689 72.624 111.689 73.284C111.689 73.848 111.269 74.304 110.405 74.304C109.625 74.304 109.037 73.992 108.473 73.536L107.933 74.256C108.557 74.772 109.445 75.156 110.369 75.156ZM114.842 70.32C115.274 70.32 115.634 69.972 115.634 69.492C115.634 68.988 115.274 68.64 114.842 68.64C114.41 68.64 114.05 68.988 114.05 69.492C114.05 69.972 114.41 70.32 114.842 70.32ZM114.842 75.156C115.274 75.156 115.634 74.82 115.634 74.328C115.634 73.836 115.274 73.476 114.842 73.476C114.41 73.476 114.05 73.836 114.05 74.328C114.05 74.82 114.41 75.156 114.842 75.156ZM116.646 77.148H117.45L121.038 65.484H120.246L116.646 77.148ZM121.345 77.148H122.149L125.737 65.484H124.945L121.345 77.148ZM127.016 75H128.108V70.272C128.708 69.6 129.26 69.276 129.752 69.276C130.58 69.276 130.964 69.792 130.964 71.016V75H132.056V70.272C132.668 69.6 133.196 69.276 133.7 69.276C134.528 69.276 134.912 69.792 134.912 71.016V75H136.004V70.872C136.004 69.204 135.368 68.316 134.024 68.316C133.232 68.316 132.548 68.832 131.876 69.564C131.612 68.796 131.072 68.316 130.076 68.316C129.296 68.316 128.612 68.808 128.048 69.432H128.012L127.916 68.484H127.016V75ZM140.753 75.156C141.641 75.156 142.337 74.856 142.913 74.484L142.517 73.764C142.037 74.088 141.521 74.28 140.885 74.28C139.649 74.28 138.797 73.392 138.725 72H143.117C143.141 71.844 143.165 71.616 143.165 71.376C143.165 69.516 142.229 68.316 140.573 68.316C139.061 68.316 137.633 69.636 137.633 71.748C137.633 73.896 139.025 75.156 140.753 75.156ZM138.713 71.22C138.845 69.936 139.661 69.192 140.585 69.192C141.605 69.192 142.205 69.9 142.205 71.22H138.713ZM145.334 75.156C145.766 75.156 146.126 74.82 146.126 74.328C146.126 73.836 145.766 73.476 145.334 73.476C144.902 73.476 144.542 73.836 144.542 74.328C144.542 74.82 144.902 75.156 145.334 75.156ZM148.11 75H149.202V70.272C149.862 69.612 150.318 69.276 150.99 69.276C151.854 69.276 152.226 69.792 152.226 71.016V75H153.318V70.872C153.318 69.204 152.694 68.316 151.326 68.316C150.438 68.316 149.766 68.808 149.166 69.408L149.202 68.064V65.448H148.11V75ZM156.899 75.156C157.703 75.156 158.435 74.736 159.059 74.22H159.095L159.191 75H160.091V70.992C160.091 69.384 159.419 68.316 157.835 68.316C156.791 68.316 155.867 68.784 155.267 69.168L155.699 69.924C156.215 69.576 156.899 69.228 157.655 69.228C158.723 69.228 158.999 70.032 158.999 70.872C156.227 71.184 154.991 71.892 154.991 73.308C154.991 74.484 155.807 75.156 156.899 75.156ZM157.211 74.28C156.563 74.28 156.059 73.98 156.059 73.236C156.059 72.396 156.803 71.856 158.999 71.592V73.416C158.363 73.98 157.847 74.28 157.211 74.28ZM163.876 75.156C165.412 75.156 166.252 74.28 166.252 73.224C166.252 71.988 165.208 71.604 164.26 71.244C163.528 70.968 162.82 70.74 162.82 70.116C162.82 69.612 163.192 69.18 164.008 69.18C164.596 69.18 165.052 69.42 165.508 69.756L166.036 69.048C165.52 68.652 164.812 68.316 164.008 68.316C162.592 68.316 161.764 69.132 161.764 70.164C161.764 71.268 162.796 71.712 163.708 72.048C164.428 72.324 165.196 72.624 165.196 73.284C165.196 73.848 164.776 74.304 163.912 74.304C163.132 74.304 162.544 73.992 161.98 73.536L161.44 74.256C162.064 74.772 162.952 75.156 163.876 75.156ZM167.786 75H168.878V70.272C169.538 69.612 169.994 69.276 170.666 69.276C171.53 69.276 171.902 69.792 171.902 71.016V75H172.994V70.872C172.994 69.204 172.37 68.316 171.002 68.316C170.114 68.316 169.442 68.808 168.842 69.408L168.878 68.064V65.448H167.786V75ZM175.075 75H176.155V73.284L177.379 71.856L179.287 75H180.475L178.003 71.1L180.187 68.484H178.975L176.179 71.928H176.155V65.448H175.075V75ZM184.089 75.156C184.977 75.156 185.673 74.856 186.249 74.484L185.853 73.764C185.373 74.088 184.857 74.28 184.221 74.28C182.985 74.28 182.133 73.392 182.061 72H186.453C186.477 71.844 186.501 71.616 186.501 71.376C186.501 69.516 185.565 68.316 183.909 68.316C182.397 68.316 180.969 69.636 180.969 71.748C180.969 73.896 182.361 75.156 184.089 75.156ZM182.049 71.22C182.181 69.936 182.997 69.192 183.921 69.192C184.941 69.192 185.541 69.9 185.541 71.22H182.049ZM188.273 77.808C189.569 77.808 190.241 76.824 190.697 75.54L193.157 68.484H192.089L190.925 72.108C190.745 72.684 190.553 73.344 190.373 73.932H190.313C190.109 73.344 189.881 72.672 189.689 72.108L188.357 68.484H187.217L189.833 75.012L189.689 75.504C189.425 76.308 188.957 76.908 188.213 76.908C188.045 76.908 187.853 76.848 187.721 76.8L187.505 77.676C187.709 77.76 187.961 77.808 188.273 77.808ZM194.529 75.156C194.961 75.156 195.321 74.82 195.321 74.328C195.321 73.836 194.961 73.476 194.529 73.476C194.097 73.476 193.737 73.836 193.737 74.328C193.737 74.82 194.097 75.156 194.529 75.156ZM199.721 75.156C200.501 75.156 201.245 74.856 201.821 74.328L201.353 73.596C200.945 73.968 200.417 74.244 199.817 74.244C198.617 74.244 197.801 73.248 197.801 71.748C197.801 70.248 198.665 69.228 199.841 69.228C200.369 69.228 200.765 69.468 201.149 69.816L201.713 69.084C201.245 68.676 200.657 68.316 199.805 68.316C198.137 68.316 196.661 69.576 196.661 71.748C196.661 73.908 197.993 75.156 199.721 75.156ZM205.497 75.156C207.093 75.156 208.521 73.908 208.521 71.748C208.521 69.576 207.093 68.316 205.497 68.316C203.901 68.316 202.473 69.576 202.473 71.748C202.473 73.908 203.901 75.156 205.497 75.156ZM205.497 74.244C204.369 74.244 203.613 73.248 203.613 71.748C203.613 70.248 204.369 69.228 205.497 69.228C206.625 69.228 207.393 70.248 207.393 71.748C207.393 73.248 206.625 74.244 205.497 74.244ZM210.243 75H211.335V70.272C211.935 69.6 212.487 69.276 212.979 69.276C213.807 69.276 214.191 69.792 214.191 71.016V75H215.283V70.272C215.895 69.6 216.423 69.276 216.927 69.276C217.755 69.276 218.139 69.792 218.139 71.016V75H219.231V70.872C219.231 69.204 218.595 68.316 217.251 68.316C216.459 68.316 215.775 68.832 215.103 69.564C214.839 68.796 214.299 68.316 213.303 68.316C212.523 68.316 211.839 68.808 211.275 69.432H211.239L211.143 68.484H210.243V75ZM220.38 77.148H221.184L224.772 65.484H223.98L220.38 77.148Z"
        fill="#BAC6C5" />
    <path
        d="M122.096 29.1854V34.3044H116.847V29.1854H114V42.1228H116.847V36.9296H122.096V42.1228H124.941V29.1854H122.096Z"
        fill="#084B6F" />
    <path
        d="M160.087 29.1854V34.3044H154.837V29.1854H151.991V42.1228H154.837V36.9296H160.087V42.1228H162.932V29.1854H160.087Z"
        fill="#084B6F" />
    <path
        d="M131.743 29.0935L126.199 42.1228H129.101L130.284 39.2202H135.755L136.937 42.1228H139.913L134.367 29.0935H131.743ZM133.017 32.5129L134.735 36.7055H131.299L133.018 32.5129H133.017Z"
        fill="#084B6F" />
    <path
        d="M140.097 40.2377L141.779 38.2221C142.943 39.1831 144.163 39.7935 145.642 39.7935C146.806 39.7935 147.508 39.3315 147.508 38.5736V38.5365C147.508 37.8157 147.065 37.4456 144.903 36.8917C142.297 36.2266 140.615 35.5058 140.615 32.937V32.8999C140.615 30.5521 142.5 29 145.143 29C147.028 29 148.636 29.5918 149.948 30.6448L148.469 32.7886C147.323 31.9945 146.196 31.5131 145.106 31.5131C144.016 31.5131 143.442 32.0122 143.442 32.6419V32.679C143.442 33.5288 143.997 33.8078 146.234 34.3786C148.857 35.0631 150.336 36.0057 150.336 38.26V38.2971C150.336 40.8658 148.377 42.3082 145.586 42.3082C143.564 42.3154 141.611 41.5784 140.097 40.2377Z"
        fill="#084B6F" />
    <path
        d="M172.783 29.1854V42.1228H182.634V39.5903H175.61V36.874H181.71V34.3415H175.61V31.7179H182.542V29.1854H172.783Z"
        fill="#084B6F" />
    <path
        d="M192.651 29.1854L189.509 34.3786L186.423 29.1854H183.096L188.068 37.0215V42.1228H190.914V36.9667L195.885 29.1854H192.651Z"
        fill="#084B6F" />
    <path
        d="M167.691 29.1854L165.679 31.1971L163.668 33.2079L165.679 35.2195L167.691 33.2079L169.702 31.1971L171.713 29.1854H167.691Z"
        fill="#084B6F" />
    <path d="M167.683 38.135L165.697 36.15L163.711 38.135H167.683Z" fill="#00BFAF" />
    <path d="M163.711 38.1349L165.697 40.1208L167.683 38.1349H163.711Z" fill="#16DCCB" />
    <path d="M169.669 40.1208L167.683 38.1349L165.697 40.1208H169.669Z" fill="#38ECDD" />
    <path d="M165.697 40.1208L167.683 42.1067L169.669 40.1208H165.697Z" fill="#7BFBF0" />
    <path d="M167.683 42.1067H171.655L169.669 40.1208L167.683 42.1067Z" fill="#A7F9F2" />
    <path d="M152.17 47.6174L155.41 50.8352L152.17 54.0966V47.6174Z" fill="#084B6F" />
    <path
        d="M156.877 46.175H158.967L161.285 49.903L163.602 46.175H165.692V54.9904H163.778V49.2355L161.286 53.0006H161.262L158.791 49.2734V54.9904H156.877V46.175Z"
        fill="#16DCCB" />
    <path
        d="M166.957 46.1507V55H173.695V53.2682H168.891V51.4098H173.063V49.678H168.891V47.8825H173.632V46.1507H166.957Z"
        fill="#16DCCB" />
    <path d="M161.273 53.02V49.8547L160 51.1148L161.273 53.02Z" fill="#A7F9F2" />
    <path d="M160 51.1148L161.274 49.8546L159.99 47.8382L160 51.1148Z" fill="#38ECDD" />
    <path d="M160 51.1145L159.99 47.8382L158.77 49.2193L160 51.1145Z" fill="#16DCCB" />
    <path d="M158.77 49.2597L159.99 47.8383L159.006 46.175H158.77V49.2597Z" fill="#00BFAF" />
    <path d="M161.274 53.02V49.8547L162.557 51.1148L161.274 53.02Z" fill="#7BFBF0" />
    <path d="M162.557 51.1148L161.274 49.8546L162.564 47.8382L162.557 51.1148Z" fill="#38ECDD" />
    <path d="M162.557 51.1145L162.564 47.8382L163.784 49.2193L162.557 51.1145Z" fill="#16DCCB" />
    <path d="M163.784 49.2597L162.564 47.8383L163.548 46.175H163.784V49.2597Z" fill="#00BFAF" />
</svg>