<?xml version="1.0" encoding="UTF-8"?>
<svg width="48px" height="48px" viewBox="0 0 48 48" version="1.1" xmlns="http://www.w3.org/2000/svg" xmlns:xlink="http://www.w3.org/1999/xlink">
    <title>编组 3</title>
    <g id="uniswap" stroke="none" stroke-width="1" fill="none" fill-rule="evenodd">
        <g id="切图" transform="translate(-176.000000, -429.000000)">
            <g id="编组-3" transform="translate(176.000000, 429.000000)">
                <path d="M0,24 C0,37.2557708 10.7458432,48 24,48 C37.2541568,48 48,37.2557708 48,24 C48,10.7457145 37.2541568,0 24,0 C10.7458432,0 0,10.7457145 0,24" id="Fill-1" fill="#FFFFFF"></path>
                <path d="M25.4102564,20.8364518 C25.7151767,20.8364518 26.004851,20.95842 26.2335412,21.1718642 L26.8586279,21.7969508 C28.7186417,23.6569647 28.7186417,26.6909217 26.8586279,28.5509356 L21.7969508,33.6126126 C20.8821899,34.5121275 19.6930007,35 18.4123354,35 C17.1316701,35 15.9424809,34.4968815 15.02772,33.5973666 L14.4026334,32.97228 C13.5031185,32.0727651 13,30.8683299 13,29.5876646 C13,28.3069993 13.5031185,27.1178101 14.4026334,26.2030492 L16.6285516,24.007623 C16.8419958,23.7941788 17.1469161,23.6722107 17.4365904,23.6722107 C17.7415107,23.6722107 18.046431,23.7941788 18.2598753,24.007623 C18.4733195,24.2210672 18.5952876,24.5259875 18.5952876,24.8309078 C18.5952876,25.1358281 18.4733195,25.4255024 18.2598753,25.6541927 L16.049203,27.8648649 C15.0887041,28.8253638 15.0887041,30.3957034 16.049203,31.3562024 L16.6742897,31.981289 C17.1316701,32.4386694 17.7567568,32.6978517 18.4123354,32.6978517 L18.4275814,32.6978517 C19.0679141,32.6978517 19.7082467,32.4386694 20.1656272,31.981289 L25.2273042,26.9196119 C26.1878032,25.959113 26.1878032,24.3887734 25.2273042,23.4282744 L24.6022176,22.8031878 C24.1600832,22.3458073 24.1600832,21.6139986 24.6022176,21.1718642 C24.8156618,20.95842 25.1205821,20.8364518 25.4102564,20.8364518 Z M29.6181566,13 C30.8988219,13 32.0880111,13.5031185 33.002772,14.4026334 L33.6278586,15.02772 C34.5273735,15.9272349 35.030492,17.1316701 35.030492,18.4123354 C35.030492,19.6930007 34.5273735,20.8821899 33.6278586,21.7969508 L31.6763687,23.7484407 C31.4629245,23.961885 31.1732502,24.0838531 30.8683299,24.0838531 C30.5634096,24.0838531 30.2584893,23.961885 30.045045,23.7484407 C29.6029106,23.2910603 29.6029106,22.5592516 30.045045,22.1171171 L31.996535,20.1656272 C32.4691615,19.6930007 32.7130977,19.0831601 32.7130977,18.4275814 C32.7130977,17.7720028 32.4539155,17.1469161 31.996535,16.6895357 L31.3714484,16.0644491 C30.8988219,15.5918226 30.2889813,15.3478863 29.6334026,15.3478863 C28.977824,15.3478863 28.3527374,15.6070686 27.8953569,16.0644491 L22.8031878,21.0956341 C22.3305613,21.5682606 22.0866251,22.1781012 22.0866251,22.8336798 C22.0866251,23.4892585 22.3458073,24.1143451 22.8031878,24.5717256 L23.4282744,25.1968122 C23.8856549,25.6541927 23.8856549,26.3860014 23.4282744,26.8281358 C23.2300762,27.026334 22.9404019,27.1483021 22.6507277,27.1635482 L22.6049896,27.1940402 C22.3000693,27.1940402 22.010395,27.0720721 21.7969508,26.8586279 L21.1718642,26.2335412 C20.2723493,25.3340263 19.7692308,24.1295911 19.7692308,22.8489258 C19.7692308,21.5682606 20.2723493,20.3790714 21.1718642,19.4643105 L26.2335412,14.4026334 C27.1330561,13.5031185 28.3374913,13 29.6181566,13 Z" id="形状结合" fill="#666260" fill-rule="nonzero"></path>
            </g>
        </g>
    </g>
</svg>