<svg width="48" height="48" viewBox="0 0 48 48" fill="none" xmlns="http://www.w3.org/2000/svg">
  <circle cx="24" cy="24" r="24" fill="black" />
  <rect width="48" height="48" rx="24" fill="black" />
  <path fill-rule="evenodd" clip-rule="evenodd" d="M32.7444 17.101C32.6118 17.1597 32.4686 17.1901 32.3239 17.1902H10.7361C10.6332 17.1901 10.5325 17.1597 10.4463 17.1025C10.3602 17.0453 10.2924 16.9639 10.2512 16.8683C10.21 16.7727 10.1973 16.667 10.2145 16.5641C10.2317 16.4613 10.2781 16.3657 10.3481 16.2892L14.8969 11.3413C14.9954 11.2338 15.1147 11.148 15.2474 11.0893C15.38 11.0306 15.5232 11.0003 15.6679 11.0001H37.2557C37.3595 10.9979 37.4618 11.027 37.5494 11.0835C37.637 11.1401 37.7064 11.2216 37.7483 11.318C37.7905 11.4143 37.8033 11.521 37.7856 11.6248C37.7678 11.7286 37.7203 11.8247 37.6489 11.9012L33.0949 16.8491C32.9964 16.9565 32.8771 17.0423 32.7444 17.101ZM33.0949 20.7449C32.996 20.6379 32.8766 20.5525 32.7441 20.4938C32.6115 20.4351 32.4685 20.4045 32.3239 20.4037H10.7361C10.6332 20.4038 10.5325 20.4343 10.4463 20.4914C10.3602 20.5486 10.2924 20.63 10.2512 20.7256C10.21 20.8212 10.1973 20.9269 10.2145 21.0298C10.2317 21.1327 10.2781 21.2282 10.3481 21.3048L14.8969 26.2553C14.9958 26.3623 15.1152 26.4477 15.2477 26.5064C15.3803 26.565 15.5233 26.5957 15.6679 26.5964H37.2557C37.3584 26.5959 37.4587 26.565 37.5445 26.5077C37.6304 26.4503 37.6977 26.3689 37.7385 26.2734C37.7794 26.1778 37.792 26.0723 37.7745 25.9697C37.7573 25.8671 37.711 25.7718 37.6411 25.6954L33.0949 20.7449ZM37.6489 30.711L33.0949 35.6589C32.9964 35.7664 32.8771 35.8522 32.7444 35.9108C32.6118 35.9695 32.4686 35.9999 32.3239 36.0001H10.7361C10.6332 36 10.5325 35.9695 10.4463 35.9123C10.3602 35.8552 10.2924 35.7738 10.2512 35.6782C10.21 35.5826 10.1973 35.4769 10.2145 35.374C10.2317 35.2711 10.2781 35.1756 10.3481 35.099L14.8969 30.1511C14.9954 30.0436 15.1147 29.9579 15.2474 29.8992C15.38 29.8405 15.5232 29.8101 15.6679 29.81H37.2557C37.3595 29.8078 37.4618 29.8368 37.5494 29.8934C37.637 29.9499 37.7064 30.0315 37.7483 30.1278C37.7905 30.2241 37.8033 30.3309 37.7856 30.4347C37.7678 30.5384 37.7203 30.6346 37.6489 30.711Z" fill="url(#paint0_linear_205_872)" />
  <defs>
    <linearGradient id="paint0_linear_205_872" x1="26.8024" y1="46.8535" x2="46.7717" y2="19.0768" gradientUnits="userSpaceOnUse">
      <stop offset="0.08" stop-color="#9945FF" />
      <stop offset="0.3" stop-color="#8752F3" />
      <stop offset="0.5" stop-color="#5497D5" />
      <stop offset="0.6" stop-color="#43B4CA" />
      <stop offset="0.72" stop-color="#28E0B9" />
      <stop offset="0.97" stop-color="#19FB9B" />
    </linearGradient>
  </defs>
</svg>
  