<?xml version="1.0" encoding="UTF-8"?>
<svg width="11px" height="11px" viewBox="0 0 11 11" version="1.1" xmlns="http://www.w3.org/2000/svg" xmlns:xlink="http://www.w3.org/1999/xlink">
    <title>形状</title>
    <g id="页面-1" stroke="none" stroke-width="1" fill="none" fill-rule="evenodd">
        <g id="切图" transform="translate(-106.000000, -128.000000)" fill="#00BFAF" fill-rule="nonzero">
            <path d="M111.25,128 C108.350781,128 106,130.350781 106,133.25 C106,136.149219 108.350781,138.5 111.25,138.5 C114.149219,138.5 116.5,136.149219 116.5,133.25 C116.5,130.350781 114.149219,128 111.25,128 Z M113.412109,132.144922 L111.326172,135.027734 C111.288672,135.079297 111.2125,135.079297 111.175,135.027734 L109.089062,132.144922 C109.044531,132.082812 109.089062,131.996094 109.165234,131.996094 L109.714844,131.996094 C109.834375,131.996094 109.948047,132.053516 110.018359,132.150781 L111.25,133.854688 L112.482812,132.150781 C112.553125,132.053516 112.665625,131.996094 112.786328,131.996094 L113.335938,131.996094 C113.412109,131.996094 113.456641,132.082812 113.412109,132.144922 Z" id="形状"></path>
        </g>
    </g>
</svg>