<?xml version="1.0" encoding="UTF-8"?>
<svg width="44px" height="44px" viewBox="0 0 44 44" version="1.1" xmlns="http://www.w3.org/2000/svg" xmlns:xlink="http://www.w3.org/1999/xlink">
    <!-- Generator: Sketch 54 (76480) - https://sketchapp.com -->
    <title>164BD0CD-3E55-44F2-8D54-9A3815EAFB6B</title>
    <desc>Created with Sketch.</desc>
    <g id="主页面" stroke="none" stroke-width="1" fill="none" fill-rule="evenodd">
        <g id="成功">
            <g id="编组-8">
                <g>
                    <circle id="Oval-2" fill="#00BFAF" cx="22" cy="22" r="22"></circle>
                    <path d="M18.5994764,30.8014279 C17.8893653,30.7137335 17.2134764,30.356539 16.740782,29.7469557 L11.3015875,22.733539 C10.7476153,22.021289 10.8780875,20.9946224 11.5903375,20.4406501 L13.4041153,19.0354001 C14.1163653,18.4814279 15.143032,18.6119001 15.6948653,19.3241501 L19.4336431,24.1452057 L31.1846986,15.072039 C31.8969486,14.5202057 32.9236153,14.6506779 33.4754486,15.3629279 L34.8764208,17.1788446 C35.4282542,17.8932335 35.297782,18.9177613 34.5833931,19.4695946 L20.6378375,30.241039 C20.0346708,30.7094557 19.301032,30.8869835 18.5994764,30.8014279" id="Fill-1" fill="#FEFEFE" transform="translate(23.088069, 22.776260) rotate(-5.000000) translate(-23.088069, -22.776260) "></path>
                </g>
            </g>
        </g>
    </g>
</svg>