<?xml version="1.0" encoding="UTF-8"?>
<svg width="44px" height="44px" viewBox="0 0 44 44" version="1.1" xmlns="http://www.w3.org/2000/svg" xmlns:xlink="http://www.w3.org/1999/xlink">
    <!-- Generator: Sketch 54 (76480) - https://sketchapp.com -->
    <title>等待</title>
    <desc>Created with Sketch.</desc>
    <defs>
        <path d="M0,22 C0,34.1513333 9.84866667,44 22,44 L22,44 C34.1513333,44 44,34.1513333 44,22 L44,22 C44,9.84866667 34.1513333,0 22,0 L22,0 C9.84866667,0 0,9.84866667 0,22 L0,22 Z" id="path-1"></path>
    </defs>
    <g id="主页面" stroke="none" stroke-width="1" fill="none" fill-rule="evenodd">
        <g id="记录详情-发起上链" transform="translate(-166.000000, -138.000000)">
            <g id="成功" transform="translate(166.000000, 138.000000)">
                <g id="等待">
                    <g id="编组-10">
                        <g id="编组">
                            <g>
                                <mask id="mask-2" fill="white">
                                    <use xlink:href="#path-1"></use>
                                </mask>
                                <g id="Clip-2"></g>
                                <polygon id="Fill-1" fill="#FDC05C" mask="url(#mask-2)" points="-9.16666667 53.1666667 53.1666667 53.1666667 53.1666667 -9.16666667 -9.16666667 -9.16666667"></polygon>
                            </g>
                            <path d="M32.32955,30.7244667 L20.84555,24.9403 C19.9802167,24.5039667 19.4338833,23.6166333 19.4338833,22.6468 L19.4338833,10.4643 C19.4338833,9.80796667 19.9637167,9.27813333 20.62005,9.27813333 L23.3792167,9.27813333 C24.03555,9.27813333 24.5672167,9.80796667 24.5672167,10.4643 L24.5672167,21.0664667 L34.6377167,26.1393 C35.2243833,26.4344667 35.45905,27.1476333 35.1638833,27.7324667 L33.9227167,30.1983 C33.62755,30.7831333 32.9143833,31.0196333 32.32955,30.7244667" id="Fill-3" fill="#FFFFFF"></path>
                        </g>
                    </g>
                </g>
            </g>
        </g>
    </g>
</svg>