<svg width="200" height="200" viewBox="0 0 200 200" fill="none" xmlns="http://www.w3.org/2000/svg">
    <defs>
        <linearGradient id="paint0_linear_11743_20931" x1="170.968" y1="2.86859e-06" x2="38.7097" y2="183.871"
            gradientUnits="userSpaceOnUse">
            <stop stop-color="#B3FFF9" />
            <stop offset="1" stop-color="#80FFF4" />
        </linearGradient>
        <radialGradient id="paint1_radial_11743_20931" cx="0" cy="0" r="1" gradientUnits="userSpaceOnUse"
            gradientTransform="translate(168 220) rotate(-65.5421) scale(131.83)">
            <stop stop-color="#5ED8FF" />
            <stop offset="1" stop-color="#61D9FF" stop-opacity="0" />
        </radialGradient>
        <radialGradient id="paint2_radial_11743_20931" cx="0" cy="0" r="1" gradientUnits="userSpaceOnUse"
            gradientTransform="translate(167.742 -32.2581) rotate(110.225) scale(195.953)">
            <stop stop-color="#84FFBC" />
            <stop offset="1" stop-color="#A2FFCD" stop-opacity="0" />
        </radialGradient>
        <radialGradient id="paint3_radial_11743_20931" cx="0" cy="0" r="1" gradientUnits="userSpaceOnUse"
            gradientTransform="translate(27.4194 8.40574e-06) rotate(61.8987) scale(188.33)">
            <stop stop-color="#99FFF7" />
            <stop offset="1" stop-color="#B0FFF9" stop-opacity="0" />
        </radialGradient>
    </defs>
    <path fill-rule="evenodd" clip-rule="evenodd"
        d="M130.272 0C150.35 0 160.387 0 171.195 3.41667C182.995 7.71167 192.288 17.005 196.583 28.805C200 39.6117 200 49.6517 200 69.7283V130.272C200 150.35 200 160.387 196.583 171.195C192.288 182.995 182.995 192.288 171.195 196.582C160.387 200 150.35 200 130.272 200H69.7283C49.65 200 39.6117 200 28.805 196.582C17.005 192.288 7.71167 182.995 3.41667 171.195C0 160.387 0 150.35 0 130.272V69.7283C0 49.6517 0 39.6117 3.41667 28.805C7.71167 17.005 17.005 7.71167 28.805 3.41667C39.6117 0 49.65 0 69.7283 0H130.272Z"
        fill="url(#paint0_linear_11743_20931)" />
    <path fill-rule="evenodd" clip-rule="evenodd"
        d="M130.272 0C150.35 0 160.387 0 171.195 3.41667C182.995 7.71167 192.288 17.005 196.583 28.805C200 39.6117 200 49.6517 200 69.7283V130.272C200 150.35 200 160.387 196.583 171.195C192.288 182.995 182.995 192.288 171.195 196.582C160.387 200 150.35 200 130.272 200H69.7283C49.65 200 39.6117 200 28.805 196.582C17.005 192.288 7.71167 182.995 3.41667 171.195C0 160.387 0 150.35 0 130.272V69.7283C0 49.6517 0 39.6117 3.41667 28.805C7.71167 17.005 17.005 7.71167 28.805 3.41667C39.6117 0 49.65 0 69.7283 0H130.272Z"
        fill="url(#paint1_radial_11743_20931)" />
    <path fill-rule="evenodd" clip-rule="evenodd"
        d="M130.272 0C150.35 0 160.387 0 171.195 3.41667C182.995 7.71167 192.288 17.005 196.583 28.805C200 39.6117 200 49.6517 200 69.7283V130.272C200 150.35 200 160.387 196.583 171.195C192.288 182.995 182.995 192.288 171.195 196.582C160.387 200 150.35 200 130.272 200H69.7283C49.65 200 39.6117 200 28.805 196.582C17.005 192.288 7.71167 182.995 3.41667 171.195C0 160.387 0 150.35 0 130.272V69.7283C0 49.6517 0 39.6117 3.41667 28.805C7.71167 17.005 17.005 7.71167 28.805 3.41667C39.6117 0 49.65 0 69.7283 0H130.272Z"
        fill="url(#paint2_radial_11743_20931)" />
    <path fill-rule="evenodd" clip-rule="evenodd"
        d="M130.272 0C150.35 0 160.387 0 171.195 3.41667C182.995 7.71167 192.288 17.005 196.583 28.805C200 39.6117 200 49.6517 200 69.7283V130.272C200 150.35 200 160.387 196.583 171.195C192.288 182.995 182.995 192.288 171.195 196.582C160.387 200 150.35 200 130.272 200H69.7283C49.65 200 39.6117 200 28.805 196.582C17.005 192.288 7.71167 182.995 3.41667 171.195C0 160.387 0 150.35 0 130.272V69.7283C0 49.6517 0 39.6117 3.41667 28.805C7.71167 17.005 17.005 7.71167 28.805 3.41667C39.6117 0 49.65 0 69.7283 0H130.272Z"
        fill="url(#paint3_radial_11743_20931)" />
    <path
        d="M32.0002 63.2003H49.403L68.6916 94.234L87.9803 63.2003H105.383V136.583H89.4501V88.6769L68.7002 120.019H68.5002L47.9332 88.9923V136.583H32.0002V63.2003Z"
        fill="#084B6F" />
    <path
        d="M115.913 62.9991V136.664H172V122.248H132.007V106.778H166.738V92.3616H132.007V77.4153H171.477V62.9991H115.913Z"
        fill="#084B6F" />
    <path d="M68.5988 120.181V93.8321L58.0002 104.322L68.5988 120.181Z" fill="#80BCDD" />
    <path d="M58.0003 104.321L68.6003 93.8312L57.9128 77.046L58.0003 104.321Z" fill="#20495F" />
    <path d="M58.0002 104.319L57.9134 77.046L47.759 88.5426L58.0002 104.319Z" fill="#0D2D3F" />
    <path d="M47.759 88.8782L57.9134 77.046L49.7255 63.2003H47.759V88.8782Z" fill="black" />
    <path d="M68.6004 120.181V93.8321L79.2804 104.322L68.6004 120.181Z" fill="#3D708C" />
    <path d="M79.2804 104.321L68.6004 93.8312L79.3431 77.046L79.2804 104.321Z" fill="#20495F" />
    <path d="M79.28 104.319L79.3433 77.046L89.4977 88.5426L79.28 104.319Z" fill="#0D2D3F" />
    <path d="M89.4979 88.8782L79.3435 77.046L87.5315 63.2003H89.4979V88.8782Z" fill="black" />
</svg>