<svg width="24" height="24" viewBox="0 0 24 24" fill="none" xmlns="http://www.w3.org/2000/svg">
    <circle cx="12" cy="12" r="12" fill="#F7F7F7" />
    <path
        d="M12.2523 7.25181C12.0973 7.18275 11.9202 7.18275 11.7651 7.25181L6.37412 9.64833C6.15731 9.74418 6.01746 9.95891 6.01746 10.196C6.01746 10.433 6.15731 10.6477 6.37412 10.7436L11.7651 13.1401C11.9201 13.2083 12.0967 13.2083 12.2523 13.1401L17.6434 10.7436C17.8602 10.6477 18 10.433 18 10.196C18 9.95891 17.8602 9.74418 17.6434 9.64833L12.2523 7.25181Z"
        fill="#00BFAF" />
    <path d="M6.51556 13.9446L11.5916 16.1616C11.8477 16.2734 12.1389 16.273 12.3947 16.1604L17.7584 13.8"
        stroke="#00BFAF" stroke-width="1.3" stroke-linecap="round" />
</svg>