<?xml version="1.0" encoding="UTF-8"?>
<svg width="11px" height="8px" viewBox="0 0 11 8" version="1.1" xmlns="http://www.w3.org/2000/svg" xmlns:xlink="http://www.w3.org/1999/xlink">
    <title>标准箭头</title>
    <g id="NFT" stroke="none" stroke-width="1" fill="none" fill-rule="evenodd">
        <g id="1.3.2切图" transform="translate(-234.000000, -70.000000)" fill="#D9CFCC" fill-rule="nonzero">
            <g id="编组" transform="translate(234.344947, 70.338800)">
                <g id="下箭头复制-2" transform="translate(5.204800, 3.504714) scale(1, -1) translate(-5.204800, -3.504714) ">
                    <path d="M10.1280943,0.16437601 C10.4245869,0.401570074 10.4933597,0.817921544 10.3034539,1.1348024 L10.2452247,1.2185489 L5.89080034,6.66157931 C5.79601496,6.78006103 5.67262012,6.8621784 5.53839603,6.90595582 L5.62604767,6.84505268 C5.32955509,7.08224675 4.90826208,7.05794789 4.64079665,6.80311477 L4.57187478,6.72792236 L0.16437601,1.2185489 C-0.094381151,0.895102451 -0.0419401198,0.423133171 0.281506331,0.16437601 C0.577998912,-0.0728180542 0.999291925,-0.0485191931 1.26675735,0.206313925 L1.33567922,0.281506331 L5.205,5.117 L9.07392145,0.281506331 C9.33267861,-0.0419401198 9.80464789,-0.094381151 10.1280943,0.16437601 Z" id="形状结合"></path>
                </g>
            </g>
        </g>
    </g>
</svg>