<svg width="20px" height="20px" viewBox="0 0 20 20" version="1.1" xmlns="http://www.w3.org/2000/svg" xmlns:xlink="http://www.w3.org/1999/xlink">
    <g id="NFT" stroke="none" stroke-width="1" fill="none" fill-rule="evenodd">
        <g transform="translate(-30.000000, -36.000000)" fill="#00BFAF" fill-rule="nonzero">
            <path d="M40,37.3 C40.6213203,37.3 41.1323525,37.7721997 41.1938045,38.377307 L41.2,38.5 L41.1999784,44.98 L45.4429777,44.9804611 C46.2226738,44.9804611 46.8634264,45.5753492 46.9361111,46.3360011 L46.9429777,46.4804611 C46.9429777,46.8274417 46.8226849,47.1636913 46.60259,47.4319333 L46.60259,47.4319333 L40.7730749,54.5366891 C40.3730109,55.0242693 39.6269891,55.0242693 39.2269251,54.5366891 L39.2269251,54.5366891 L33.39741,47.4319333 C32.8719264,46.7914971 32.965114,45.8463324 33.6055501,45.3208488 C33.8737921,45.1007539 34.2100417,44.9804611 34.5570223,44.9804611 L34.5570223,44.9804611 L38.7999784,44.98 L38.8,38.5 C38.8,37.8372583 39.3372583,37.3 40,37.3 Z M44.386,46.98 L35.613,46.98 L39.999,52.325 L44.386,46.98 Z" id="收款"></path>
        </g>
    </g>
</svg>