<?xml version="1.0" encoding="UTF-8"?>
<svg width="14px" height="10px" viewBox="0 0 14 10" version="1.1" xmlns="http://www.w3.org/2000/svg" xmlns:xlink="http://www.w3.org/1999/xlink">
    <!-- Generator: Sketch 54 (76480) - https://sketchapp.com -->
    <title>闭眼</title>
    <desc>Created with Sketch.</desc>
    <g id="主页面" stroke="none" stroke-width="1" fill="none" fill-rule="evenodd">
        <g id="闭眼" fill="#303033">
            <g id="编组" transform="translate(0.000000, 2.000000)">
                <path d="M7.00737008,5.12639839 C4.1758262,5.12639839 1.53577725,3.60190287 0.115241126,1.14835063 C-0.0308937991,0.916343467 -0.0385666349,0.623020482 0.0951981412,0.383666452 C0.228962917,0.14432078 0.482810082,-0.00283384651 0.756992768,4.13773667e-05 C1.03118381,0.00295003408 1.28189665,0.155387049 1.41060471,0.397516004 C2.56393725,2.38833272 4.70771754,3.62625869 7.00612471,3.62625869 C9.30454023,3.62625869 11.4479946,2.38895123 12.6010346,0.395652124 C12.8116865,0.0457524221 13.263782,-0.0709365331 13.6174346,0.133313019 C13.9711289,0.337537497 14.0960423,0.787443168 13.8982871,1.1447566 C12.4788292,3.60190287 9.83878023,5.12639839 7.00737008,5.12639839 Z" id="Fill-1"></path>
                <path d="M3.12501545,5.87240197 C2.85510381,5.87223481 2.60617963,5.72671839 2.47366023,5.4915769 C2.34110739,5.25644377 2.34551217,4.96814406 2.48511934,4.7371566 L3.31228948,3.36843302 C3.44771754,3.13348377 3.69954202,2.99009033 3.97069068,2.99348377 C4.24184769,2.99685212 4.49001128,3.14651421 4.61949665,3.38479003 C4.74902381,3.62303242 4.7396459,3.91269451 4.59501545,4.14205212 L3.76787874,5.51065033 C3.63166501,5.735436 3.38783934,5.87262765 3.12501545,5.87240197 Z M10.8491707,5.87240197 C10.5864805,5.87276138 10.3427802,5.73550287 10.2069343,5.51065033 L9.37979754,4.14205212 C9.2304865,3.91282824 9.21801605,3.62044974 9.34724232,3.37933212 C9.47646859,3.13822287 9.72685545,2.98673033 10.0003946,2.98414765 C10.2739587,2.98153988 10.527154,3.12825988 10.6609522,3.36686168 L11.4881223,4.73558526 C11.6278298,4.96661451 11.6324268,5.25497272 11.5001331,5.49033988 C11.3678393,5.72567362 11.1191492,5.87164974 10.8491707,5.87240197 Z M7.00737008,6.84704436 C6.80869545,6.84704436 6.61815337,6.76813451 6.47766859,6.62764138 C6.33717545,6.4871566 6.2582656,6.29661451 6.2582656,6.09790645 L6.2582656,4.37709332 C6.2582656,3.96336197 6.59363874,3.62798884 7.00737008,3.62798884 C7.42110142,3.62798884 7.75650799,3.96336197 7.75650799,4.37709332 L7.75650799,6.09778108 C7.75650799,6.29644735 7.67758978,6.48698944 7.53710501,6.62748257 C7.39661187,6.76796735 7.20606978,6.84688556 7.00737008,6.84688556 L7.00737008,6.84704436 Z" id="Fill-3"></path>
            </g>
        </g>
    </g>
</svg>