<svg width="120" height="39" viewBox="0 0 120 39" fill="none" xmlns="http://www.w3.org/2000/svg">
    <path
        d="M11.864 0.271484V7.77318H4.17207V0.271484H0V19.2307H4.17207V11.6203H11.864V19.2307H16.0337V0.271484H11.864Z"
        fill="#084B6F" />
    <path
        d="M67.5388 0.271484V7.77318H59.8457V0.271484H55.6748V19.2307H59.8457V11.6203H67.5388V19.2307H71.7085V0.271484H67.5388Z"
        fill="#084B6F" />
    <path
        d="M26.0011 0.136719L17.8767 19.2307H22.1303L23.8637 14.9771H31.8805L33.6138 19.2307H37.975L29.847 0.136719H26.0011ZM27.8679 5.1477L30.3858 11.2918H25.3512L27.8703 5.1477H27.8679Z"
        fill="#084B6F" />
    <path
        d="M38.2446 16.4685L40.7094 13.5146C42.4155 14.923 44.2032 15.8175 46.3702 15.8175C48.0764 15.8175 49.1055 15.1405 49.1055 14.0298V13.9754C49.1055 12.9191 48.4556 12.3768 45.2867 11.5651C41.4679 10.5903 39.0032 9.53397 39.0032 5.76954V5.71518C39.0032 2.27449 41.7657 0 45.6388 0C48.4013 0 50.7585 0.867265 52.6809 2.41038L50.5139 5.55213C48.8337 4.3883 47.1819 3.68291 45.5845 3.68291C43.987 3.68291 43.1469 4.41429 43.1469 5.33709V5.39144C43.1469 6.6368 43.9598 7.04562 47.2374 7.88216C51.0822 8.8853 53.2492 10.2665 53.2492 13.5702V13.6245C53.2492 17.389 50.378 19.5028 46.2887 19.5028C43.3257 19.5132 40.4625 18.4332 38.2446 16.4685Z"
        fill="#084B6F" />
    <path
        d="M86.1448 0.271484V19.2307H100.581V15.5195H90.2873V11.5388H99.227V7.82753H90.2873V3.98275H100.445V0.271484H86.1448Z"
        fill="#084B6F" />
    <path
        d="M115.261 0.271484L110.656 7.88188L106.133 0.271484H101.258L108.544 11.755V19.2307H112.714V11.6747L120 0.271484H115.261Z"
        fill="#084B6F" />
    <path
        d="M78.6821 0.271484L75.7341 3.21947L72.7861 6.16627L75.7341 9.11425L78.6821 6.16627L81.6289 3.21947L84.5769 0.271484H78.6821Z"
        fill="#084B6F" />
    <path d="M78.6702 13.3865L75.76 10.4775L72.8499 13.3865H78.6702Z" fill="#00BFAF" />
    <path d="M72.8499 13.3867L75.76 16.2969L78.6702 13.3867H72.8499Z" fill="#16DCCB" />
    <path d="M81.5804 16.2969L78.6702 13.3867L75.76 16.2969H81.5804Z" fill="#38ECDD" />
    <path d="M75.76 16.2969L78.6702 19.207L81.5804 16.2969H75.76Z" fill="#7BFBF0" />
    <path d="M78.6704 19.207H84.4907L81.5806 16.2969L78.6704 19.207Z" fill="#A7F9F2" />
    <path d="M55.9373 27.2832L60.6847 31.9988L55.9373 36.7782V27.2832Z" fill="#084B6F" />
    <path
        d="M62.8345 25.1689H65.8981L69.2938 30.6323L72.6895 25.1689H75.7532V38.0876H72.9482V29.654L69.2953 35.1717H69.2601L65.6394 29.7095V38.0876H62.8345V25.1689Z"
        fill="#16DCCB" />
    <path
        d="M77.6069 25.1338V38.1021H87.4809V35.5642H80.4402V32.8408H86.5545V30.3029H80.4402V27.6717H87.3887V25.1338H77.6069Z"
        fill="#16DCCB" />
    <path d="M69.2774 35.2002V30.5615L67.4116 32.4082L69.2774 35.2002Z" fill="#A7F9F2" />
    <path d="M67.4116 32.4081L69.2777 30.5614L67.3962 27.6064L67.4116 32.4081Z" fill="#38ECDD" />
    <path d="M67.4116 32.4077L67.3963 27.6064L65.6086 29.6304L67.4116 32.4077Z" fill="#16DCCB" />
    <path d="M65.6086 29.6894L67.3963 27.6064L65.9548 25.1689H65.6086V29.6894Z" fill="#00BFAF" />
    <path d="M69.2778 35.2002V30.5615L71.158 32.4082L69.2778 35.2002Z" fill="#7BFBF0" />
    <path d="M71.158 32.4081L69.2778 30.5614L71.169 27.6064L71.158 32.4081Z" fill="#38ECDD" />
    <path d="M71.158 32.4077L71.1691 27.6064L72.9567 29.6304L71.158 32.4077Z" fill="#16DCCB" />
    <path d="M72.9566 29.6894L71.1689 27.6064L72.6104 25.1689H72.9566V29.6894Z" fill="#00BFAF" />
</svg>