<svg width="30" height="30" viewBox="0 0 30 30" fill="none" xmlns="http://www.w3.org/2000/svg">
    <path fill-rule="evenodd" clip-rule="evenodd"
        d="M24.0357 6H5.96429C4.65 6 3.5 7.15 3.5 8.46429V21.9357C3.5 23.25 4.65 24.4 5.96429 24.4H24.0357C25.35 24.4 26.5 23.25 26.5 21.9357V8.46429C26.5 7.15 25.35 6 24.0357 6ZM15 16.3509L6.12854 7.64373H23.7071L15 16.3509ZM5.96428 22.7563H24.0357C24.5286 22.7563 24.8571 22.4277 24.8571 21.9348V8.79199L15.6571 18.1563C15.4929 18.3206 15.1643 18.3206 15 18.3206C14.6714 18.3206 14.5071 18.3206 14.3429 18.1563L5.14285 8.95628V21.9348C5.14285 22.4277 5.47142 22.7563 5.96428 22.7563Z"
        fill="#00BFAF" />
</svg>