<svg width="48" height="48" viewBox="0 0 48 48" fill="none" xmlns="http://www.w3.org/2000/svg">
<path d="M24 48C37.2548 48 48 37.2548 48 24C48 10.7452 37.2548 0 24 0C10.7452 0 0 10.7452 0 24C0 37.2548 10.7452 48 24 48Z" fill="#00EF8B"/>
<path d="M34.531 20.2465H27.7534V27.0241H34.531V20.2465Z" fill="white"/>
<path d="M20.9809 29.5633C20.9809 30.0664 20.8317 30.5583 20.5522 30.9766C20.2726 31.395 19.8753 31.7211 19.4105 31.9136C18.9456 32.1062 18.4341 32.1565 17.9406 32.0584C17.4471 31.9602 16.9938 31.7179 16.638 31.3621C16.2823 31.0064 16.04 30.5531 15.9418 30.0596C15.8436 29.5661 15.894 29.0546 16.0866 28.5897C16.2791 28.1249 16.6052 27.7275 17.0236 27.448C17.4419 27.1685 17.9338 27.0193 18.4369 27.0193H20.9809V20.2465H18.4369C16.5942 20.2465 14.7929 20.7929 13.2608 21.8166C11.7286 22.8404 10.5345 24.2955 9.82932 25.9979C9.12415 27.7003 8.93965 29.5736 9.29914 31.3809C9.65863 33.1882 10.546 34.8483 11.8489 36.1512C13.1519 37.4542 14.812 38.3416 16.6193 38.701C18.4266 39.0605 20.2999 38.876 22.0023 38.1709C23.7047 37.4657 25.1598 36.2715 26.1836 34.7394C27.2073 33.2073 27.7537 31.4059 27.7537 29.5633V27.0193H20.9809V29.5633Z" fill="white"/>
<path d="M30.2978 16.8576H37.9202V10.08H30.2978C27.8276 10.0825 25.4593 11.0649 23.7126 12.8116C21.9659 14.5583 20.9835 16.9266 20.981 19.3968V20.2464H27.7538V19.3968C27.755 18.7229 28.0236 18.077 28.5006 17.601C28.9775 17.1249 29.6239 16.8576 30.2978 16.8576V16.8576Z" fill="white"/>
<path d="M20.981 27.0193H27.7538V20.2465H20.981V27.0193Z" fill="#16FF99"/>
</svg>
