<svg width="54" height="54" viewBox="0 0 54 54" fill="none" xmlns="http://www.w3.org/2000/svg">
  <mask id="mask0_117_670" style="mask-type:alpha" maskUnits="userSpaceOnUse" x="0" y="0" width="54" height="54">
    <rect width="54" height="54" fill="#FE0420" />
  </mask>
  <g mask="url(#mask0_117_670)">
    <rect width="54" height="54" fill="white" />
  </g>
  <path d="M37.5275 17C35.3501 17 32.9723 18.1533 30.4604 20.427C29.2708 21.5041 28.2397 22.6567 27.4658 23.5813C27.4672 23.5826 27.4685 23.584 27.4699 23.5861C27.4719 23.5833 27.4733 23.5819 27.4733 23.5819C27.4733 23.5819 28.694 24.9548 30.0373 26.4243C30.7604 25.5367 31.8051 24.3254 33.0062 23.2385C35.2391 21.2166 36.6975 20.7928 37.5275 20.7928C40.6596 20.7928 43.2073 23.3588 43.2073 26.5124C43.2073 29.6484 40.6582 32.2124 37.5235 32.232C37.3806 32.232 37.1971 32.2138 36.971 32.1621C37.8843 32.5705 38.8661 32.8642 39.8011 32.8642C45.5418 32.8642 46.6637 28.9945 46.7402 28.7204C46.9101 28.0112 47.0002 27.2726 47.0002 26.5131C46.9995 21.267 42.7503 17 37.5275 17Z" fill="url(#paint0_linear_117_670)" />
  <path d="M17.4727 36.03C19.6501 36.03 22.0279 34.8767 24.5398 32.603C25.7293 31.5259 26.7605 30.3734 27.5344 29.4488C27.533 29.4474 27.5317 29.446 27.5303 29.4439C27.5283 29.4467 27.5269 29.4481 27.5269 29.4481C27.5269 29.4481 26.3062 28.0752 24.9629 26.6057C24.2398 27.4933 23.1951 28.7046 21.994 29.7915C19.7611 31.8134 18.3027 32.2372 17.4727 32.2372C14.3406 32.2372 11.7929 29.6712 11.7929 26.5176C11.7929 23.3816 14.342 20.8176 17.4767 20.798C17.6196 20.798 17.8031 20.8162 18.0292 20.868C17.1159 20.4595 16.1341 20.1658 15.1991 20.1658C9.45837 20.1658 8.3365 24.0355 8.25999 24.3097C8.09005 25.0188 8 25.7574 8 26.5169C8.00068 31.763 12.2499 36.03 17.4727 36.03Z" fill="url(#paint1_linear_117_670)" />
  <path d="M39.7891 32.7677C36.85 32.6929 33.7952 30.2989 33.1716 29.7037C31.5616 28.1657 27.8459 24.0016 27.5541 23.675C24.8303 20.5249 21.1397 17 17.4721 17H17.4673H17.4626C13.0042 17.0231 9.25737 20.1417 8.26074 24.3044C8.33725 24.0303 9.80172 20.0871 15.1951 20.2242C18.1342 20.299 21.204 22.7252 21.8269 23.3204C23.4369 24.8583 27.1539 29.0232 27.4444 29.3498C30.1682 32.4992 33.8588 36.0234 37.5264 36.0234H37.5311H37.5359C41.9943 36.0003 45.7411 32.8817 46.7377 28.719C46.6619 28.9931 45.1825 32.9048 39.7891 32.7677Z" fill="#29ABE2" />
  <defs>
    <linearGradient id="paint0_linear_117_670" x1="32.5968" y1="18.2543" x2="45.908" y2="31.5983" gradientUnits="userSpaceOnUse">
      <stop offset="0.21" stop-color="#F15A24" />
      <stop offset="0.6841" stop-color="#FBB03B" />
    </linearGradient>
    <linearGradient id="paint1_linear_117_670" x1="22.4034" y1="34.7757" x2="9.09216" y2="21.4317" gradientUnits="userSpaceOnUse">
      <stop offset="0.21" stop-color="#ED1E79" />
      <stop offset="0.8929" stop-color="#522785" />
    </linearGradient>
  </defs>
</svg>
  