<?xml version="1.0" encoding="UTF-8"?>
<svg width="28px" height="28px" viewBox="0 0 28 28" version="1.1" xmlns="http://www.w3.org/2000/svg" xmlns:xlink="http://www.w3.org/1999/xlink">
    <title>刷新</title>
    <g id="主页面" stroke="none" stroke-width="1" fill="none" fill-rule="evenodd">
        <g id="收款缺损2" transform="translate(-174.000000, -291.000000)" fill="#00BFAF" fill-rule="nonzero">
            <g id="刷新" transform="translate(175.000000, 292.000000)">
                <g>
                    <path d="M13,-1 C17.4638007,-1 21.5795893,1.10457773 24.2069175,4.60794827 C24.5382723,5.04978816 24.4487064,5.67658625 24.0068665,6.00794098 C23.5650266,6.33929571 22.9382285,6.2497298 22.6068738,5.80788991 C20.3533181,2.80292069 16.827461,1 13,1 C6.372583,1 1,6.372583 1,13 C1,19.627417 6.372583,25 13,25 C19.627417,25 25,19.627417 25,13 C25,12.4477153 25.4477153,12 26,12 C26.5522847,12 27,12.4477153 27,13 C27,20.7319865 20.7319865,27 13,27 C5.2680135,27 -1,20.7319865 -1,13 C-1,5.2680135 5.2680135,-1 13,-1 Z" id="路径"></path>
                    <path d="M24.8,-0.4 C25.3128358,-0.4 25.7355072,-0.0139598098 25.7932723,0.483378875 L25.8,0.6 L25.8,6.6 C25.8,7.11283584 25.4139598,7.53550716 24.9166211,7.59327227 L24.8,7.6 L18.8,7.6 C18.2477153,7.6 17.8,7.15228475 17.8,6.6 C17.8,6.08716416 18.1860402,5.66449284 18.6833789,5.60672773 L18.8,5.6 L23.799,5.6 L23.8,0.6 C23.8,0.0871641609 24.1860402,-0.335507161 24.6833789,-0.393272269 L24.8,-0.4 Z" id="路径-38"></path>
                </g>
            </g>
        </g>
    </g>
</svg>