<svg width="56" height="56" viewBox="0 0 56 56" fill="none" xmlns="http://www.w3.org/2000/svg">
    <circle cx="28" cy="28" r="28" fill="#C3F5F1" fill-opacity="0.6" />
    <path opacity="0.4" fill-rule="evenodd" clip-rule="evenodd"
        d="M15.75 28C15.75 21.2343 21.2343 15.75 28 15.75C34.7657 15.75 40.2486 21.2343 40.25 28C40.25 34.7657 34.7657 40.25 28 40.25C21.2343 40.25 15.75 34.7657 15.75 28ZM17.4996 27.9987C17.4996 33.7982 22.2017 38.4991 28 38.4991C33.7982 38.4991 38.499 33.7982 38.499 27.9987C38.499 22.2005 33.7982 17.4983 28 17.4983C22.2017 17.4983 17.4996 22.2005 17.4996 27.9987ZM33.2473 25.3738C33.779 24.2067 32.0882 23.7781 31.6161 23.6584C31.5462 23.6407 31.5031 23.6297 31.4977 23.6241C31.4977 23.6241 28.2339 26.551 27.9985 27.9989C27.9407 28.3522 28.2718 28.8552 28.6732 29.465C29.0618 30.0554 29.5164 30.7459 29.7481 31.4981C30.2582 33.1557 30.0255 35.2761 29.7481 35.8728C29.7481 35.8728 32.8156 34.5278 34.9969 30.6212C34.9969 30.624 32.8278 26.298 33.2473 25.3738ZM20.1233 26.249C20.1233 26.249 21.6375 22.2856 25.3735 20.1233C25.3735 20.1233 28.8524 23.4439 27.9986 25.3735C27.9986 25.3735 20.9108 24.3803 20.1233 26.249Z"
        fill="#00BFAF" />
</svg>