<?xml version="1.0" encoding="UTF-8"?>
<svg width="16px" height="16px" viewBox="0 0 16 16" version="1.1" xmlns="http://www.w3.org/2000/svg" xmlns:xlink="http://www.w3.org/1999/xlink">
    <title>收款</title>
    <g id="页面-1" stroke="none" stroke-width="1" fill="none" fill-rule="evenodd">
        <g id="切图" transform="translate(-111.000000, -186.000000)">
            <g id="收款" transform="translate(111.000000, 186.000000)">
                <g id="编组-2" fill="#00BFAF">
                    <circle id="椭圆形" cx="8" cy="8" r="8"></circle>
                </g>
                <g transform="translate(4.622222, 3.555556)" id="编组-4">
                    <path d="M3.3898065,0.000272128324 C3.68950194,-0.00880955188 3.9431074,0.210468075 3.98350064,0.500813488 L3.98883197,0.564060813 L4.07696439,3.47243064 C4.08669476,3.7935329 3.83427797,4.06172574 3.51317571,4.07145612 C3.21348026,4.0805378 2.9598748,3.86126017 2.91948157,3.57091476 L2.91415023,3.50766743 L2.82601781,0.599297606 C2.81628744,0.278195341 3.06870423,0.0100025 3.3898065,0.000272128324 Z" id="路径" fill="#FFFFFF"></path>
                    <path d="M5.97666301,4.10326365 C6.02201032,4.10326365 6.06591252,4.11921558 6.10068242,4.14832627 C6.14158716,4.18257328 6.1647381,4.23015805 6.16910111,4.27940725 C6.17346412,4.32865646 6.15903919,4.37957009 6.12479217,4.42047483 L6.12479217,4.42047483 L3.41401902,7.65823064 C3.33161497,7.72748226 3.27122472,7.77578539 3.2038772,7.76589547 C3.15495974,7.75871199 3.10878269,7.73286713 3.07694075,7.69006356 L3.07694075,7.69006356 L0.70570548,4.50252802 C0.65376297,4.33223935 0.60026853,4.21616424 0.65658456,4.15984821 L0.65658456,4.15984821 Z" id="路径-22" stroke="#FFFFFF" stroke-width="1.2"></path>
                </g>
            </g>
        </g>
    </g>
</svg>