<?xml version="1.0" encoding="UTF-8"?>
<svg width="18px" height="20px" viewBox="0 0 18 20" version="1.1" xmlns="http://www.w3.org/2000/svg" xmlns:xlink="http://www.w3.org/1999/xlink">
    <title>指纹</title>
    <g id="NFT" stroke="none" stroke-width="1" fill="none" fill-rule="evenodd">
        <g id="指纹" fill="#00BFAF" fill-rule="nonzero">
            <path d="M14.7961612,2.508989 C14.7284793,2.508989 14.6607974,2.508989 14.5254336,2.44130711 C12.6303405,1.42607868 10.9382931,1.01998731 8.97551818,1.01998731 C7.01274322,1.01998731 5.11765016,1.49376057 3.42560279,2.44130711 C3.15487522,2.5766709 2.88414762,2.44130711 2.74878385,2.23826142 C2.61342005,1.96753385 2.68110196,1.69680625 2.88414762,1.56144248 C4.7792407,0.546214051 6.80969755,0.00475888325 8.90783629,0.00475888325 C11.005975,0.00475888325 12.9010681,0.478532142 14.931525,1.49376057 C15.2022525,1.62912437 15.2699344,1.89985194 15.1345706,2.17057953 C15.1345706,2.44130711 14.9992069,2.508989 14.7961612,2.508989 Z M0.515281309,7.72049492 C0.447599421,7.72049492 0.312235624,7.65281304 0.244553716,7.65281304 C0.109189919,7.58513115 0.109189919,7.44976735 0.0415080306,7.31440355 C-0.0261738579,7.17903976 0.0415080306,7.04367598 0.109189939,6.97599407 C1.12441837,5.55467427 2.34269248,4.47176396 3.89937605,3.72726311 C7.08042513,2.10289762 11.0736569,2.10289762 14.1870241,3.72726311 C15.6760258,4.47176396 16.8942999,5.55467427 17.9095283,6.97599407 C18.0448921,7.17903976 18.0448921,7.51744924 17.7741646,7.65281304 C17.5711189,7.78817683 17.2327094,7.78817683 17.0973456,7.51744924 C16.217481,6.23149324 15.0668887,5.2839467 13.7132509,4.53944585 C10.8706113,3.05044416 7.21578892,3.05044416 4.37314933,4.53944585 C3.01951142,5.21626479 1.86891922,6.23149322 0.989054569,7.51744924 C0.853690772,7.72049492 0.718326995,7.72049492 0.515281309,7.72049492 Z M6.74201564,19.7678722 C6.60665185,19.7678722 6.47128807,19.7001904 6.40360618,19.6325085 C5.52374155,18.7526438 5.04996827,18.2111887 4.37314933,16.9929146 C3.69633039,15.7746404 3.290239,14.2856388 3.290239,12.6612733 C3.290239,9.68326987 5.79446911,7.31440355 8.90783629,7.31440355 C12.0212035,7.31440355 14.5254336,9.75095178 14.5254336,12.6612733 C14.5254336,12.9320008 14.3223879,13.1350465 14.0516603,13.1350465 C13.7809327,13.1350465 13.5778871,12.9320009 13.5778871,12.6612733 C13.5778871,10.224725 11.4797483,8.26195007 8.90783629,8.26195009 C6.33592427,8.26195011 4.30546742,10.224725 4.30546742,12.6612733 C4.30546742,14.0825931 4.6438769,15.3685491 5.25301396,16.5191413 C5.9298329,17.6697335 6.33592427,18.1435068 7.08042513,18.9556895 C7.28347081,19.1587352 7.28347081,19.4971447 7.08042513,19.6325085 C7.01274324,19.7001904 6.87737944,19.7678722 6.74201564,19.7678722 Z M13.9162965,17.9404611 C12.6980224,17.9404611 11.682794,17.6697335 10.8029294,17.0605964 C9.31392766,16.045368 8.43406304,14.4210025 8.43406304,12.6612733 C8.43406304,12.3905457 8.63710872,12.1875 8.90783629,12.1875 C9.17856387,12.1875 9.38160955,12.3905457 9.38160955,12.6612733 C9.38160955,14.0825931 10.1261104,15.3685491 11.2767026,16.2484137 C11.9535216,16.722187 12.7657043,16.9252326 13.7809327,16.9252326 C14.0516603,16.9252326 14.4577517,16.8575508 14.7961612,16.8575508 C15.0668887,16.7898689 15.3376163,16.9929146 15.3376163,17.2636421 C15.4052982,17.5343697 15.2022525,17.8050973 14.931525,17.8050973 C14.5254336,17.9404611 14.0516603,17.9404611 13.9162965,17.9404611 L13.9162965,17.9404611 Z M11.8858397,19.9709179 L11.7504759,19.9709179 C10.1261104,19.4971447 9.11088198,18.9556895 8.02797166,17.8727792 C6.60665187,16.4514594 5.86215102,14.6240482 5.86215102,12.6612733 C5.86215102,11.0369078 7.28347081,9.68326987 8.90783629,9.68326989 C10.5322018,9.68326991 11.9535216,10.9692259 11.9535216,12.6612733 C11.9535216,13.7441836 12.9010681,14.5563663 14.0516603,14.5563663 C15.2022525,14.5563663 16.1497991,13.6765017 16.1497991,12.6612733 C16.1497991,8.87108713 12.9010681,5.89308376 8.90783629,5.89308376 C6.0651967,5.89308376 3.49328468,7.44976735 2.34269248,9.88631557 C1.93660111,10.6984983 1.80123731,11.6460449 1.80123731,12.6612733 C1.80123731,13.4057741 1.8689192,14.6917301 2.47805625,16.2484137 C2.54573814,16.5191413 2.41037437,16.7898689 2.20732868,16.9252326 C1.93660111,16.9929145 1.66587351,16.8575508 1.53050974,16.6545051 C1.05673648,15.3685491 0.786008883,14.0825931 0.786008883,12.7289552 C0.786008883,11.5106811 1.05673646,10.4277707 1.46282783,9.4802242 C2.81646574,6.7052665 5.72678722,4.87785533 8.97551818,4.87785533 C13.5102051,4.81017344 17.1650275,8.32963198 17.1650275,12.6612733 C17.1650275,14.2856387 15.7437077,15.6392766 14.1193422,15.6392766 C12.4272949,15.6392766 11.0736569,14.2856387 11.0736569,12.6612733 C11.0736569,11.5783629 10.1261104,10.7661802 8.97551818,10.7661802 C7.82492596,10.7661802 6.87737944,11.6460448 6.87737944,12.6612733 C6.87737944,14.3533206 7.55419839,15.9776861 8.7724725,17.1282783 C9.72001904,18.0758249 10.5998837,18.61728 12.0212035,18.9556895 C12.291931,19.0233714 12.4272948,19.294099 12.3596129,19.5648266 C12.2919311,19.8355541 12.0888854,19.9709179 11.8858397,19.9709179 Z" id="形状"></path>
        </g>
    </g>
</svg>