<svg width="22" height="22" viewBox="0 0 22 22" fill="none" xmlns="http://www.w3.org/2000/svg">
    <path fill-rule="evenodd" clip-rule="evenodd" d="M10.35 20.35C10.35 20.709 10.641 21 11 21C11.359 21 11.65 20.709 11.65 20.35V16.4192L14.3904 19.1596C14.6442 19.4135 15.0558 19.4135 15.3096 19.1596C15.5635 18.9058 15.5635 18.4942 15.3096 18.2404L11.65 14.5808V11.65H14.5808L18.2404 15.3096C18.4942 15.5635 18.9058 15.5635 19.1596 15.3096C19.4135 15.0558 19.4135 14.6442 19.1596 14.3904L16.4192 11.65H20.35C20.709 11.65 21 11.359 21 11C21 10.641 20.709 10.35 20.35 10.35H16.4192L19.1596 7.60962C19.4135 7.35578 19.4135 6.94422 19.1596 6.69038C18.9058 6.43654 18.4942 6.43654 18.2404 6.69038L14.5808 10.35H11.65V7.41924L15.3096 3.75962C15.5635 3.50578 15.5635 3.09422 15.3096 2.84038C15.0558 2.58654 14.6442 2.58654 14.3904 2.84038L11.65 5.58076V1.65C11.65 1.29102 11.359 1 11 1C10.641 1 10.35 1.29102 10.35 1.65V5.58076L7.60962 2.84038C7.35578 2.58654 6.94422 2.58654 6.69038 2.84038C6.43654 3.09422 6.43654 3.50578 6.69038 3.75962L10.35 7.41924V10.35H7.41924L3.75962 6.69038C3.50578 6.43654 3.09422 6.43654 2.84038 6.69038C2.58654 6.94422 2.58654 7.35578 2.84038 7.60962L5.58076 10.35H1.65C1.29101 10.35 1 10.641 1 11C1 11.359 1.29101 11.65 1.65 11.65H5.58076L2.84038 14.3904C2.58654 14.6442 2.58654 15.0558 2.84038 15.3096C3.09422 15.5635 3.50578 15.5635 3.75962 15.3096L7.41924 11.65H10.35V14.5808L6.69038 18.2404C6.43654 18.4942 6.43654 18.9058 6.69038 19.1596C6.94422 19.4135 7.35578 19.4135 7.60962 19.1596L10.35 16.4192V20.35Z" fill="#BAC6C5"/>
    <path d="M11.65 16.4192L11.7207 16.3485L11.55 16.1778V16.4192H11.65ZM14.3904 19.1596L14.4611 19.0889L14.3904 19.1596ZM15.3096 19.1596L15.2389 19.0889H15.2389L15.3096 19.1596ZM15.3096 18.2404L15.2389 18.3111H15.2389L15.3096 18.2404ZM11.65 14.5808H11.55V14.6222L11.5793 14.6515L11.65 14.5808ZM11.65 11.65V11.55H11.55V11.65H11.65ZM14.5808 11.65L14.6515 11.5793L14.6222 11.55H14.5808V11.65ZM19.1596 15.3096L19.0889 15.2389L19.1596 15.3096ZM19.1596 14.3904L19.0889 14.4611L19.1596 14.3904ZM16.4192 11.65V11.55H16.1778L16.3485 11.7207L16.4192 11.65ZM16.4192 10.35L16.3485 10.2793L16.1778 10.45H16.4192V10.35ZM19.1596 7.60962L19.0889 7.53891L19.1596 7.60962ZM19.1596 6.69038L19.2303 6.61967L19.1596 6.69038ZM18.2404 6.69038L18.1697 6.61967L18.2404 6.69038ZM14.5808 10.35V10.45H14.6222L14.6515 10.4207L14.5808 10.35ZM11.65 10.35H11.55V10.45H11.65V10.35ZM11.65 7.41924L11.5793 7.34853L11.55 7.37782V7.41924H11.65ZM15.3096 3.75962L15.2389 3.68891H15.2389L15.3096 3.75962ZM15.3096 2.84038L15.2389 2.91109L15.2389 2.91109L15.3096 2.84038ZM14.3904 2.84038L14.4611 2.91109L14.3904 2.84038ZM11.65 5.58076H11.55V5.82218L11.7207 5.65147L11.65 5.58076ZM10.35 5.58076L10.2793 5.65147L10.45 5.82218V5.58076H10.35ZM6.69038 2.84038L6.61967 2.76967L6.69038 2.84038ZM6.69038 3.75962L6.61967 3.83033L6.69038 3.75962ZM10.35 7.41924H10.45V7.37782L10.4207 7.34853L10.35 7.41924ZM10.35 10.35V10.45H10.45V10.35H10.35ZM7.41924 10.35L7.34853 10.4207L7.37782 10.45H7.41924V10.35ZM3.75962 6.69038L3.83033 6.61967L3.75962 6.69038ZM2.84038 6.69038L2.76967 6.61967H2.76967L2.84038 6.69038ZM2.84038 7.60962L2.91109 7.53891L2.84038 7.60962ZM5.58076 10.35V10.45H5.82218L5.65147 10.2793L5.58076 10.35ZM5.58076 11.65L5.65147 11.7207L5.82218 11.55H5.58076V11.65ZM2.84038 14.3904L2.91109 14.4611L2.84038 14.3904ZM2.84038 15.3096L2.91109 15.2389L2.91109 15.2389L2.84038 15.3096ZM3.75962 15.3096L3.68891 15.2389V15.2389L3.75962 15.3096ZM7.41924 11.65V11.55H7.37782L7.34853 11.5793L7.41924 11.65ZM10.35 11.65H10.45V11.55H10.35V11.65ZM10.35 14.5808L10.4207 14.6515L10.45 14.6222V14.5808H10.35ZM6.69038 18.2404L6.76109 18.3111L6.69038 18.2404ZM6.69038 19.1596L6.76109 19.0889L6.69038 19.1596ZM7.60962 19.1596L7.53891 19.0889L7.60962 19.1596ZM10.35 16.4192H10.45V16.1778L10.2793 16.3485L10.35 16.4192ZM11 20.9C10.6962 20.9 10.45 20.6538 10.45 20.35H10.25C10.25 20.7642 10.5858 21.1 11 21.1V20.9ZM11.55 20.35C11.55 20.6538 11.3038 20.9 11 20.9V21.1C11.4142 21.1 11.75 20.7642 11.75 20.35H11.55ZM11.55 16.4192V20.35H11.75V16.4192H11.55ZM14.4611 19.0889L11.7207 16.3485L11.5793 16.4899L14.3197 19.2303L14.4611 19.0889ZM15.2389 19.0889C15.0241 19.3037 14.6759 19.3037 14.4611 19.0889L14.3197 19.2303C14.6126 19.5232 15.0874 19.5232 15.3803 19.2303L15.2389 19.0889ZM15.2389 18.3111C15.4537 18.5259 15.4537 18.8741 15.2389 19.0889L15.3803 19.2303C15.6732 18.9374 15.6732 18.4626 15.3803 18.1697L15.2389 18.3111ZM11.5793 14.6515L15.2389 18.3111L15.3803 18.1697L11.7207 14.51L11.5793 14.6515ZM11.55 11.65V14.5808H11.75V11.65H11.55ZM11.65 11.75H14.5808V11.55H11.65V11.75ZM14.5101 11.7207L18.1697 15.3803L18.3111 15.2389L14.6515 11.5793L14.5101 11.7207ZM18.1697 15.3803C18.4626 15.6732 18.9374 15.6732 19.2303 15.3803L19.0889 15.2389C18.8741 15.4537 18.5259 15.4537 18.3111 15.2389L18.1697 15.3803ZM19.2303 15.3803C19.5232 15.0874 19.5232 14.6126 19.2303 14.3197L19.0889 14.4611C19.3037 14.6759 19.3037 15.0241 19.0889 15.2389L19.2303 15.3803ZM19.2303 14.3197L16.49 11.5793L16.3485 11.7207L19.0889 14.4611L19.2303 14.3197ZM16.4192 11.75H20.35V11.55H16.4192V11.75ZM20.35 11.75C20.7642 11.75 21.1 11.4142 21.1 11H20.9C20.9 11.3038 20.6538 11.55 20.35 11.55V11.75ZM21.1 11C21.1 10.5858 20.7642 10.25 20.35 10.25V10.45C20.6538 10.45 20.9 10.6962 20.9 11H21.1ZM20.35 10.25H16.4192V10.45H20.35V10.25ZM16.49 10.4207L19.2303 7.68033L19.0889 7.53891L16.3485 10.2793L16.49 10.4207ZM19.2303 7.68033C19.5232 7.38744 19.5232 6.91256 19.2303 6.61967L19.0889 6.76109C19.3037 6.97588 19.3037 7.32412 19.0889 7.53891L19.2303 7.68033ZM19.2303 6.61967C18.9374 6.32678 18.4626 6.32678 18.1697 6.61967L18.3111 6.76109C18.5259 6.5463 18.8741 6.5463 19.0889 6.76109L19.2303 6.61967ZM18.1697 6.61967L14.5101 10.2793L14.6515 10.4207L18.3111 6.76109L18.1697 6.61967ZM14.5808 10.25H11.65V10.45H14.5808V10.25ZM11.55 7.41924V10.35H11.75V7.41924H11.55ZM15.2389 3.68891L11.5793 7.34853L11.7207 7.48995L15.3803 3.83033L15.2389 3.68891ZM15.2389 2.91109C15.4537 3.12588 15.4537 3.47412 15.2389 3.68891L15.3803 3.83033C15.6732 3.53744 15.6732 3.06256 15.3803 2.76967L15.2389 2.91109ZM14.4611 2.91109C14.6759 2.6963 15.0241 2.6963 15.2389 2.91109L15.3803 2.76967C15.0874 2.47678 14.6126 2.47678 14.3197 2.76967L14.4611 2.91109ZM11.7207 5.65147L14.4611 2.91109L14.3197 2.76967L11.5793 5.51005L11.7207 5.65147ZM11.55 1.65V5.58076H11.75V1.65H11.55ZM11 1.1C11.3038 1.1 11.55 1.34624 11.55 1.65H11.75C11.75 1.23579 11.4142 0.9 11 0.9V1.1ZM10.45 1.65C10.45 1.34624 10.6962 1.1 11 1.1V0.9C10.5858 0.9 10.25 1.23579 10.25 1.65H10.45ZM10.45 5.58076V1.65H10.25V5.58076H10.45ZM7.53891 2.91109L10.2793 5.65147L10.4207 5.51005L7.68033 2.76967L7.53891 2.91109ZM6.76109 2.91109C6.97588 2.6963 7.32412 2.6963 7.53891 2.91109L7.68033 2.76967C7.38744 2.47678 6.91256 2.47678 6.61967 2.76967L6.76109 2.91109ZM6.76109 3.68891C6.5463 3.47412 6.5463 3.12588 6.76109 2.91109L6.61967 2.76967C6.32678 3.06256 6.32678 3.53744 6.61967 3.83033L6.76109 3.68891ZM10.4207 7.34853L6.76109 3.68891L6.61967 3.83033L10.2793 7.48995L10.4207 7.34853ZM10.45 10.35V7.41924H10.25V10.35H10.45ZM10.35 10.25H7.41924V10.45H10.35V10.25ZM7.48995 10.2793L3.83033 6.61967L3.68891 6.76109L7.34853 10.4207L7.48995 10.2793ZM3.83033 6.61967C3.53744 6.32678 3.06256 6.32678 2.76967 6.61967L2.91109 6.76109C3.12588 6.5463 3.47412 6.5463 3.68891 6.76109L3.83033 6.61967ZM2.76967 6.61967C2.47678 6.91256 2.47678 7.38744 2.76967 7.68033L2.91109 7.53891C2.6963 7.32412 2.6963 6.97588 2.91109 6.76109L2.76967 6.61967ZM2.76967 7.68033L5.51005 10.4207L5.65147 10.2793L2.91109 7.53891L2.76967 7.68033ZM5.58076 10.25H1.65V10.45H5.58076V10.25ZM1.65 10.25C1.23579 10.25 0.9 10.5858 0.9 11H1.1C1.1 10.6962 1.34624 10.45 1.65 10.45V10.25ZM0.9 11C0.9 11.4142 1.23579 11.75 1.65 11.75V11.55C1.34624 11.55 1.1 11.3038 1.1 11H0.9ZM1.65 11.75H5.58076V11.55H1.65V11.75ZM5.51005 11.5793L2.76967 14.3197L2.91109 14.4611L5.65147 11.7207L5.51005 11.5793ZM2.76967 14.3197C2.47678 14.6126 2.47678 15.0874 2.76967 15.3803L2.91109 15.2389C2.6963 15.0241 2.6963 14.6759 2.91109 14.4611L2.76967 14.3197ZM2.76967 15.3803C3.06256 15.6732 3.53744 15.6732 3.83033 15.3803L3.68891 15.2389C3.47412 15.4537 3.12588 15.4537 2.91109 15.2389L2.76967 15.3803ZM3.83033 15.3803L7.48995 11.7207L7.34853 11.5793L3.68891 15.2389L3.83033 15.3803ZM7.41924 11.75H10.35V11.55H7.41924V11.75ZM10.45 14.5808V11.65H10.25V14.5808H10.45ZM6.76109 18.3111L10.4207 14.6515L10.2793 14.51L6.61967 18.1697L6.76109 18.3111ZM6.76109 19.0889C6.5463 18.8741 6.5463 18.5259 6.76109 18.3111L6.61967 18.1697C6.32678 18.4626 6.32678 18.9374 6.61967 19.2303L6.76109 19.0889ZM7.53891 19.0889C7.32412 19.3037 6.97588 19.3037 6.76109 19.0889L6.61967 19.2303C6.91256 19.5232 7.38744 19.5232 7.68033 19.2303L7.53891 19.0889ZM10.2793 16.3485L7.53891 19.0889L7.68033 19.2303L10.4207 16.4899L10.2793 16.3485ZM10.45 20.35V16.4192H10.25V20.35H10.45Z" fill="#BAC6C5"/>
</svg>