<svg width="22" height="22" viewBox="0 0 22 22" fill="none" xmlns="http://www.w3.org/2000/svg">
    <path d="M10.9988 1.5C15.652 1.5 19.7196 4.9596 20.4883 9.49332C20.5076 9.60717 20.4981 9.72402 20.4609 9.83331C20.4236 9.9426 20.3598 10.0409 20.275 10.1193C20.1902 10.1977 20.0873 10.2538 19.9754 10.2824C19.8636 10.3111 19.7463 10.3114 19.6343 10.2834L15.9273 9.35662C15.7508 9.30973 15.5999 9.19528 15.5071 9.03802C15.4144 8.88076 15.3872 8.6933 15.4315 8.51617C15.4758 8.33905 15.588 8.18647 15.7439 8.09141C15.8998 7.99636 16.0869 7.96646 16.2646 8.00818L18.8582 8.65599C17.8132 5.3734 14.6915 2.96289 11.1596 2.89153L10.9988 2.89014C6.97987 2.89014 3.58375 5.83261 2.98321 9.76393C2.95537 9.94619 2.85628 10.1099 2.70772 10.2191C2.55916 10.3283 2.37332 10.374 2.19106 10.3462C2.00881 10.3183 1.84507 10.2192 1.73588 10.0707C1.62669 9.92212 1.58099 9.73628 1.60882 9.55402C2.31316 4.94616 6.29082 1.5 10.9988 1.5ZM10.9988 20.4995C6.34596 20.4995 2.27794 17.0399 1.50966 12.5062C1.48937 12.3858 1.50116 12.2622 1.54384 12.1478C1.58652 12.0334 1.65857 11.9323 1.75276 11.8546C1.84695 11.7769 1.95994 11.7254 2.08036 11.7052C2.20078 11.6851 2.32439 11.697 2.43874 11.7398L6.14578 13.1299C6.31682 13.1958 6.45492 13.3265 6.53004 13.4937C6.60516 13.6609 6.61121 13.8509 6.54688 14.0226C6.48254 14.1942 6.35304 14.3334 6.18654 14.41C6.02004 14.4866 5.83002 14.4944 5.65784 14.4316L3.19405 13.5076L3.24085 13.6415C4.37428 16.7702 7.41359 19.039 10.8384 19.108L10.9992 19.1094C14.975 19.1094 18.3466 16.2286 18.9963 12.351C19.0267 12.1692 19.1282 12.0069 19.2783 11.8999C19.4284 11.7929 19.6149 11.7499 19.7967 11.7803C19.9786 11.8108 20.1408 11.9123 20.2479 12.0624C20.3549 12.2125 20.3979 12.399 20.3674 12.5808C19.6061 17.1257 15.6567 20.5 10.9992 20.5L10.9988 20.4995Z" fill="white" stroke="white" stroke-width="0.2"/>
</svg>
