<?xml version="1.0" encoding="UTF-8"?>
<svg width="16px" height="16px" viewBox="0 0 16 16" version="1.1" xmlns="http://www.w3.org/2000/svg">
    <title>成功</title>
    <g id="uniswap" stroke="none" stroke-width="1" fill="none" fill-rule="evenodd">
        <g id="切图" transform="translate(-84.000000, -539.000000)">
            <g id="编组-8" transform="translate(84.000000, 539.000000)">
                <circle id="Oval-2" fill="#00BFAF" cx="8" cy="8" r="8"></circle>
                <path d="M6.76344596,11.2005192 C6.50522374,11.1686304 6.25944596,11.0387415 6.08755708,10.8170748 L4.10966819,8.26674147 C3.90822374,8.00774147 3.95566819,7.63440813 4.21466819,7.43296369 L4.87422374,6.92196369 C5.13322374,6.72051924 5.50655708,6.76796369 5.70722374,7.02696369 L7.0667793,8.7800748 L11.3398904,5.48074147 C11.5988904,5.2800748 11.9722237,5.32751924 12.1728904,5.58651924 L12.6823349,6.24685258 C12.8830015,6.50663035 12.8355571,6.87918591 12.5757793,7.07985258 L7.50466819,10.9967415 C7.28533485,11.1670748 7.01855708,11.2316304 6.76344596,11.2005192" id="Fill-1" fill="#FEFEFE" transform="translate(8.395661, 8.282276) rotate(-5.000000) translate(-8.395661, -8.282276) "></path>
            </g>
        </g>
    </g>
</svg>