<svg width="23" height="23" viewBox="0 0 23 23" fill="none" xmlns="http://www.w3.org/2000/svg">
<path fill-rule="evenodd" clip-rule="evenodd" d="M11.75 1C12.2628 1 12.6855 1.38604 12.7433 1.88338L12.75 2L12.7508 3.31068C16.47 3.76507 19.374 6.71782 19.496 10.3501L19.5 10.5882V17.25H20.75C21.1642 17.25 21.5 17.5858 21.5 18C21.5 18.3797 21.2178 18.6935 20.8518 18.7432L20.75 18.75H2.75C2.33579 18.75 2 18.4142 2 18C2 17.6203 2.28215 17.3065 2.64823 17.2568L2.75 17.25H4V10.5882C4 6.84725 6.94949 3.77451 10.7501 3.31058L10.75 2C10.75 1.44772 11.1977 1 11.75 1ZM13.75 20.75C14.1642 20.75 14.5 21.0858 14.5 21.5C14.5 21.8797 14.2178 22.1935 13.8518 22.2432L13.75 22.25H9.75C9.33579 22.25 9 21.9142 9 21.5C9 21.1203 9.28215 20.8065 9.64823 20.7568L9.75 20.75H13.75ZM5.5043 10.37C5.62709 7.25644 8.36707 4.75 11.75 4.75C15.2116 4.75 18 7.37437 18 10.5882V17.25H5.5V10.5882L5.5043 10.37Z" fill="black"/>
</svg>
