
<svg width="36" height="36" viewBox="0 0 36 36" fill="none" xmlns="http://www.w3.org/2000/svg">
    <path d="M31.4638 4.0498L19.6378 12.7978L21.8428 7.6408L31.4638 4.0498Z" fill="#E17726" stroke="#E17726" stroke-width="0.25" stroke-linecap="round" stroke-linejoin="round"/>
    <path d="M4.19399 4.0498L15.912 12.8698L13.815 7.6498L4.19399 4.0498ZM27.207 24.3268L24.057 29.1328L30.798 30.9868L32.724 24.4348L27.207 24.3268ZM2.94299 24.4348L4.85999 30.9868L11.583 29.1328L8.45099 24.3268L2.94299 24.4348Z" fill="#E27625" stroke="#E27625" stroke-width="0.25" stroke-linecap="round" stroke-linejoin="round"/>
    <path d="M11.2231 16.2091L9.35107 19.0351L16.0111 19.3411L15.7951 12.1681L11.2231 16.2181V16.2091ZM24.4351 16.2181L19.7911 12.0781L19.6381 19.3411L26.2981 19.0351L24.4351 16.2181ZM11.5831 29.1331L15.6241 27.1891L12.1501 24.4891L11.5831 29.1331ZM20.0431 27.1801L24.0571 29.1331L23.5171 24.4801L20.0431 27.1801Z" fill="#E27625" stroke="#E27625" stroke-width="0.25" stroke-linecap="round" stroke-linejoin="round"/>
    <path d="M24.0571 29.1325L20.0431 27.1885L20.3671 29.7985L20.3311 30.9055L24.0571 29.1325ZM11.5831 29.1325L15.3271 30.9055L15.3001 29.7985L15.6241 27.1885L11.5831 29.1325Z" fill="#D5BFB2" stroke="#D5BFB2" stroke-width="0.25" stroke-linecap="round" stroke-linejoin="round"/>
    <path d="M15.3899 22.7524L12.0599 21.7804L14.4179 20.7004L15.3989 22.7524H15.3899ZM20.2589 22.7524L21.2489 20.6914L23.6159 21.7714L20.2589 22.7614V22.7524Z" fill="#233447" stroke="#233447" stroke-width="0.25" stroke-linecap="round" stroke-linejoin="round"/>
    <path d="M11.5832 29.1341L12.1682 24.3281L8.45117 24.4361L11.5832 29.1341ZM23.4902 24.3281L24.0572 29.1341L27.2072 24.4361L23.4902 24.3281ZM26.3072 19.0361L19.6472 19.3421L20.2592 22.7621L21.2492 20.6921L23.6162 21.7721L26.3072 19.0361ZM12.0602 21.7811L14.4182 20.7011L15.3992 22.7531L16.0202 19.3331L9.36017 19.0361L12.0602 21.7811Z" fill="#CC6228" stroke="#CC6228" stroke-width="0.25" stroke-linecap="round" stroke-linejoin="round"/>
    <path d="M9.35986 19.0361L12.1499 24.4811L12.0599 21.7811L9.35986 19.0361ZM23.6159 21.7811L23.5079 24.4811L26.2979 19.0361L23.6159 21.7811ZM16.0199 19.3421L15.3899 22.7621L16.1819 26.7941L16.3619 21.4751L16.0199 19.3421ZM19.6379 19.3421L19.3139 21.4661L19.4759 26.7941L20.2589 22.7531L19.6379 19.3331V19.3421Z" fill="#E27525" stroke="#E27525" stroke-width="0.25" stroke-linecap="round" stroke-linejoin="round"/>
    <path d="M20.2591 22.7523L19.4761 26.7933L20.0431 27.1893L23.5081 24.4893L23.6161 21.7803L20.2591 22.7523ZM12.0601 21.7803L12.1501 24.4803L15.6241 27.1803L16.1821 26.7933L15.3991 22.7523L12.0511 21.7803H12.0601Z" fill="#F5841F" stroke="#F5841F" stroke-width="0.25" stroke-linecap="round" stroke-linejoin="round"/>
    <path d="M20.3401 30.9058L20.3671 29.7988L20.0611 29.5468H15.5971L15.3001 29.7988L15.3271 30.9058L11.5831 29.1328L12.8971 30.2128L15.5521 32.0398H20.0971L22.7611 30.2038L24.0571 29.1328L20.3311 30.9058H20.3401Z" fill="#C0AC9D" stroke="#C0AC9D" stroke-width="0.25" stroke-linecap="round" stroke-linejoin="round"/>
    <path d="M20.043 27.18L19.476 26.793H16.182L15.624 27.189L15.3 29.799L15.597 29.547H20.061L20.367 29.799L20.043 27.189V27.18Z" fill="#161616" stroke="#161616" stroke-width="0.25" stroke-linecap="round" stroke-linejoin="round"/>
    <path d="M31.968 13.3648L32.9579 8.5498L31.4639 4.0498L20.034 12.5098L24.4349 16.2088L30.6449 18.0178L32.013 16.4248L31.419 15.9928L32.3639 15.1288L31.6439 14.5708L32.5889 13.8508L31.9589 13.3648H31.968ZM2.69995 8.5408L3.70795 13.3648L3.05995 13.8418L4.02295 14.5618L3.30295 15.1288L4.23895 15.9928L3.64495 16.4248L5.01295 18.0178L11.223 16.2178L15.624 12.5008L4.19395 4.0498L2.69995 8.5408Z" fill="#763E1A" stroke="#763E1A" stroke-width="0.25" stroke-linecap="round" stroke-linejoin="round"/>
    <path d="M30.645 18.0176L24.435 16.2176L26.307 19.0346L23.517 24.4796L27.207 24.4346H32.724L30.645 18.0176ZM11.223 16.2086L5.01299 18.0176L2.94299 24.4346H8.45999L12.15 24.4796L9.35999 19.0346L11.232 16.2086H11.223ZM19.638 19.3406L20.043 12.5006L21.843 7.64062H13.815L15.615 12.5006L16.02 19.3406L16.173 21.4826V26.7926H19.476L19.494 21.4826L19.638 19.3406Z" fill="#F5841F" stroke="#F5841F" stroke-width="0.25" stroke-linecap="round" stroke-linejoin="round"/>
</svg>
