<svg width="30" height="30" viewBox="0 0 30 30" fill="none" xmlns="http://www.w3.org/2000/svg">
<path d="M26.2199 3.37451L16.3649 10.6645L18.2024 6.36701L26.2199 3.37451Z" fill="#E17726" stroke="#E17726" stroke-width="0.25" stroke-linecap="round" stroke-linejoin="round"/>
<path d="M3.49505 3.37451L13.26 10.7245L11.5125 6.37451L3.49505 3.37451ZM22.6725 20.272L20.0475 24.277L25.665 25.822L27.27 20.362L22.6725 20.272ZM2.45255 20.362L4.05005 25.822L9.65255 24.277L7.04255 20.272L2.45255 20.362Z" fill="#E27625" stroke="#E27625" stroke-width="0.25" stroke-linecap="round" stroke-linejoin="round"/>
<path d="M9.35262 13.507L7.79262 15.862L13.3426 16.117L13.1626 10.1395L9.35262 13.5145V13.507ZM20.3626 13.5145L16.4926 10.0645L16.3651 16.117L21.9151 15.862L20.3626 13.5145ZM9.65262 24.277L13.0201 22.657L10.1251 20.407L9.65262 24.277ZM16.7026 22.6495L20.0476 24.277L19.5976 20.3995L16.7026 22.6495Z" fill="#E27625" stroke="#E27625" stroke-width="0.25" stroke-linecap="round" stroke-linejoin="round"/>
<path d="M20.0476 24.2772L16.7026 22.6572L16.9726 24.8322L16.9426 25.7547L20.0476 24.2772ZM9.6526 24.2772L12.7726 25.7547L12.7501 24.8322L13.0201 22.6572L9.6526 24.2772Z" fill="#D5BFB2" stroke="#D5BFB2" stroke-width="0.25" stroke-linecap="round" stroke-linejoin="round"/>
<path d="M12.8249 18.9597L10.0499 18.1497L12.0149 17.2497L12.8324 18.9597H12.8249ZM16.8824 18.9597L17.7074 17.2422L19.6799 18.1422L16.8824 18.9672V18.9597Z" fill="#233447" stroke="#233447" stroke-width="0.25" stroke-linecap="round" stroke-linejoin="round"/>
<path d="M9.6526 24.2773L10.1401 20.2723L7.0426 20.3623L9.6526 24.2773ZM19.5751 20.2723L20.0476 24.2773L22.6726 20.3623L19.5751 20.2723ZM21.9226 15.8623L16.3726 16.1173L16.8826 18.9673L17.7076 17.2423L19.6801 18.1423L21.9226 15.8623ZM10.0501 18.1498L12.0151 17.2498L12.8326 18.9598L13.3501 16.1098L7.8001 15.8623L10.0501 18.1498Z" fill="#CC6228" stroke="#CC6228" stroke-width="0.25" stroke-linecap="round" stroke-linejoin="round"/>
<path d="M7.79994 15.8623L10.1249 20.3998L10.0499 18.1498L7.79994 15.8623ZM19.6799 18.1498L19.5899 20.3998L21.9149 15.8623L19.6799 18.1498ZM13.3499 16.1173L12.8249 18.9673L13.4849 22.3273L13.6349 17.8948L13.3499 16.1173ZM16.3649 16.1173L16.0949 17.8873L16.2299 22.3273L16.8824 18.9598L16.3649 16.1098V16.1173Z" fill="#E27525" stroke="#E27525" stroke-width="0.25" stroke-linecap="round" stroke-linejoin="round"/>
<path d="M16.8826 18.9594L16.2301 22.3269L16.7026 22.6569L19.5901 20.4069L19.6801 18.1494L16.8826 18.9594ZM10.0501 18.1494L10.1251 20.3994L13.0201 22.6494L13.4851 22.3269L12.8326 18.9594L10.0426 18.1494H10.0501Z" fill="#F5841F" stroke="#F5841F" stroke-width="0.25" stroke-linecap="round" stroke-linejoin="round"/>
<path d="M16.9501 25.7544L16.9726 24.8319L16.7176 24.6219H12.9976L12.7501 24.8319L12.7726 25.7544L9.6526 24.2769L10.7476 25.1769L12.9601 26.6994H16.7476L18.9676 25.1694L20.0476 24.2769L16.9426 25.7544H16.9501Z" fill="#C0AC9D" stroke="#C0AC9D" stroke-width="0.25" stroke-linecap="round" stroke-linejoin="round"/>
<path d="M16.7025 22.6492L16.23 22.3267H13.485L13.02 22.6567L12.75 24.8317L12.9975 24.6217H16.7175L16.9725 24.8317L16.7025 22.6567V22.6492Z" fill="#161616" stroke="#161616" stroke-width="0.25" stroke-linecap="round" stroke-linejoin="round"/>
<path d="M26.64 11.137L27.465 7.12451L26.22 3.37451L16.695 10.4245L20.3625 13.507L25.5375 15.0145L26.6775 13.687L26.1825 13.327L26.97 12.607L26.37 12.142L27.1575 11.542L26.6325 11.137H26.64ZM2.25002 7.11701L3.09002 11.137L2.55002 11.5345L3.35252 12.1345L2.75252 12.607L3.53252 13.327L3.03752 13.687L4.17752 15.0145L9.35252 13.5145L13.02 10.417L3.49502 3.37451L2.25002 7.11701Z" fill="#763E1A" stroke="#763E1A" stroke-width="0.25" stroke-linecap="round" stroke-linejoin="round"/>
<path d="M25.5375 15.0147L20.3625 13.5147L21.9225 15.8622L19.5975 20.3997L22.6725 20.3622H27.27L25.5375 15.0147ZM9.35255 13.5072L4.17755 15.0147L2.45255 20.3622H7.05005L10.125 20.3997L7.80005 15.8622L9.36004 13.5072H9.35255ZM16.365 16.1172L16.7025 10.4172L18.2025 6.36719H11.5125L13.0125 10.4172L13.35 16.1172L13.4775 17.9022V22.3272H16.23L16.245 17.9022L16.365 16.1172Z" fill="#F5841F" stroke="#F5841F" stroke-width="0.25" stroke-linecap="round" stroke-linejoin="round"/>
</svg>
