<svg width="50" height="50" viewBox="0 0 50 50" fill="none" xmlns="http://www.w3.org/2000/svg">
    <rect width="50" height="50" rx="8" fill="#F7F7F7" />
    <path
        d="M18.333 34.8887H30.6663C31.2186 34.8887 31.6663 34.441 31.6663 33.8887V15.9998H20.333C19.2284 15.9998 18.333 16.8952 18.333 17.9998V29.3332"
        stroke="#8E9998" stroke-width="1.5" />
    <path
        d="M31.667 15.9998H33.0003C34.1049 15.9998 35.0003 16.8952 35.0003 17.9998V21.6665C35.0003 22.2188 34.5526 22.6665 34.0003 22.6665H31.667V15.9998Z"
        stroke="#8E9998" stroke-width="1.5" />
    <path
        d="M26.6389 29.3329H16C15.4477 29.3329 15 29.7806 15 30.3329V31.5551C15 33.3961 16.3058 34.8884 17.9167 34.8884H30.5556C28.9447 34.8884 27.6389 33.3961 27.6389 31.5551V30.3329C27.6389 29.7806 27.1912 29.3329 26.6389 29.3329Z"
        stroke="#8E9998" stroke-width="1.5" />
    <path d="M21.6665 21.5555H28.3332" stroke="#8E9998" stroke-width="1.5" stroke-linecap="round" />
    <path d="M21.6665 24.8891H28.3332" stroke="#8E9998" stroke-width="1.5" stroke-linecap="round" />
</svg>