<?xml version="1.0" encoding="UTF-8"?>
<svg width="20px" height="20px" viewBox="0 0 20 20" version="1.1" xmlns="http://www.w3.org/2000/svg" xmlns:xlink="http://www.w3.org/1999/xlink">
    <title>记录-22</title>
    <g id="NFT" stroke="none" stroke-width="1" fill="none" fill-rule="evenodd">
        <g id="NFT-切图" transform="translate(-57.000000, -86.000000)" stroke="#00BFAF">
            <g id="编组-5" transform="translate(58.500000, 87.500000)">
                <rect id="矩形" stroke-width="2" x="1" y="1" width="15" height="15" rx="3"></rect>
                <path d="M8.73611111,11.05 C9.07515258,11.05 9.35,11.3671316 9.35,11.7583333 C9.35,12.1139712 9.12285337,12.4083942 8.82682711,12.4589865 L8.73611111,12.4666667 L4.95833333,12.4666667 C4.61929186,12.4666667 4.34444444,12.149535 4.34444444,11.7583333 C4.34444444,11.4026954 4.57159107,11.1082724 4.86761733,11.0576802 L4.95833333,11.05 L8.73611111,11.05 Z M11.7833049,7.83888889 C12.1223463,7.83888889 12.3971937,8.15602052 12.3971937,8.54722222 C12.3971937,8.90286013 12.1700471,9.19728311 11.8740209,9.2478754 L11.7833049,9.25555556 L4.95833333,9.25555556 C4.61929186,9.25555556 4.34444444,8.93842392 4.34444444,8.54722222 C4.34444444,8.19158432 4.57159107,7.89716134 4.86761733,7.84656904 L4.95833333,7.83888889 L11.7833049,7.83888889 Z M11.7833049,4.53333333 C12.1223463,4.53333333 12.3971937,4.85046497 12.3971937,5.24166667 C12.3971937,5.59730457 12.1700471,5.89172755 11.8740209,5.94231985 L11.7833049,5.95 L4.95833333,5.95 C4.61929186,5.95 4.34444444,5.63286836 4.34444444,5.24166667 C4.34444444,4.88602876 4.57159107,4.59160578 4.86761733,4.54101349 L4.95833333,4.53333333 L11.7833049,4.53333333 Z" id="形状结合" stroke-width="0.4" fill="#00BFAF" fill-rule="nonzero"></path>
            </g>
        </g>
    </g>
</svg>