<svg width="14" height="10" viewBox="0 0 14 10" version="1.1" xmlns="http://www.w3.org/2000/svg" xmlns:xlink="http://www.w3.org/1999/xlink">
    <!-- Generator: Sketch 54 (76480) - https://sketchapp.com -->
    <desc>Created with Sketch.</desc>
    <g id="主页面" stroke="none" stroke-width="1" fill="none" fill-rule="evenodd">
        <g fill="#303033">
            <path d="M9.02625105,3.81582677 C9.02625105,4.46389764 8.50461925,4.98984252 7.8611855,4.98984252 C7.21743933,4.98984252 6.69606137,4.46389764 6.69606137,3.81582677 C6.69606137,3.16767717 7.21743933,2.64179134 7.8611855,2.64179134 C7.86438773,2.64179134 7.86758996,2.64194882 7.87079219,2.64202756 C7.59682566,2.5392126 7.30034589,2.48293307 6.99074477,2.48293307 C5.60206974,2.48293307 4.47621199,3.61336614 4.47621199,5.00822835 C4.47621199,6.40324803 5.60206974,7.5336811 6.99074477,7.5336811 C8.37945886,7.5336811 9.50523849,6.40324803 9.50523849,5.00822835 C9.50523849,4.41875984 9.30425941,3.87649606 8.96714644,3.44688976 C9.00633473,3.56584646 9.02632915,3.69041339 9.02625105,3.81582677 M6.99047141,8.98129921 C4.35981869,8.98129921 2.09498187,7.34098425 1.03434031,4.97316929 C2.09498187,2.62311024 4.35981869,0.994704724 6.99047141,0.994704724 C9.62139749,0.994704724 11.8862538,2.62311024 12.9472078,4.97316929 C11.8862538,7.34098425 9.62139749,8.98129921 6.99047141,8.98129921 M13.9814505,4.97023622 L13.979166,4.97023622 C12.8581897,2.05677165 10.153788,1.09245946e-13 6.99047141,1.09245946e-13 C3.82756485,1.09245946e-13 1.12304603,2.05677165 0.0019916318,4.97023622 L3.8191672e-14,4.97023622 C0.000312412831,4.97147638 0.000507670851,4.97240157 0.00115202232,4.97316929 C0.000507670851,4.97409449 0.000312412831,4.97494094 3.8191672e-14,4.97576772 L0.0019916318,4.97576772 C1.12304603,7.91224409 3.8273696,9.98438976 6.99047141,9.98438976 C10.1538661,9.98438976 12.8581897,7.91224409 13.979166,4.97576772 L13.9814505,4.97576772 C13.9810014,4.975 13.9806109,4.97409449 13.980318,4.97316929 C13.9805328,4.97240157 13.9809233,4.97147638 13.9814505,4.97023622" id="Fill-1"></path>
        </g>
    </g>
</svg>