<svg width="36" height="36" viewBox="0 0 36 36" fill="none" xmlns="http://www.w3.org/2000/svg">
    <defs>
        <linearGradient id="paint0_linear_10618_23006" x1="-4.18509" y1="25.855" x2="20.3277" y2="41.6395"
            gradientUnits="userSpaceOnUse">
            <stop stop-color="#8EFFF6" />
            <stop offset="1" stop-color="#08CABA" />
        </linearGradient>
        <linearGradient id="paint1_linear_10618_23006" x1="-4.18509" y1="10.145" x2="20.3277" y2="-5.63951"
            gradientUnits="userSpaceOnUse">
            <stop stop-color="#48FFF0" />
            <stop offset="1" stop-color="#8EFFF6" />
        </linearGradient>
        <linearGradient id="paint2_linear_10618_23006" x1="16.1685" y1="35.2283" x2="12.3851" y2="12.5318"
            gradientUnits="userSpaceOnUse">
            <stop stop-color="#66FFF2" stop-opacity="0.01" />
            <stop offset="1" stop-color="#21D3C5" />
        </linearGradient>
        <linearGradient id="paint3_linear_10618_23006" x1="-1.4779" y1="16.0714" x2="13.7283" y2="40.4799"
            gradientUnits="userSpaceOnUse">
            <stop stop-color="#64F5E9" />
            <stop offset="1" stop-color="#0CC0B1" />
        </linearGradient>
    </defs>
    <path opacity="0.5" fill-rule="evenodd" clip-rule="evenodd"
        d="M0.872971 18C0.87299 27.459 8.54105 35.1271 18.0001 35.1271C27.4591 35.1271 35.1272 27.459 35.1272 18H0.872971Z"
        fill="url(#paint0_linear_10618_23006)" />
    <path opacity="0.5" fill-rule="evenodd" clip-rule="evenodd"
        d="M0.872971 18C0.872971 18 0.872971 18 0.872971 18C0.872971 8.54094 8.54104 0.872871 18.0001 0.872871C27.4591 0.872871 35.1272 8.54094 35.1272 18L0.872971 18Z"
        fill="url(#paint1_linear_10618_23006)" />
    <path opacity="0.7"
        d="M18.8964 0.896364C28.3425 1.39141 35.5987 9.45029 35.1037 18.8964C34.6086 28.3424 26.5497 35.5987 17.1037 35.1036C16.6743 35.0811 16.3445 34.7148 16.367 34.2855C16.3895 33.8561 16.7558 33.5263 17.1852 33.5488C25.7725 33.9988 33.0987 27.4022 33.5488 18.8149C33.9988 10.2275 27.4022 2.90128 18.8149 2.45124C11.4602 2.0658 5.03055 6.8492 3.0535 13.6252L4.77728 14.4082C4.84054 14.4369 4.89738 14.4781 4.94444 14.5292C5.12836 14.729 5.12587 15.0342 4.94579 15.2308L4.91414 15.2625L2.17811 17.7814L2.18086 17.7351C2.03436 17.8609 1.84112 17.9327 1.63309 17.9218C1.20372 17.8993 0.873889 17.533 0.896391 17.1036C1.39144 7.65756 9.45031 0.401316 18.8964 0.896364Z"
        fill="url(#paint2_linear_10618_23006)" />
    <circle opacity="0.9" cx="18" cy="18" r="12" fill="url(#paint3_linear_10618_23006)" />
    <path fill-rule="evenodd" clip-rule="evenodd"
        d="M17 17.1V11H19V12H21V14H19V17.1C20.7 17.6 22 19.1 22 21C22 23.2 20.2 25 18 25C15.8 25 14 23.2 14 21C14 19.1 15.3 17.6 17 17.1ZM18 23C19.1 23 20 22.1 20 21C20 19.9 19.1 19 18 19C16.9 19 16 19.9 16 21C16 22.1 16.9 23 18 23Z"
        fill="white" />
</svg>