<?xml version="1.0" encoding="UTF-8"?>
<svg width="375px" height="460px" viewBox="0 0 375 460" version="1.1" xmlns="http://www.w3.org/2000/svg" xmlns:xlink="http://www.w3.org/1999/xlink">
    <title>矩形备份 5</title>
    <defs>
        <rect id="path-1" x="0" y="0" width="58" height="58" rx="14"></rect>
        <rect id="path-3" x="0" y="0" width="58" height="58" rx="14"></rect>
        <rect id="path-5" x="0" y="0" width="58" height="58" rx="14"></rect>
        <rect id="path-7" x="0" y="0" width="58" height="58" rx="14"></rect>
        <rect id="path-9" x="0" y="0" width="58" height="58" rx="14"></rect>
        <rect id="path-11" x="0" y="0" width="58" height="58" rx="14"></rect>
        <rect id="path-13" x="0" y="0" width="58" height="58" rx="14"></rect>
        <rect id="path-15" x="0" y="0" width="58" height="58" rx="14"></rect>
        <rect id="path-17" x="0" y="0" width="58" height="58" rx="14"></rect>
        <rect id="path-19" x="0" y="0" width="58" height="58" rx="14"></rect>
    </defs>
    <g id="页面-1" stroke="none" stroke-width="1" fill="none" fill-rule="evenodd">
        <g id="展位图" transform="translate(0.000000, -508.000000)">
            <rect fill="#F7F7F7" x="0" y="0" width="375" height="1000"></rect>
            <rect id="矩形复制-3备份" fill="#FFFFFF" x="1" y="570" width="340" height="80"></rect>
            <rect id="矩形复制-3备份-6" fill="#FFFFFF" x="1" y="729" width="340" height="80"></rect>
            <rect id="矩形复制-3备份-8" fill="#FFFFFF" x="1" y="888" width="340" height="80"></rect>
            <rect id="矩形复制-3备份-5" fill="#FFFFFF" x="1" y="650" width="340" height="80"></rect>
            <line x1="99" y1="649.5" x2="339" y2="649.5" id="直线备份" stroke="#EDEDED" stroke-width="0.5" stroke-linecap="square"></line>
            <line x1="99" y1="729.5" x2="339" y2="729.5" id="直线备份-2" stroke="#EDEDED" stroke-width="0.5" stroke-linecap="square"></line>
            <line x1="94" y1="825.5" x2="334" y2="825.5" id="直线备份" stroke="#EDEDED" stroke-width="0.5" stroke-linecap="square"></line>
            <g id="编组-2" transform="translate(341.000000, 570.000000)">
                <rect id="矩形复制-3备份" fill="#FFFFFF" x="0" y="0" width="290" height="80"></rect>
                <g id="位图备份" transform="translate(15.000000, 11.000000)">
                    <mask id="mask-2" fill="white">
                        <use xlink:href="#path-1"></use>
                    </mask>
                    <rect stroke="#F7F7F7" x="-0.5" y="-0.5" width="59" height="59" rx="14"></rect>
                </g>
            </g>
            <g id="编组-2备份-2" transform="translate(341.000000, 729.000000)">
                <rect id="矩形复制-3备份" fill="#FFFFFF" x="0" y="0" width="290" height="80"></rect>
                <g id="位图备份" transform="translate(15.000000, 11.000000)">
                    <mask id="mask-4" fill="white">
                        <use xlink:href="#path-3"></use>
                    </mask>
                    <rect stroke="#F7F7F7" x="-0.5" y="-0.5" width="59" height="59" rx="14"></rect>
                </g>
            </g>
            <g id="编组-2备份-4" transform="translate(341.000000, 888.000000)">
                <rect id="矩形复制-3备份" fill="#FFFFFF" x="0" y="0" width="290" height="80"></rect>
                <g id="位图备份" transform="translate(15.000000, 11.000000)">
                    <mask id="mask-6" fill="white">
                        <use xlink:href="#path-5"></use>
                    </mask>
                    <rect stroke="#F7F7F7" x="-0.5" y="-0.5" width="59" height="59" rx="14"></rect>
                </g>
            </g>
            <g id="编组-2备份" transform="translate(341.000000, 650.000000)">
                <rect id="矩形复制-3备份" fill="#FFFFFF" x="0" y="0" width="290" height="80"></rect>
                <g id="位图备份" transform="translate(15.000000, 11.000000)">
                    <mask id="mask-8" fill="white">
                        <use xlink:href="#path-7"></use>
                    </mask>
                    <rect stroke="#F7F7F7" x="-0.5" y="-0.5" width="59" height="59" rx="14"></rect>
                </g>
            </g>
            <rect id="矩形" fill="#FFFFFF" x="0" y="450" width="375" height="70"></rect>
            <rect id="矩形" fill="#FFFFFF" x="0" y="520" width="375" height="50"></rect>
            <rect id="矩形备份-2" fill="#FFFFFF" x="0" y="826" width="375" height="60"></rect>
            <text id="理财" font-family="PingFangSC-Medium, PingFang SC" font-size="16" font-weight="400" line-spacing="22" fill="#403D3C">
                <tspan x="15" y="871">理财</tspan>
            </text>
            <g id="编组-5" transform="translate(0.000000, 460.000000)">
                <rect id="矩形" fill="#FFFFFF" x="0" y="3.19744231e-14" width="375" height="48.2758621"></rect>
                <line x1="0" y1="48.1764706" x2="375" y2="48.1764706" id="直线-16复制-4" stroke="#EDEDED" stroke-width="0.5" stroke-linecap="square"></line>
            </g>
            <text id="更多备份" font-family="PingFangSC-Regular, PingFang SC" font-size="14" font-weight="normal" fill="#C7BEBB">
                <tspan x="332" y="870">更多</tspan>
            </text>
            <g id="Uniswap-V2" transform="translate(21.000000, 581.000000)">
                <mask id="mask-10" fill="white">
                    <use xlink:href="#path-9"></use>
                </mask>
                <rect stroke="#F7F7F7" x="-0.5" y="-0.5" width="59" height="59" rx="14"></rect>
            </g>
            <g id="Uniswap-V2备份-4" transform="translate(21.000000, 740.000000)">
                <mask id="mask-12" fill="white">
                    <use xlink:href="#path-11"></use>
                </mask>
                <rect stroke="#F7F7F7" x="-0.5" y="-0.5" width="59" height="59" rx="14"></rect>
            </g>
            <g id="Uniswap-V2备份-6" transform="translate(21.000000, 899.000000)">
                <mask id="mask-14" fill="white">
                    <use xlink:href="#path-13"></use>
                </mask>
                <rect stroke="#F7F7F7" x="-0.5" y="-0.5" width="59" height="59" rx="14"></rect>
            </g>
            <g id="Uniswap-V2备份-3" transform="translate(21.000000, 661.000000)">
                <mask id="mask-16" fill="white">
                    <use xlink:href="#path-15"></use>
                </mask>
                <rect stroke="#F7F7F7" x="-0.5" y="-0.5" width="59" height="59" rx="14"></rect>
            </g>
            <rect id="矩形备份-5" fill="#F7F7F7" x="15" y="532" width="58" height="20"></rect>
            <rect id="矩形" fill="#F7F7F7" x="98" y="584" width="78" height="16"></rect>
            <rect id="矩形备份-6" fill="#F7F7F7" x="98" y="743" width="78" height="16"></rect>
            <rect id="矩形备份-11" fill="#F7F7F7" x="98" y="902" width="78" height="16"></rect>
            <rect id="矩形备份-9" fill="#F7F7F7" x="98" y="664" width="78" height="16"></rect>
            <g id="编组-13" transform="translate(98.000000, 608.000000)" fill="#F7F7F7">
                <rect id="矩形备份" x="0" y="0" width="204" height="10"></rect>
                <rect id="矩形备份-4" x="0" y="17" width="143" height="10"></rect>
            </g>
            <g id="编组-13备份-2" transform="translate(98.000000, 767.000000)" fill="#F7F7F7">
                <rect id="矩形备份" x="0" y="0" width="204" height="10"></rect>
                <rect id="矩形备份-4" x="0" y="17" width="143" height="10"></rect>
            </g>
            <g id="编组-13备份-4" transform="translate(98.000000, 926.000000)" fill="#F7F7F7">
                <rect id="矩形备份" x="0" y="0" width="204" height="10"></rect>
                <rect id="矩形备份-4" x="0" y="17" width="143" height="10"></rect>
            </g>
            <g id="编组-13备份" transform="translate(98.000000, 688.000000)" fill="#F7F7F7">
                <rect id="矩形备份" x="0" y="0" width="204" height="10"></rect>
                <rect id="矩形备份-4" x="0" y="17" width="143" height="10"></rect>
            </g>
            <rect id="矩形复制-3备份-7" fill="#FFFFFF" x="1" y="809" width="340" height="80"></rect>
            <line x1="99" y1="808.5" x2="339" y2="808.5" id="直线备份-3" stroke="#EDEDED" stroke-width="0.5" stroke-linecap="square"></line>
            <g id="编组-2备份-3" transform="translate(341.000000, 809.000000)">
                <rect id="矩形复制-3备份" fill="#FFFFFF" x="0" y="0" width="290" height="80"></rect>
                <g id="位图备份" transform="translate(15.000000, 11.000000)">
                    <mask id="mask-18" fill="white">
                        <use xlink:href="#path-17"></use>
                    </mask>
                    <rect stroke="#F7F7F7" x="-0.5" y="-0.5" width="59" height="59" rx="14"></rect>
                </g>
            </g>
            <line x1="99" y1="888.5" x2="339" y2="888.5" id="直线备份-4" stroke="#EDEDED" stroke-width="0.5" stroke-linecap="square"></line>
            <g id="Uniswap-V2备份-5" transform="translate(21.000000, 820.000000)">
                <mask id="mask-20" fill="white">
                    <use xlink:href="#path-19"></use>
                </mask>
                <rect stroke="#F7F7F7" x="-0.5" y="-0.5" width="59" height="59" rx="14"></rect>
            </g>
            <rect id="矩形备份-10" fill="#F7F7F7" x="98" y="823" width="78" height="16"></rect>
            <g id="编组-13备份-3" transform="translate(98.000000, 847.000000)" fill="#F7F7F7">
                <rect id="矩形备份" x="0" y="0" width="204" height="10"></rect>
                <rect id="矩形备份-4" x="0" y="17" width="143" height="10"></rect>
            </g>
            <line x1="99" y1="967.5" x2="339" y2="967.5" id="直线备份-6" stroke="#EDEDED" stroke-width="0.5" stroke-linecap="square"></line>
        </g>
    </g>
</svg>