<svg width="40" height="40" viewBox="0 0 40 40" fill="none" xmlns="http://www.w3.org/2000/svg">
    <circle cx="20" cy="20" r="20" fill="white" />
    <path fill-rule="evenodd" clip-rule="evenodd"
        d="M19.899 17.795L26.0609 11.6331L28.0812 13.6534L27.0711 14.6635L29.0914 16.6838L27.0711 18.7041L25.0507 16.6838L21.9193 19.8153C23.1315 22.0376 22.9294 24.8661 21.0101 26.7854C18.7878 29.0077 15.1513 29.0077 12.9289 26.7854C10.7066 24.563 10.7066 20.9265 12.9289 18.7041C14.8482 16.7849 17.6766 16.5828 19.899 17.795ZM14.9492 24.7651C16.0604 25.8762 17.8787 25.8762 18.9898 24.7651C20.101 23.6539 20.101 21.8356 18.9898 20.7244C17.8787 19.6133 16.0604 19.6133 14.9492 20.7244C13.8381 21.8356 13.8381 23.6539 14.9492 24.7651Z"
        fill="black" />
</svg>