<svg width="24" height="24" viewBox="0 0 24 24" fill="none" xmlns="http://www.w3.org/2000/svg">
    <path
        d="M3.91058 19.1097C5.88294 21.3325 8.76121 22.7333 11.9667 22.7333C17.9129 22.7333 22.7333 17.9129 22.7333 11.9666C22.7333 6.02035 17.9129 1.19995 11.9667 1.19995C6.0204 1.19995 1.2 6.02035 1.2 11.9666"
        stroke="#00BFAF" stroke-width="1.5" stroke-linecap="round" />
    <path fill-rule="evenodd" clip-rule="evenodd" d="M1.19998 12.1141L4.87366 8.79932L1.19998 12.1141Z" stroke="#00BFAF"
        stroke-width="1.5" stroke-linecap="round" stroke-linejoin="round" />
    <path fill-rule="evenodd" clip-rule="evenodd"
        d="M11.2523 11.1751V6.6001H12.7523V7.3501H14.2523V8.8501H12.7523V11.1751C14.0273 11.5501 15.0023 12.6751 15.0023 14.1001C15.0023 15.7501 13.6523 17.1001 12.0023 17.1001C10.3523 17.1001 9.00227 15.7501 9.00227 14.1001C9.00227 12.6751 9.97727 11.5501 11.2523 11.1751ZM12.0023 15.6001C12.8273 15.6001 13.5023 14.9251 13.5023 14.1001C13.5023 13.2751 12.8273 12.6001 12.0023 12.6001C11.1773 12.6001 10.5023 13.2751 10.5023 14.1001C10.5023 14.9251 11.1773 15.6001 12.0023 15.6001Z"
        fill="#00BFAF" />
</svg>