<svg width="130" height="130" viewBox="0 0 130 130" fill="none" xmlns="http://www.w3.org/2000/svg">
    <defs>
        <linearGradient id="paint0_linear_10775_32212" x1="-15.1128" y1="93.3652" x2="73.4055" y2="150.365"
            gradientUnits="userSpaceOnUse">
            <stop stop-color="#8EFFF6" stop-opacity="0.17" />
            <stop offset="1" stop-color="#0AB8A9" />
        </linearGradient>
        <linearGradient id="paint1_linear_10775_32212" x1="-15.1128" y1="36.6348" x2="73.4055" y2="-20.3649"
            gradientUnits="userSpaceOnUse">
            <stop stop-color="#2CEEDE" />
            <stop offset="1" stop-color="#8EFFF6" stop-opacity="0.7" />
        </linearGradient>
        <linearGradient id="paint2_linear_10775_32212" x1="58.3861" y1="127.213" x2="44.7241" y2="45.2537"
            gradientUnits="userSpaceOnUse">
            <stop stop-color="#66FFF2" stop-opacity="0.01" />
            <stop offset="1" stop-color="#21D3C5" />
        </linearGradient>
        <linearGradient id="paint3_linear_10775_32212" x1="46" y1="30" x2="86" y2="122" gradientUnits="userSpaceOnUse">
            <stop stop-color="#64F5DB" />
            <stop offset="1" stop-color="#0CC0B1" />
        </linearGradient>
        <radialGradient id="paint4_radial_10775_32212" cx="0" cy="0" r="1" gradientUnits="userSpaceOnUse"
            gradientTransform="translate(35 26) rotate(56.6015) scale(54.5)">
            <stop stop-color="#B5FF57" stop-opacity="0.47" />
            <stop offset="1" stop-color="#90E128" stop-opacity="0" />
        </radialGradient>
        <radialGradient id="paint5_radial_10775_32212" cx="0" cy="0" r="1" gradientUnits="userSpaceOnUse"
            gradientTransform="translate(83.5 93.5) rotate(160.346) scale(52.0312)">
            <stop stop-color="#0ABCF4" stop-opacity="0.78" />
            <stop offset="1" stop-color="#4DD4FE" stop-opacity="0" />
        </radialGradient>
    </defs>
    <path opacity="0.2" fill-rule="evenodd" clip-rule="evenodd"
        d="M3.15244 65C3.15247 99.1576 30.8427 126.848 65.0003 126.848C99.158 126.848 126.848 99.1576 126.848 65H3.15244Z"
        fill="url(#paint0_linear_10775_32212)" />
    <path opacity="0.3" fill-rule="evenodd" clip-rule="evenodd"
        d="M3.15244 65C3.15244 64.9999 3.15244 64.9999 3.15244 64.9998C3.15244 30.8422 30.8427 3.15194 65.0003 3.15194C99.158 3.15194 126.848 30.8422 126.848 64.9998C126.848 64.9999 126.848 64.9999 126.848 65H3.15244Z"
        fill="url(#paint1_linear_10775_32212)" />
    <path opacity="0.7"
        d="M68.237 3.23687C102.348 5.02454 128.551 34.126 126.763 68.2369C124.976 102.348 95.8741 128.551 61.7632 126.763C60.2128 126.682 59.0217 125.359 59.103 123.809C59.1842 122.258 60.507 121.067 62.0575 121.148C93.0674 122.773 119.523 98.9525 121.148 67.9426C122.774 36.9328 98.9526 10.4769 67.9427 8.8517C41.3841 7.45982 18.1659 24.7332 11.0265 49.2021L17.2513 52.0296C17.4797 52.1333 17.685 52.2819 17.8549 52.4665C18.5191 53.1879 18.5101 54.29 17.8598 55.0001L17.7455 55.1147L7.86541 64.2107L7.87533 64.0436C7.34631 64.4977 6.64851 64.7571 5.89726 64.7177C4.34677 64.6364 3.15572 63.3136 3.23698 61.7631C5.02465 27.6523 34.1261 1.4492 68.237 3.23687Z"
        fill="url(#paint2_linear_10775_32212)" />
    <g opacity="0.9">
        <circle cx="65" cy="65" r="35" fill="url(#paint3_linear_10775_32212)" />
        <circle cx="65" cy="65" r="35" fill="url(#paint4_radial_10775_32212)" />
        <circle cx="65" cy="65" r="35" fill="url(#paint5_radial_10775_32212)" />
    </g>
    <path fill-rule="evenodd" clip-rule="evenodd"
        d="M63 63.2V51H67V53H71V57H67V63.2C70.4 64.2 73 67.2 73 71C73 75.4 69.4 79 65 79C60.6 79 57 75.4 57 71C57 67.2 59.6 64.2 63 63.2ZM65 75C67.2 75 69 73.2 69 71C69 68.8 67.2 67 65 67C62.8 67 61 68.8 61 71C61 73.2 62.8 75 65 75Z"
        fill="white" />
</svg>