<svg width="40" height="40" viewBox="0 0 40 40" fill="none" xmlns="http://www.w3.org/2000/svg">
    <circle cx="20" cy="20" r="20" fill="white" />
    <mask id="mask0_10733_31819" style="mask-type:alpha" maskUnits="userSpaceOnUse" x="0" y="0" width="40" height="40">
        <circle cx="20" cy="20" r="20" fill="white" />
    </mask>
    <g mask="url(#mask0_10733_31819)">
        <path
            d="M25.0507 16.6838L25.4043 16.3303L25.0507 15.9767L24.6972 16.3303L25.0507 16.6838ZM21.9193 19.8153L21.5657 19.4618L21.3012 19.7263L21.4803 20.0547L21.9193 19.8153ZM25.7073 11.2795L25.365 11.6218L26.0721 12.329L26.4145 11.9866L25.7073 11.2795ZM24.6804 12.3065L23.9957 12.9912L24.7028 13.6983L25.3875 13.0136L24.6804 12.3065ZM23.311 13.6758L22.6264 14.3605L23.3335 15.0676L24.0181 14.3829L23.311 13.6758ZM21.9417 15.0451L21.2571 15.7298L21.9642 16.4369L22.6488 15.7523L21.9417 15.0451ZM20.5724 16.4145L19.8877 17.0991L20.5949 17.8062L21.2795 17.1216L20.5724 16.4145ZM20.1384 17.3561C19.9889 17.2745 19.8369 17.1989 19.6827 17.1293L19.2712 18.0407C19.4026 18.1 19.5321 18.1644 19.6595 18.234L20.1384 17.3561ZM18.726 16.7818C18.3975 16.69 18.0632 16.6237 17.7263 16.5836L17.6082 17.5766C17.8937 17.6106 18.1775 17.6668 18.4568 17.7449L18.726 16.7818ZM16.7061 16.5431C16.3656 16.5567 16.0258 16.5975 15.6902 16.6665L15.8915 17.646C16.173 17.5882 16.4587 17.5538 16.7458 17.5424L16.7061 16.5431ZM14.7065 16.9558C14.3905 17.0783 14.082 17.2282 13.7844 17.4061L14.2974 18.2644C14.5462 18.1158 14.8039 17.9905 15.0679 17.8882L14.7065 16.9558ZM12.9515 18.0035C12.8228 18.113 12.6973 18.2286 12.5754 18.3506L13.2825 19.0577C13.3855 18.9547 13.4912 18.8572 13.5994 18.7651L12.9515 18.0035ZM12.5754 18.3506C12.4464 18.4795 12.3243 18.6129 12.2091 18.7502L12.975 19.3931C13.0717 19.2779 13.1741 19.166 13.2825 19.0577L12.5754 18.3506ZM11.5882 19.638C11.4063 19.9543 11.2544 20.2833 11.1326 20.6209L12.0732 20.9603C12.1754 20.6772 12.3026 20.4015 12.455 20.1367L11.5882 19.638ZM10.8552 21.6671C10.7932 22.0234 10.7622 22.3841 10.7622 22.7448L11.7622 22.7448C11.7622 22.4414 11.7882 22.1381 11.8404 21.8386L10.8552 21.6671ZM10.8552 23.8224C10.9169 24.1769 11.0094 24.5271 11.1326 24.8686L12.0732 24.5292C11.9699 24.2428 11.8923 23.9488 11.8404 23.6509L10.8552 23.8224ZM11.5882 25.8515C11.7664 26.1612 11.9734 26.4585 12.2091 26.7393L12.975 26.0964C12.7775 25.861 12.6042 25.6121 12.455 25.3528L11.5882 25.8515ZM12.5754 27.1389C12.7043 27.2678 12.8377 27.3899 12.975 27.5052L13.6179 26.7392C13.5027 26.6426 13.3908 26.5401 13.2825 26.4318L12.5754 27.1389ZM13.8628 28.1261C14.1791 28.308 14.5081 28.4599 14.8457 28.5817L15.1851 27.641C14.902 27.5389 14.6263 27.4116 14.3615 27.2593L13.8628 28.1261ZM15.8919 28.8591C16.2482 28.9211 16.6089 28.9521 16.9695 28.9521L16.9695 27.9521C16.6662 27.9521 16.3629 27.926 16.0634 27.8739L15.8919 28.8591ZM18.0472 28.8591C18.4016 28.7974 18.7519 28.7049 19.0934 28.5817L18.754 27.641C18.4676 27.7444 18.1735 27.822 17.8756 27.8739L18.0472 28.8591ZM20.0762 28.1261C20.3859 27.9479 20.6832 27.7409 20.964 27.5052L20.3212 26.7392C20.0858 26.9368 19.8368 27.1101 19.5775 27.2593L20.0762 28.1261ZM21.3637 27.1389C21.4856 27.017 21.6013 26.8915 21.7108 26.7628L20.9491 26.1149C20.8571 26.223 20.7596 26.3288 20.6566 26.4318L21.3637 27.1389ZM22.3082 25.9299C22.4861 25.6323 22.636 25.3238 22.7585 25.0078L21.8261 24.6463C21.7238 24.9104 21.5985 25.1681 21.4498 25.4169L22.3082 25.9299ZM23.0478 24.0241C23.1167 23.6884 23.1576 23.3487 23.1711 23.0082L22.1719 22.9684C22.1605 23.2555 22.1261 23.5413 22.0682 23.8228L23.0478 24.0241ZM23.1307 21.988C23.0906 21.6511 23.0243 21.3168 22.9325 20.9883L21.9694 21.2574C22.0475 21.5368 22.1037 21.8206 22.1377 22.106L23.1307 21.988ZM22.585 20.0316C22.5154 19.8774 22.4398 19.7254 22.3582 19.5759L21.4803 20.0547C21.5498 20.1822 21.6143 20.3117 21.6736 20.4431L22.585 20.0316ZM22.2728 20.1689L22.6643 19.7774L21.9572 19.0703L21.5657 19.4618L22.2728 20.1689ZM23.4471 18.9946L24.23 18.2117L23.5229 17.5046L22.74 18.2875L23.4471 18.9946ZM25.0129 17.4288L25.4043 17.0374L24.6972 16.3303L24.3058 16.7217L25.0129 17.4288ZM24.6972 17.0374L25.0339 17.3741L25.741 16.667L25.4043 16.3303L24.6972 17.0374ZM25.7073 18.0475L26.3808 18.721L27.0879 18.0139L26.4145 17.3404L25.7073 18.0475ZM27.4246 19.0577L27.7613 18.721L27.0542 18.0139L26.7175 18.3506L27.4246 19.0577ZM28.4348 18.0475L29.1082 17.3741L28.4011 16.667L27.7277 17.3404L28.4348 18.0475ZM29.4449 16.3303L29.1082 15.9936L28.4011 16.7007L28.7378 17.0374L29.4449 16.3303ZM28.4348 15.3201L27.7613 14.6467L27.0542 15.3538L27.7277 16.0272L28.4348 15.3201ZM27.4246 15.0171L27.9297 14.512L27.2226 13.8049L26.7175 14.31L27.4246 15.0171ZM28.4348 13.2998L28.098 12.9631L27.3909 13.6702L27.7277 14.0069L28.4348 13.2998ZM27.4246 12.2897L26.7512 11.6162L26.0441 12.3233L26.7175 12.9968L27.4246 12.2897ZM18.6363 24.4115C18.525 24.5228 18.4054 24.6203 18.2796 24.7043L18.8345 25.5362C19.0146 25.416 19.1852 25.2768 19.3434 25.1186L18.6363 24.4115ZM17.4303 25.0536C17.1264 25.1134 16.8126 25.1134 16.5087 25.0536L16.3159 26.0349C16.7471 26.1196 17.1919 26.1196 17.6231 26.0349L17.4303 25.0536ZM15.6595 24.7043C15.5336 24.6203 15.4141 24.5228 15.3028 24.4115L14.5957 25.1186C14.7538 25.2768 14.9245 25.416 15.1046 25.5362L15.6595 24.7043ZM15.3028 24.4115C15.1915 24.3002 15.094 24.1806 15.01 24.0548L14.1781 24.6097C14.2983 24.7898 14.4375 24.9605 14.5957 25.1186L15.3028 24.4115ZM14.6606 23.2056C14.6009 22.9016 14.6009 22.5879 14.6606 22.2839L13.6794 22.0911C13.5947 22.5224 13.5947 22.9671 13.6794 23.3984L14.6606 23.2056ZM15.01 21.4347C15.094 21.3089 15.1915 21.1893 15.3028 21.078L14.5957 20.3709C14.4375 20.529 14.2983 20.6997 14.1781 20.8798L15.01 21.4347ZM15.3028 21.078C15.4141 20.9667 15.5336 20.8692 15.6595 20.7852L15.1046 19.9533C14.9245 20.0735 14.7538 20.2127 14.5957 20.3709L15.3028 21.078ZM16.5087 20.4359C16.8126 20.3761 17.1264 20.3761 17.4303 20.4359L17.6231 19.4546C17.1919 19.3699 16.7471 19.3699 16.3159 19.4546L16.5087 20.4359ZM18.2796 20.7852C18.4054 20.8692 18.525 20.9667 18.6363 21.078L19.3434 20.3709C19.1852 20.2127 19.0146 20.0735 18.8345 19.9533L18.2796 20.7852ZM18.6363 21.078C18.7476 21.1893 18.8451 21.3089 18.929 21.4347L19.7609 20.8798C19.6408 20.6997 19.5015 20.529 19.3434 20.3709L18.6363 21.078ZM19.2784 22.2839C19.3381 22.5879 19.3381 22.9016 19.2784 23.2056L20.2597 23.3984C20.3444 22.9671 20.3444 22.5224 20.2597 22.0911L19.2784 22.2839ZM18.929 24.0548C18.8451 24.1806 18.7476 24.3002 18.6363 24.4115L19.3434 25.1186C19.5015 24.9605 19.6408 24.7898 19.7609 24.6097L18.929 24.0548Z"
            fill="#8E9998" />
    </g>
</svg>