<svg width="20" height="20" viewBox="0 0 20 20" fill="none" xmlns="http://www.w3.org/2000/svg">
<path d="M8 5.5H2.5C2.22386 5.5 2 5.72386 2 6V18C2 18.2761 2.22386 18.5 2.5 18.5H13.5C13.7761 18.5 14 18.2761 14 18V11.5667M8 5.5V10.5667C8 11.119 8.44772 11.5667 9 11.5667H14M8 5.5L14 11.5667" stroke="white" stroke-width="1.5"/>
<path d="M13 1.5H6.5C6.22386 1.5 6 1.72386 6 2V5.5M13 1.5V5.56667C13 6.11895 13.4477 6.56667 14 6.56667H18M13 1.5L18 6.56667M18 6.56667V14C18 14.2761 17.7761 14.5 17.5 14.5H14" stroke="white" stroke-width="1.5"/>
</svg>
