<svg width="96" height="96" viewBox="0 0 96 96" fill="none" xmlns="http://www.w3.org/2000/svg">
    <circle cx="48" cy="48" r="48" fill="#DAF2F0" />
    <mask id="mask0_10635_25647" style="mask-type:alpha" maskUnits="userSpaceOnUse" x="0" y="0" width="96" height="96">
        <circle cx="48" cy="48" r="48" fill="white" />
    </mask>
    <defs>
        <linearGradient id="paint0_linear_10635_25647" x1="-19.4361" y1="32.7028" x2="-3.05073" y2="103.186"
            gradientUnits="userSpaceOnUse">
            <stop stop-color="#B7FFF9" />
            <stop offset="1" stop-color="#25CFC1" />
        </linearGradient>
        <linearGradient id="paint1_linear_10635_25647" x1="9" y1="53.9999" x2="20.3436" y2="90.3606"
            gradientUnits="userSpaceOnUse">
            <stop stop-color="#EEFFFE" />
            <stop offset="1" stop-color="#6FFFF3" />
        </linearGradient>
        <linearGradient id="paint2_linear_10635_25647" x1="124" y1="33" x2="41.4178" y2="-18.8905"
            gradientUnits="userSpaceOnUse">
            <stop stop-color="#A4FDF5" />
            <stop offset="1" stop-color="#15CDBE" />
        </linearGradient>
    </defs>
    <g mask="url(#mask0_10635_25647)">
        <circle opacity="0.2" cx="59" cy="93" r="6" fill="#55D3C9" />
        <circle opacity="0.3" cx="59" cy="13" r="3" fill="#28D7C8" />
        <path
            d="M48.5022 24C65.2501 24 79 35.4738 79 49.704C79 63.9058 65.2413 75.3734 48.5 75.3734C46.7919 75.3734 45.1339 75.2533 43.5478 75.0151C43.1545 74.9668 42.7552 75.042 42.4126 75.2289L33.1313 80.6482C32.7568 80.8671 32.3265 80.9883 31.885 80.9992C31.4435 81.0101 31.0069 80.9103 30.6206 80.7102C30.2344 80.5101 29.9125 80.217 29.6885 79.8613C29.4645 79.5057 29.3465 79.1004 29.3468 78.6877V70.5242C29.3522 70.2644 29.2941 70.007 29.1771 69.7714C29.0601 69.5357 28.8871 69.3281 28.6714 69.1642C21.9043 64.2865 18 57.1734 18 49.6694C18 35.4677 31.7587 24 48.5022 24Z"
            fill="url(#paint0_linear_10635_25647)" />
        <path
            d="M29.0876 69.6133L43.0717 75.0162C42.8408 75.0458 42.6166 75.1175 42.4126 75.2288L40 84.4999C39.0903 85.0317 32.2618 81.5602 30.6207 80.7101C30.2344 80.51 29.9125 80.2169 29.6885 79.8612C29.4645 79.5055 29.3465 79.1003 29.3468 78.6876V70.524C29.3522 70.2643 29.2941 70.0069 29.1771 69.7712C29.1502 69.717 29.1203 69.6643 29.0876 69.6133Z"
            fill="url(#paint1_linear_10635_25647)" />
        <path
            d="M55.0019 28C69.8279 28 82 39.4738 82 53.704C82 67.9058 69.8202 79.3734 55 79.3734C53.4879 79.3734 52.0201 79.2533 50.616 79.0151C50.2679 78.9668 49.9144 79.042 49.6112 79.2289L41.3949 84.6482C41.0634 84.8671 40.6825 84.9883 40.2916 84.9992C39.9008 85.0101 39.5143 84.9103 39.1724 84.7102C38.8304 84.5101 38.5455 84.217 38.3472 83.8613C38.1489 83.5057 38.0444 83.1004 38.0447 82.6877V74.5242C38.0495 74.2644 37.9981 74.007 37.8945 73.7714C37.7909 73.5357 37.6378 73.3281 37.4468 73.1642C31.4562 68.2865 28 61.1734 28 53.6694C28 39.4677 40.1798 28 55.0019 28Z"
            fill="url(#paint2_linear_10635_25647)" />
        <circle opacity="0.4" cx="25" cy="20" r="2" fill="#ACFDF6" />
    </g>
</svg>