<svg width="30" height="30" viewBox="0 0 30 30" fill="none" xmlns="http://www.w3.org/2000/svg">
<path d="M3.5 7.68726H23.5C25.1569 7.68726 26.5 9.0304 26.5 10.6873V23.0576C26.5 24.7145 25.1569 26.0576 23.5 26.0576H6.5C4.84315 26.0576 3.5 24.7145 3.5 23.0576V7.68726Z" stroke="#403D3C" stroke-width="2"/>
<path d="M16.9615 7.84615V5C16.9615 4.44772 16.5138 4 15.9615 4H6.5C4.84315 4 3.5 5.34315 3.5 7V7.84615" stroke="#403D3C" stroke-width="2"/>
<path fill-rule="evenodd" clip-rule="evenodd" d="M10.7886 14.1867C11.84 13.2711 13.5446 13.2711 14.5961 14.1867L15 14.5385L15.4039 14.1867C16.4554 13.2711 18.16 13.2711 19.2114 14.1867C20.2629 15.1023 20.2629 16.5868 19.2114 17.5024L15.5799 20.0873C15.2328 20.3343 14.7672 20.3343 14.4201 20.0873L10.7886 17.5024C9.73715 16.5868 9.73715 15.1023 10.7886 14.1867Z" stroke="#403D3C" stroke-width="2" stroke-linecap="round" stroke-linejoin="round"/>
</svg>
