<svg width="18" height="18" viewBox="0 0 18 18" fill="none" xmlns="http://www.w3.org/2000/svg">
<defs>
<linearGradient id="paint0_linear_3419_6074" x1="19" y1="-1" x2="0.999999" y2="14.5" gradientUnits="userSpaceOnUse">
<stop stop-color="#C2A6FF"/>
<stop offset="1" stop-color="#627EEA"/>
</linearGradient>
<radialGradient id="paint1_radial_3419_6074" cx="0" cy="0" r="1" gradientUnits="userSpaceOnUse" gradientTransform="translate(5.5 19.5) rotate(-57.3808) scale(14.8408)">
<stop stop-color="#FC6CFF"/>
<stop offset="1" stop-color="white" stop-opacity="0"/>
</radialGradient>
<radialGradient id="paint2_radial_3419_6074" cx="0" cy="0" r="1" gradientUnits="userSpaceOnUse" gradientTransform="translate(23 15) rotate(-126.254) scale(18.6011)">
<stop offset="0.0926229" stop-color="#3CFFC4"/>
<stop offset="1" stop-color="#49FFC8" stop-opacity="0"/>
</radialGradient>
</defs>
<path d="M9 0C4.03012 0 0 4.03012 0 9C0 13.9699 4.03012 18 9 18C13.9699 18 18 13.9699 18 9C18 4.03012 13.9699 0 9 0Z" fill="url(#paint0_linear_3419_6074)"/>
<path d="M9 0C4.03012 0 0 4.03012 0 9C0 13.9699 4.03012 18 9 18C13.9699 18 18 13.9699 18 9C18 4.03012 13.9699 0 9 0Z" fill="url(#paint1_radial_3419_6074)"/>
<path d="M9 0C4.03012 0 0 4.03012 0 9C0 13.9699 4.03012 18 9 18C13.9699 18 18 13.9699 18 9C18 4.03012 13.9699 0 9 0Z" fill="url(#paint2_radial_3419_6074)" fill-opacity="0.6"/>
<path d="M9.03214 3.35742L12.259 8.62449L9.03214 10.7229L5.80322 8.62449L9.03214 3.35742Z" fill="white"/>
<path d="M9.45849 3.09622C9.36761 2.94788 9.20617 2.85745 9.03221 2.85742C8.85825 2.8574 8.69678 2.94779 8.60586 3.0961L5.37695 8.36317C5.2353 8.59422 5.30352 8.89606 5.53077 9.04374L8.75968 11.1421C8.92541 11.2498 9.13902 11.2498 9.30471 11.1421L12.5316 9.04366C12.7587 8.89597 12.8269 8.59428 12.6854 8.36329L9.45849 3.09622Z" stroke="#917DE4" stroke-opacity="0.31" stroke-linejoin="round"/>
<path d="M9.00004 14.3896L5.6145 9.65869L9.00004 11.9137L12.3856 9.65869L9.00004 14.3896Z" fill="white"/>
<path d="M8.59343 14.6806C8.68732 14.8118 8.83872 14.8896 9.00004 14.8896C9.16136 14.8896 9.31277 14.8118 9.40665 14.6806L12.7922 9.94967C12.9327 9.75334 12.9128 9.48467 12.745 9.31112C12.5772 9.13757 12.3093 9.10872 12.1084 9.24255L9.00004 11.313L5.89168 9.24255C5.69075 9.10872 5.42289 9.13757 5.25507 9.31112C5.08725 9.48467 5.0674 9.75334 5.20789 9.94967L8.59343 14.6806Z" stroke="#917DE4" stroke-opacity="0.31" stroke-linejoin="round"/>
</svg>
