<svg width="19" height="16" viewBox="0 0 19 16" fill="none" xmlns="http://www.w3.org/2000/svg">
<path fill-rule="evenodd" clip-rule="evenodd" d="M9.11151 0.387472C9.91448 -0.342499 11.2024 0.227222 11.2024 1.3124V14.6877C11.2024 15.7728 9.91448 16.3426 9.11151 15.6126L4.33888 11.2738H1.20235C0.742115 11.2738 0.369019 10.9007 0.369019 10.4405V5.55956C0.369019 5.09932 0.742116 4.72622 1.20235 4.72622H4.33888L9.11151 0.387472ZM16.5992 3.73894C17.0074 3.52634 17.166 3.02309 16.9534 2.6149C16.7408 2.20671 16.2375 2.04815 15.8293 2.26075L13.5436 3.45123C13.1354 3.66383 12.9769 4.16708 13.1895 4.57527C13.4021 4.98346 13.9053 5.14202 14.3135 4.92942L16.5992 3.73894ZM16.9534 13.0514C17.166 12.6432 17.0074 12.14 16.5992 11.9274L14.3135 10.7369C13.9053 10.5243 13.4021 10.6828 13.1895 11.091C12.9769 11.4992 13.1354 12.0025 13.5436 12.2151L15.8293 13.4055C16.2375 13.6181 16.7408 13.4596 16.9534 13.0514ZM13.9286 6.92851C13.4684 6.92851 13.0953 7.3016 13.0953 7.76184C13.0953 8.22208 13.4684 8.59517 13.9286 8.59517H17.3572C17.8174 8.59517 18.1905 8.22208 18.1905 7.76184C18.1905 7.3016 17.8174 6.92851 17.3572 6.92851H13.9286Z" fill="#00BFAF"/>
</svg>
