<svg width="28" height="28" viewBox="0 0 28 28" fill="none" xmlns="http://www.w3.org/2000/svg">
<circle cx="14" cy="14" r="13.25" stroke="#403D3C" stroke-width="1.5"/>
<path d="M7.93329 13.25C7.51908 13.25 7.18329 13.5858 7.18329 14C7.18329 14.4142 7.51908 14.75 7.93329 14.75V13.25ZM20.0666 14.75C20.4808 14.75 20.8166 14.4142 20.8166 14C20.8166 13.5858 20.4808 13.25 20.0666 13.25V14.75ZM7.93329 14.75H20.0666V13.25H7.93329V14.75Z" fill="#403D3C"/>
<path d="M13.25 20.0667C13.25 20.4809 13.5858 20.8167 14 20.8167C14.4142 20.8167 14.75 20.4809 14.75 20.0667H13.25ZM14.75 7.93332C14.75 7.5191 14.4142 7.18332 14 7.18332C13.5858 7.18332 13.25 7.5191 13.25 7.93332H14.75ZM14.75 20.0667V7.93332H13.25V20.0667H14.75Z" fill="#403D3C"/>
</svg>
