<svg width="72" height="72" viewBox="0 0 72 72" fill="none" xmlns="http://www.w3.org/2000/svg">
    <mask id="mask0_10618_24879" style="mask-type:alpha" maskUnits="userSpaceOnUse" x="0" y="0" width="72" height="72">
        <circle cx="36" cy="36" r="36" fill="#D9D9D9" />
    </mask>
    <defs>
        <linearGradient id="paint0_linear_10618_24879" x1="61.5484" y1="1.03269e-06" x2="13.9355" y2="66.1935"
            gradientUnits="userSpaceOnUse">
            <stop stop-color="#B3FFF9" />
            <stop offset="1" stop-color="#80FFF4" />
        </linearGradient>
        <radialGradient id="paint1_radial_10618_24879" cx="0" cy="0" r="1" gradientUnits="userSpaceOnUse"
            gradientTransform="translate(60.48 79.2) rotate(-65.5421) scale(47.4587)">
            <stop stop-color="#5ED8FF" />
            <stop offset="1" stop-color="#61D9FF" stop-opacity="0" />
        </radialGradient>
        <radialGradient id="paint2_radial_10618_24879" cx="0" cy="0" r="1" gradientUnits="userSpaceOnUse"
            gradientTransform="translate(60.3871 -11.6129) rotate(110.225) scale(70.543)">
            <stop stop-color="#84FFBC" />
            <stop offset="1" stop-color="#A2FFCD" stop-opacity="0" />
        </radialGradient>
        <radialGradient id="paint3_radial_10618_24879" cx="0" cy="0" r="1" gradientUnits="userSpaceOnUse"
            gradientTransform="translate(9.87097 3.02607e-06) rotate(61.8987) scale(67.7989)">
            <stop stop-color="#99FFF7" />
            <stop offset="1" stop-color="#B0FFF9" stop-opacity="0" />
        </radialGradient>
    </defs>
    <g mask="url(#mask0_10618_24879)">
        <path fill-rule="evenodd" clip-rule="evenodd"
            d="M46.8978 0C54.126 0 57.7392 0 61.6302 1.23C65.8782 2.7762 69.2238 6.1218 70.77 10.3698C72 14.2602 72 17.8746 72 25.1022V46.8978C72 54.126 72 57.7392 70.77 61.6302C69.2238 65.8782 65.8782 69.2238 61.6302 70.7694C57.7392 72 54.126 72 46.8978 72H25.1022C17.874 72 14.2602 72 10.3698 70.7694C6.1218 69.2238 2.7762 65.8782 1.23 61.6302C0 57.7392 0 54.126 0 46.8978V25.1022C0 17.8746 0 14.2602 1.23 10.3698C2.7762 6.1218 6.1218 2.7762 10.3698 1.23C14.2602 0 17.874 0 25.1022 0H46.8978Z"
            fill="url(#paint0_linear_10618_24879)" />
        <path fill-rule="evenodd" clip-rule="evenodd"
            d="M46.8978 0C54.126 0 57.7392 0 61.6302 1.23C65.8782 2.7762 69.2238 6.1218 70.77 10.3698C72 14.2602 72 17.8746 72 25.1022V46.8978C72 54.126 72 57.7392 70.77 61.6302C69.2238 65.8782 65.8782 69.2238 61.6302 70.7694C57.7392 72 54.126 72 46.8978 72H25.1022C17.874 72 14.2602 72 10.3698 70.7694C6.1218 69.2238 2.7762 65.8782 1.23 61.6302C0 57.7392 0 54.126 0 46.8978V25.1022C0 17.8746 0 14.2602 1.23 10.3698C2.7762 6.1218 6.1218 2.7762 10.3698 1.23C14.2602 0 17.874 0 25.1022 0H46.8978Z"
            fill="url(#paint1_radial_10618_24879)" />
        <path fill-rule="evenodd" clip-rule="evenodd"
            d="M46.8978 0C54.126 0 57.7392 0 61.6302 1.23C65.8782 2.7762 69.2238 6.1218 70.77 10.3698C72 14.2602 72 17.8746 72 25.1022V46.8978C72 54.126 72 57.7392 70.77 61.6302C69.2238 65.8782 65.8782 69.2238 61.6302 70.7694C57.7392 72 54.126 72 46.8978 72H25.1022C17.874 72 14.2602 72 10.3698 70.7694C6.1218 69.2238 2.7762 65.8782 1.23 61.6302C0 57.7392 0 54.126 0 46.8978V25.1022C0 17.8746 0 14.2602 1.23 10.3698C2.7762 6.1218 6.1218 2.7762 10.3698 1.23C14.2602 0 17.874 0 25.1022 0H46.8978Z"
            fill="url(#paint2_radial_10618_24879)" />
        <path fill-rule="evenodd" clip-rule="evenodd"
            d="M46.8978 0C54.126 0 57.7392 0 61.6302 1.23C65.8782 2.7762 69.2238 6.1218 70.77 10.3698C72 14.2602 72 17.8746 72 25.1022V46.8978C72 54.126 72 57.7392 70.77 61.6302C69.2238 65.8782 65.8782 69.2238 61.6302 70.7694C57.7392 72 54.126 72 46.8978 72H25.1022C17.874 72 14.2602 72 10.3698 70.7694C6.1218 69.2238 2.7762 65.8782 1.23 61.6302C0 57.7392 0 54.126 0 46.8978V25.1022C0 17.8746 0 14.2602 1.23 10.3698C2.7762 6.1218 6.1218 2.7762 10.3698 1.23C14.2602 0 17.874 0 25.1022 0H46.8978Z"
            fill="url(#paint3_radial_10618_24879)" />
        <path
            d="M17.9999 27.0519H22.4751L27.4353 35.0323L32.3954 27.0519H36.8706V45.9226H32.7734V33.6033L27.4629 41.6648H27.3542L22.0972 33.6844V45.9243H17.9999V27.0519Z"
            fill="black" />
        <path d="M39.5768 27V45.9432H54V42.236H43.7172V38.2579H52.6486V34.5507H43.7172V30.7072H53.8653V27H39.5768Z"
            fill="black" />
    </g>
</svg>