<svg width="22" height="22" viewBox="0 0 22 22" fill="none" xmlns="http://www.w3.org/2000/svg">
<mask id="path-1-inside-1_10561_18385" fill="white">
<path fill-rule="evenodd" clip-rule="evenodd" d="M2.55005 13.8C2.96426 13.8 3.30005 14.1358 3.30005 14.55V17.55C3.30005 18.2404 3.85969 18.8 4.55005 18.8H8.05005C8.46426 18.8 8.80005 19.1358 8.80005 19.55C8.80005 19.9643 8.46426 20.3 8.05005 20.3H4.55005C3.03127 20.3 1.80005 19.0688 1.80005 17.55V14.55C1.80005 14.1358 2.13584 13.8 2.55005 13.8ZM19.55 13.8C19.9643 13.8 20.3 14.1358 20.3 14.55V17.55C20.3 19.0688 19.0688 20.3 17.55 20.3H14.05C13.6358 20.3 13.3 19.9643 13.3 19.55C13.3 19.1358 13.6358 18.8 14.05 18.8H17.55C18.2404 18.8 18.8 18.2404 18.8 17.55V14.55C18.8 14.1358 19.1358 13.8 19.55 13.8ZM4.55005 3.30005C3.85969 3.30005 3.30005 3.85969 3.30005 4.55005V7.55005C3.30005 7.96426 2.96426 8.30005 2.55005 8.30005C2.13584 8.30005 1.80005 7.96426 1.80005 7.55005V4.55005C1.80005 3.03127 3.03127 1.80005 4.55005 1.80005H8.05005C8.46426 1.80005 8.80005 2.13584 8.80005 2.55005C8.80005 2.96426 8.46426 3.30005 8.05005 3.30005H4.55005ZM13.3 2.55005C13.3 2.13584 13.6358 1.80005 14.05 1.80005H17.55C19.0688 1.80005 20.3 3.03127 20.3 4.55005V7.55005C20.3 7.96426 19.9643 8.30005 19.55 8.30005C19.1358 8.30005 18.8 7.96426 18.8 7.55005V4.55005C18.8 3.85969 18.2404 3.30005 17.55 3.30005H14.05C13.6358 3.30005 13.3 2.96426 13.3 2.55005Z"/>
</mask>
<path d="M4.80005 14.55C4.80005 13.3074 3.79269 12.3 2.55005 12.3V15.3C2.13584 15.3 1.80005 14.9643 1.80005 14.55H4.80005ZM4.80005 17.55V14.55H1.80005V17.55H4.80005ZM4.55005 17.3C4.68812 17.3 4.80005 17.412 4.80005 17.55H1.80005C1.80005 19.0688 3.03127 20.3 4.55005 20.3V17.3ZM8.05005 17.3H4.55005V20.3H8.05005V17.3ZM10.3 19.55C10.3 18.3074 9.29269 17.3 8.05005 17.3V20.3C7.63584 20.3 7.30005 19.9643 7.30005 19.55H10.3ZM8.05005 21.8C9.29269 21.8 10.3 20.7927 10.3 19.55H7.30005C7.30005 19.1358 7.63584 18.8 8.05005 18.8V21.8ZM4.55005 21.8H8.05005V18.8H4.55005V21.8ZM0.300049 17.55C0.300049 19.8973 2.20284 21.8 4.55005 21.8V18.8C3.85969 18.8 3.30005 18.2404 3.30005 17.55H0.300049ZM0.300049 14.55V17.55H3.30005V14.55H0.300049ZM2.55005 12.3C1.30741 12.3 0.300049 13.3074 0.300049 14.55H3.30005C3.30005 14.9643 2.96426 15.3 2.55005 15.3V12.3ZM21.8 14.55C21.8 13.3074 20.7927 12.3 19.55 12.3V15.3C19.1358 15.3 18.8 14.9643 18.8 14.55H21.8ZM21.8 17.55V14.55H18.8V17.55H21.8ZM17.55 21.8C19.8973 21.8 21.8 19.8973 21.8 17.55H18.8C18.8 18.2404 18.2404 18.8 17.55 18.8V21.8ZM14.05 21.8H17.55V18.8H14.05V21.8ZM11.8 19.55C11.8 20.7927 12.8074 21.8 14.05 21.8V18.8C14.4643 18.8 14.8 19.1358 14.8 19.55H11.8ZM14.05 17.3C12.8074 17.3 11.8 18.3074 11.8 19.55H14.8C14.8 19.9643 14.4643 20.3 14.05 20.3V17.3ZM17.55 17.3H14.05V20.3H17.55V17.3ZM17.3 17.55C17.3 17.412 17.412 17.3 17.55 17.3V20.3C19.0688 20.3 20.3 19.0688 20.3 17.55H17.3ZM17.3 14.55V17.55H20.3V14.55H17.3ZM19.55 12.3C18.3074 12.3 17.3 13.3074 17.3 14.55H20.3C20.3 14.9643 19.9643 15.3 19.55 15.3V12.3ZM4.80005 4.55005C4.80005 4.68812 4.68812 4.80005 4.55005 4.80005V1.80005C3.03127 1.80005 1.80005 3.03127 1.80005 4.55005H4.80005ZM4.80005 7.55005V4.55005H1.80005V7.55005H4.80005ZM2.55005 9.80005C3.79269 9.80005 4.80005 8.79269 4.80005 7.55005H1.80005C1.80005 7.13584 2.13584 6.80005 2.55005 6.80005V9.80005ZM0.300049 7.55005C0.300049 8.79269 1.30741 9.80005 2.55005 9.80005V6.80005C2.96426 6.80005 3.30005 7.13584 3.30005 7.55005H0.300049ZM0.300049 4.55005V7.55005H3.30005V4.55005H0.300049ZM4.55005 0.300049C2.20284 0.300049 0.300049 2.20284 0.300049 4.55005H3.30005C3.30005 3.85969 3.85969 3.30005 4.55005 3.30005V0.300049ZM8.05005 0.300049H4.55005V3.30005H8.05005V0.300049ZM10.3 2.55005C10.3 1.30741 9.29269 0.300049 8.05005 0.300049V3.30005C7.63584 3.30005 7.30005 2.96426 7.30005 2.55005H10.3ZM8.05005 4.80005C9.29269 4.80005 10.3 3.79269 10.3 2.55005H7.30005C7.30005 2.13584 7.63584 1.80005 8.05005 1.80005V4.80005ZM4.55005 4.80005H8.05005V1.80005H4.55005V4.80005ZM14.05 0.300049C12.8074 0.300049 11.8 1.30741 11.8 2.55005H14.8C14.8 2.96426 14.4643 3.30005 14.05 3.30005V0.300049ZM17.55 0.300049H14.05V3.30005H17.55V0.300049ZM21.8 4.55005C21.8 2.20284 19.8973 0.300049 17.55 0.300049V3.30005C18.2404 3.30005 18.8 3.85969 18.8 4.55005H21.8ZM21.8 7.55005V4.55005H18.8V7.55005H21.8ZM19.55 9.80005C20.7927 9.80005 21.8 8.79269 21.8 7.55005H18.8C18.8 7.13584 19.1358 6.80005 19.55 6.80005V9.80005ZM17.3 7.55005C17.3 8.79269 18.3074 9.80005 19.55 9.80005V6.80005C19.9643 6.80005 20.3 7.13584 20.3 7.55005H17.3ZM17.3 4.55005V7.55005H20.3V4.55005H17.3ZM17.55 4.80005C17.412 4.80005 17.3 4.68812 17.3 4.55005H20.3C20.3 3.03127 19.0688 1.80005 17.55 1.80005V4.80005ZM14.05 4.80005H17.55V1.80005H14.05V4.80005ZM11.8 2.55005C11.8 3.79269 12.8074 4.80005 14.05 4.80005V1.80005C14.4643 1.80005 14.8 2.13584 14.8 2.55005H11.8Z" fill="black" mask="url(#path-1-inside-1_10561_18385)"/>
<path d="M6.55005 11.05H15.55" stroke="black" stroke-width="1.5" stroke-linecap="round"/>
</svg>
