<svg width="82" height="27" viewBox="0 0 82 27" fill="none" xmlns="http://www.w3.org/2000/svg">
    <path
        d="M8.09572 0.190552V5.45129H2.84693V0.190552H0V13.4862H2.84693V8.1492H8.09572V13.4862H10.941V0.190552H8.09572Z"
        fill="#084B6F" />
    <path
        d="M46.0869 0.190552V5.45129H40.8373V0.190552H37.9912V13.4862H40.8373V8.1492H46.0869V13.4862H48.9322V0.190552H46.0869Z"
        fill="#084B6F" />
    <path
        d="M17.7426 0.0960693L12.1987 13.4861H15.1013L16.2841 10.5032H21.7546L22.9374 13.4861H25.9133L20.367 0.0960693H17.7426ZM19.0165 3.61014L20.7347 7.91882H17.2992L19.0181 3.61014H19.0165Z"
        fill="#084B6F" />
    <path
        d="M26.0972 11.5489L27.779 9.47746C28.9433 10.4651 30.1632 11.0924 31.6419 11.0924C32.8061 11.0924 33.5084 10.6176 33.5084 9.83873V9.80061C33.5084 9.05985 33.0649 8.67952 30.9025 8.11028C28.2967 7.42669 26.6148 6.68593 26.6148 4.04603V4.00791C26.6148 1.59504 28.4998 0 31.1428 0C33.0278 0 34.6363 0.60819 35.9481 1.69033L34.4694 3.89356C33.3229 3.0774 32.1958 2.58273 31.1057 2.58273C30.0156 2.58273 29.4424 3.09563 29.4424 3.74276V3.78087C29.4424 4.65421 29.9971 4.94091 32.2337 5.52755C34.8573 6.23103 36.3359 7.19965 36.3359 9.5164V9.55452C36.3359 12.1944 34.3767 13.6768 31.5862 13.6768C29.5644 13.6841 27.6106 12.9267 26.0972 11.5489Z"
        fill="#084B6F" />
    <path
        d="M58.7832 0.190552V13.4862H68.6342V10.8836H61.61V8.09202H67.7102V5.48941H61.61V2.79316H68.5414V0.190552H58.7832Z"
        fill="#084B6F" />
    <path
        d="M78.6513 0.190552L75.5092 5.52752L72.4228 0.190552H69.0962L74.0676 8.24366V13.4862H76.9137V8.18731L81.8852 0.190552H78.6513Z"
        fill="#084B6F" />
    <path
        d="M53.6908 0.190552L51.6791 2.25789L49.6675 4.32441L51.6791 6.39175L53.6908 4.32441L55.7016 2.25789L57.7132 0.190552H53.6908Z"
        fill="#084B6F" />
    <path d="M53.6829 9.38796L51.697 7.34796L49.7112 9.38796H53.6829Z" fill="#00BFAF" />
    <path d="M49.7112 9.38788L51.697 11.4287L53.6829 9.38788H49.7112Z" fill="#16DCCB" />
    <path d="M55.6687 11.4287L53.6829 9.38788L51.697 11.4287H55.6687Z" fill="#38ECDD" />
    <path d="M51.697 11.4288L53.6829 13.4696L55.6687 11.4288H51.697Z" fill="#7BFBF0" />
    <path d="M53.6829 13.4696H57.6545L55.6687 11.4288L53.6829 13.4696Z" fill="#A7F9F2" />
    <path d="M38.1704 19.133L41.41 22.4399L38.1704 25.7916V19.133Z" fill="#084B6F" />
    <path
        d="M42.877 17.6505H44.9675L47.2847 21.4818L49.6018 17.6505H51.6924V26.7101H49.7784V20.7957L47.2857 24.6651H47.2617L44.791 20.8347V26.7101H42.877V17.6505Z"
        fill="#16DCCB" />
    <path
        d="M52.9573 17.6256V26.7199H59.695V24.9402H54.8906V23.0303H59.0629V21.2506H54.8906V19.4054H59.6321V17.6256H52.9573Z"
        fill="#16DCCB" />
    <path d="M47.2734 24.6851V21.4322L46.0002 22.7272L47.2734 24.6851Z" fill="#A7F9F2" />
    <path d="M46.0003 22.7272L47.2736 21.4321L45.9897 19.3599L46.0003 22.7272Z" fill="#38ECDD" />
    <path d="M46.0003 22.7269L45.9899 19.3599L44.77 20.7792L46.0003 22.7269Z" fill="#16DCCB" />
    <path d="M44.77 20.8206L45.9899 19.3598L45.0062 17.6505H44.77V20.8206Z" fill="#00BFAF" />
    <path d="M47.2737 24.6851V21.4322L48.5567 22.7272L47.2737 24.6851Z" fill="#7BFBF0" />
    <path d="M48.5567 22.7272L47.2737 21.4321L48.5642 19.3599L48.5567 22.7272Z" fill="#38ECDD" />
    <path d="M48.5566 22.7269L48.5642 19.3599L49.7841 20.7792L48.5566 22.7269Z" fill="#16DCCB" />
    <path d="M49.784 20.8206L48.5642 19.3598L49.5478 17.6505H49.784V20.8206Z" fill="#00BFAF" />
</svg>