<?xml version="1.0" encoding="UTF-8"?>
<svg width="48px" height="48px" viewBox="0 0 48 48" version="1.1" xmlns="http://www.w3.org/2000/svg" xmlns:xlink="http://www.w3.org/1999/xlink">
    <title>编组</title>
    <g id="uniswap" stroke="none" stroke-width="1" fill="none" fill-rule="evenodd">
        <g id="切图" transform="translate(-206.000000, -507.000000)">
            <g id="编组" transform="translate(206.000000, 507.000000)">
                <path d="M24.0007504,48 C37.2549633,48 48,37.2539309 48,24 C48,10.7460691 37.2549633,0 24.0007504,0 C10.7450367,0 0,10.7460691 0,24 C0,37.2539309 10.7450367,48 24.0007504,48 Z" id="Fill-1" fill="#FF923A"></path>
                <path d="M24.3866097,12.5 L24.3866097,14.0390194 C24.4058534,14.0390194 24.4411247,14.0550733 24.4571523,14.0678849 C24.4667741,14.0871285 24.4731799,14.1063722 24.4828017,14.1223998 L27.1087723,19.4576951 C27.3267794,19.9001414 27.7404129,20.2079347 28.2245626,20.2945313 L34.0920904,21.3205354 C34.1113341,21.3237514 34.1337939,21.3269675 34.1530112,21.3301572 C34.162633,21.3301572 34.1786606,21.3429951 34.1818767,21.3526169 C34.1882825,21.3814561 34.1979043,21.4135113 34.2075261,21.4423768 C34.2139319,21.4616205 34.2331756,21.5193515 34.1786606,21.5834619 L29.9816155,25.5400403 C29.6000635,25.8991588 29.4269232,26.4281753 29.5231152,26.9411906 L30.5908227,32.6868769 L30.5908227,32.690093 C30.6004446,32.747824 30.5523354,32.7959068 30.5234962,32.8183402 C30.5170641,32.8247723 30.5106583,32.827962 30.5042525,32.8343678 C30.4786031,32.827962 30.4465215,32.8151241 30.4112766,32.7991229 L25.0759814,30.1314753 C24.8579479,30.0224454 24.6238868,29.9679568 24.3866361,29.9679568 C24.1525487,29.9679568 23.918514,30.0224454 23.7036702,30.1282592 L18.3266979,32.7959068 C18.3106703,32.8023126 18.2978588,32.8119344 18.2818311,32.8183402 C18.2786151,32.8183402 18.2657772,32.8247723 18.2465599,32.8247723 C18.2273162,32.8247723 18.2112886,32.8215563 18.2080725,32.8183402 C18.1728012,32.7895011 18.1439621,32.73177 18.140746,32.7029309 L18.140746,32.6997148 L19.2501306,26.9508124 C19.3495123,26.4313914 19.176372,25.8959428 18.7884143,25.5336345 L14.5913691,21.625139 C14.5528818,21.5802459 14.5336381,21.4936757 14.5368542,21.4423768 C14.5528818,21.4071055 14.5689094,21.3910779 14.5753415,21.3846722 C14.5785312,21.3814561 14.5849633,21.3782664 14.6041807,21.3750503 C14.6330462,21.3718343 14.6619117,21.3686446 14.6875611,21.3622388 L20.5550889,20.2945313 C21.0360226,20.2079611 21.44644,19.8969517 21.6612574,19.4608848 L24.2840119,14.1320217 C24.3192832,14.0646952 24.3737982,14.0422354 24.3833936,14.0422354 L24.3833936,12.5 M24.3866097,12.5 C23.7710231,12.5 23.1970871,12.8687404 22.9085374,13.4426764 L20.2825405,18.7779189 L14.4149863,19.8456264 C13.7576963,19.9289805 13.2671408,20.377859 13.0619452,20.993472 C12.8984004,21.567408 13.0619452,22.2663751 13.5140397,22.7184696 L17.739924,26.66221 L16.6305395,32.4078964 C16.508698,33.0235358 16.794058,33.6808258 17.2878295,34.0495399 C17.5635676,34.2579515 17.9066586,34.3605493 18.2465335,34.3605493 C18.5126498,34.3605493 18.7755764,34.2964388 19.0096374,34.1713813 L24.3865834,31.5037337 L29.7218786,34.1713813 C29.9687776,34.2932228 30.2541112,34.3765769 30.5010101,34.3765769 C30.8697505,34.3765769 31.1999772,34.2547354 31.4436865,34.0495399 C31.9374317,33.6808258 32.2227917,33.0652128 32.1009502,32.4079227 L31.033269,26.6622364 L35.2591797,22.6799823 C35.7112742,22.2278877 35.8747663,21.570624 35.6695708,20.955011 C35.5060523,20.339398 34.9706037,19.8873035 34.3549907,19.8071391 L28.4874629,18.781135 L25.8614923,13.4458397 C25.6178094,12.8719038 25.0021964,12.5 24.3865834,12.5 L24.3866097,12.5 Z" id="形状" stroke="#FFFFFF" stroke-width="0.4" fill="#FFFFFF" fill-rule="nonzero"></path>
            </g>
        </g>
    </g>
</svg>