<?xml version="1.0" encoding="UTF-8"?>
<svg width="48px" height="48px" viewBox="0 0 48 48" version="1.1" xmlns="http://www.w3.org/2000/svg" xmlns:xlink="http://www.w3.org/1999/xlink">
    <title>编组 4</title>
    <g id="uniswap" stroke="none" stroke-width="1" fill="none" fill-rule="evenodd">
        <g id="切图" transform="translate(-283.000000, -429.000000)">
            <g id="编组-4" transform="translate(283.000000, 429.000000)">
                <path d="M0,24 C0,37.2539309 10.7450367,48 24.0007504,48 C37.2549633,48 48,37.2539309 48,24 C48,10.7460691 37.2549633,0 24.0007504,0 C10.7450367,0 0,10.7460691 0,24" id="Fill-1" fill="#FFFFFF"></path>
                <path d="M33.9687984,20.9062558 L29.5000645,20.9062558 C28.9299677,20.9062558 28.4688392,20.4443433 28.4688392,19.8749806 C28.4688392,19.3056653 28.929994,18.8437553 29.5000645,18.8437553 L31.2939752,18.8437553 C29.675767,16.557188 27.0147832,15.0625189 24.0000553,15.0625189 C19.0639914,15.0625189 15.0625347,19.0640019 15.0625347,23.9999868 C15.0625347,28.9360244 19.0640177,32.9374811 24.0000553,32.9374811 C28.9360928,32.9374811 32.9375495,28.9359981 32.9375495,23.9999868 C32.9375495,23.4306715 33.3986806,22.9687616 33.9687511,22.9687616 C34.5381137,22.9687616 35.0000526,23.4306742 35.0000526,23.9999868 C35.0000526,30.0750918 30.0746972,35 24.0000395,35 C17.9253028,35 13,30.0751181 13,23.9999868 C13,17.9249082 17.9253028,13 24.0000395,13 C27.6868733,13 30.943291,14.817714 32.9375337,17.6026552 L32.9375337,15.7500086 C32.9375337,15.1806459 33.3986649,14.718757 33.9687353,14.718757 C34.538098,14.718757 35.0000526,15.1806459 35.0000526,15.7500086 L35.0000526,19.8749938 C35.0000526,20.4443459 34.5381085,20.9062558 33.9687984,20.9062558 Z" id="刷新" stroke="#666260" stroke-width="0.06" fill="#666260" fill-rule="nonzero"></path>
            </g>
        </g>
    </g>
</svg>