<?xml version="1.0" encoding="UTF-8"?>
<svg width="48px" height="48px" viewBox="0 0 48 48" version="1.1" xmlns="http://www.w3.org/2000/svg" xmlns:xlink="http://www.w3.org/1999/xlink">
    <title>编组 2</title>
    <g id="uniswap" stroke="none" stroke-width="1" fill="none" fill-rule="evenodd">
        <g id="切图" transform="translate(-69.000000, -429.000000)">
            <g id="编组-2" transform="translate(69.000000, 429.000000)">
                <circle id="椭圆形" fill="#FFFFFF" cx="24" cy="24" r="24"></circle>
                <path d="M24,13 C24.515625,13 24.9354911,13.4174107 24.9354911,13.9354911 C24.9354911,14.4535714 24.5180804,14.8709821 24,14.8709821 C18.9566964,14.8709821 14.8685268,18.9591518 14.8685268,24.0024554 C14.8685268,29.0457589 18.9566964,33.1314732 24,33.1314732 C29.0433036,33.1314732 33.1314732,29.0433036 33.1314732,24 C33.1314732,23.484375 33.5488839,23.0645089 34.0669643,23.0645089 C34.5850446,23.0645089 35,23.484375 35,24 C35,30.0745536 30.0745536,35 24,35 C17.9254464,35 13,30.0745536 13,24 C13,17.9254464 17.9254464,13 24,13 Z M29.6620536,17.6774554 C29.3133929,17.3165179 29.3183036,16.7444196 29.6743304,16.3908482 C30.0303571,16.0348214 30.6024554,16.0323661 30.9683036,16.3859375 L32.5790179,17.9966518 C33.0651786,18.4828125 33.0651786,19.2685268 32.5790179,19.7546875 L30.9683036,21.3654018 C30.6098214,21.7238839 30.0279018,21.7238839 29.6694196,21.3654018 C29.3109375,21.0069196 29.3109375,20.425 29.6694196,20.0665179 L29.9419643,19.7939732 L28.7560268,19.7939732 C25.5321429,19.7939732 24.4370536,21.1665179 24.4370536,25.3185268 C24.4370536,25.8267857 24.0270089,26.2368304 23.51875,26.2368304 C23.0104911,26.2368304 22.6004464,25.8267857 22.6004464,25.3185268 C22.6004464,20.184375 24.4738839,17.9573661 28.7560268,17.9573661 L29.9419643,17.9573661 L29.6620536,17.6774554 L29.6620536,17.6774554 Z" id="分享" stroke="#666260" stroke-width="0.2" fill="#666260" fill-rule="nonzero"></path>
            </g>
        </g>
    </g>
</svg>