<?xml version="1.0" encoding="UTF-8"?>
<svg width="48px" height="48px" viewBox="0 0 48 48" version="1.1" xmlns="http://www.w3.org/2000/svg" xmlns:xlink="http://www.w3.org/1999/xlink">
    <title>编组 5</title>
    <g id="uniswap" stroke="none" stroke-width="1" fill="none" fill-rule="evenodd">
        <g id="切图" transform="translate(-283.000000, -507.000000)">
            <g id="编组-5" transform="translate(283.000000, 507.000000)">
                <path d="M24.0007504,48 C37.2549633,48 48,37.2539309 48,24 C48,10.7460691 37.2549633,0 24.0007504,0 C10.7450367,0 0,10.7460691 0,24 C0,37.2539309 10.7450367,48 24.0007504,48 Z" id="Fill-1" fill="#FFFFFF"></path>
                <path d="M24.3866097,13 L24.3866097,14.5390194 C24.4058534,14.5390194 24.4411247,14.5550733 24.4571523,14.5678849 C24.4667741,14.5871285 24.4731799,14.6063722 24.4828017,14.6223998 L27.1087723,19.9576951 C27.3267794,20.4001414 27.7404129,20.7079347 28.2245626,20.7945313 L34.0920904,21.8205354 C34.1113341,21.8237514 34.1337939,21.8269675 34.1530112,21.8301572 C34.162633,21.8301572 34.1786606,21.8429951 34.1818767,21.8526169 C34.1882825,21.8814561 34.1979043,21.9135113 34.2075261,21.9423768 C34.2139319,21.9616205 34.2331756,22.0193515 34.1786606,22.0834619 L29.9816155,26.0400403 C29.6000635,26.3991588 29.4269232,26.9281753 29.5231152,27.4411906 L30.5908227,33.1868769 L30.5908227,33.190093 C30.6004446,33.247824 30.5523354,33.2959068 30.5234962,33.3183402 C30.5170641,33.3247723 30.5106583,33.327962 30.5042525,33.3343678 C30.4786031,33.327962 30.4465215,33.3151241 30.4112766,33.2991229 L25.0759814,30.6314753 C24.8579479,30.5224454 24.6238868,30.4679568 24.3866361,30.4679568 C24.1525487,30.4679568 23.918514,30.5224454 23.7036702,30.6282592 L18.3266979,33.2959068 C18.3106703,33.3023126 18.2978588,33.3119344 18.2818311,33.3183402 C18.2786151,33.3183402 18.2657772,33.3247723 18.2465599,33.3247723 C18.2273162,33.3247723 18.2112886,33.3215563 18.2080725,33.3183402 C18.1728012,33.2895011 18.1439621,33.23177 18.140746,33.2029309 L18.140746,33.1997148 L19.2501306,27.4508124 C19.3495123,26.9313914 19.176372,26.3959428 18.7884143,26.0336345 L14.5913691,22.125139 C14.5528818,22.0802459 14.5336381,21.9936757 14.5368542,21.9423768 C14.5528818,21.9071055 14.5689094,21.8910779 14.5753415,21.8846722 C14.5785312,21.8814561 14.5849633,21.8782664 14.6041807,21.8750503 C14.6330462,21.8718343 14.6619117,21.8686446 14.6875611,21.8622388 L20.5550889,20.7945313 C21.0360226,20.7079611 21.44644,20.3969517 21.6612574,19.9608848 L24.2840119,14.6320217 C24.3192832,14.5646952 24.3737982,14.5422354 24.3833936,14.5422354 L24.3833936,13 M24.3866097,13 C23.7710231,13 23.1970871,13.3687404 22.9085374,13.9426764 L20.2825405,19.2779189 L14.4149863,20.3456264 C13.7576963,20.4289805 13.2671408,20.877859 13.0619452,21.493472 C12.8984004,22.067408 13.0619452,22.7663751 13.5140397,23.2184696 L17.739924,27.16221 L16.6305395,32.9078964 C16.508698,33.5235358 16.794058,34.1808258 17.2878295,34.5495399 C17.5635676,34.7579515 17.9066586,34.8605493 18.2465335,34.8605493 C18.5126498,34.8605493 18.7755764,34.7964388 19.0096374,34.6713813 L24.3865834,32.0037337 L29.7218786,34.6713813 C29.9687776,34.7932228 30.2541112,34.8765769 30.5010101,34.8765769 C30.8697505,34.8765769 31.1999772,34.7547354 31.4436865,34.5495399 C31.9374317,34.1808258 32.2227917,33.5652128 32.1009502,32.9079227 L31.033269,27.1622364 L35.2591797,23.1799823 C35.7112742,22.7278877 35.8747663,22.070624 35.6695708,21.455011 C35.5060523,20.839398 34.9706037,20.3873035 34.3549907,20.3071391 L28.4874629,19.281135 L25.8614923,13.9458397 C25.6178094,13.3719038 25.0021964,13 24.3865834,13 L24.3866097,13 Z" id="形状" stroke="#666260" stroke-width="0.4" fill="#666260" fill-rule="nonzero"></path>
            </g>
        </g>
    </g>
</svg>