<svg width="16" height="16" viewBox="0 0 16 16" fill="none" xmlns="http://www.w3.org/2000/svg">
<path fill-rule="evenodd" clip-rule="evenodd" d="M8 16C3.58162 16 0 12.4184 0 8C0 3.58162 3.58162 0 8 0C12.4184 0 16 3.58162 16 8C16 12.4184 12.4184 16 8 16Z" fill="#FFCF00"/>
<path fill-rule="evenodd" clip-rule="evenodd" d="M7.01294 8.84038C7.01294 9.11652 7.2368 9.34038 7.51294 9.34038H8.51668C8.79282 9.34038 9.01668 9.11652 9.01668 8.84038V4.49707C9.01668 4.22093 8.79282 3.99707 8.51668 3.99707H7.51294C7.2368 3.99707 7.01294 4.22093 7.01294 4.49707V8.84038Z" fill="white"/>
<path fill-rule="evenodd" clip-rule="evenodd" d="M7.01305 11.6874C7.00853 11.2087 7.34425 10.7932 7.81345 10.6968C8.28315 10.6005 8.75486 10.8504 8.93902 11.2925C9.12419 11.7351 8.96913 12.2454 8.57069 12.5114C8.17225 12.7778 7.64082 12.7236 7.3036 12.3839C7.11442 12.2018 7.00904 11.9498 7.01305 11.6874Z" fill="white"/>
</svg>
