<?xml version="1.0" encoding="UTF-8"?>
<svg width="44px" height="44px" viewBox="0 0 44 44" version="1.1" xmlns="http://www.w3.org/2000/svg" xmlns:xlink="http://www.w3.org/1999/xlink">
    <!-- Generator: Sketch 54 (76480) - https://sketchapp.com -->
    <title>F95EF989-2A9C-409F-900E-7DA6F8FE59BC</title>
    <desc>Created with Sketch.</desc>
    <g id="主页面" stroke="none" stroke-width="1" fill="none" fill-rule="evenodd">
        <g id="失败">
            <g id="编组-10">
                <g>
                    <g id="编组-4">
                        <g id="Group-3" fill="#FF4D4D">
                            <path d="M21.95908,43.9460267 C9.83121333,43.9460267 0.000146666667,34.11496 0.000146666667,21.9870933 C0.000146666667,9.85922667 9.83121333,0.02816 21.95908,0.02816 C34.0869467,0.02816 43.9180133,9.85922667 43.9180133,21.9870933 C43.9180133,34.11496 34.0869467,43.9460267 21.95908,43.9460267" id="Fill-1"></path>
                        </g>
                        <path d="M19.75,25.6666667 L24.25,25.6666667 C24.5261424,25.6666667 24.75,25.442809 24.75,25.1666667 L24.75,11.5 C24.75,11.2238576 24.5261424,11 24.25,11 L19.75,11 C19.4738576,11 19.25,11.2238576 19.25,11.5 L19.25,25.1666667 C19.25,25.442809 19.4738576,25.6666667 19.75,25.6666667 Z" id="Path" fill="#FFFFFF"></path>
                        <path d="M19.2503037,32.1087462 C19.2379069,30.7946885 20.1594002,29.6541856 21.4472869,29.3897212 C22.736551,29.1252567 24.0313248,29.8112114 24.5368376,31.0247175 C25.0451052,32.239601 24.6194827,33.640436 23.5258121,34.370468 C22.4321415,35.1018775 20.9734548,34.9531162 20.0478293,34.0206036 C19.5285423,33.5206006 19.2392844,32.8291363 19.2503037,32.1087462 L19.2503037,32.1087462 Z" id="Path" fill="#FFFFFF"></path>
                    </g>
                </g>
            </g>
        </g>
    </g>
</svg>