<svg width="189" height="22" viewBox="0 0 189 22" fill="none" xmlns="http://www.w3.org/2000/svg">
    <path fill-rule="evenodd" clip-rule="evenodd" d="M53.8458 8.098L50.9478 18.526H47.9338L43.8938 3.264H47.2038L49.6038 14.316H49.6888L52.5448 3.264H55.2418L58.0978 14.316H58.1818L60.5938 3.264H63.9038L59.8538 18.526H56.8388L53.9408 8.098H53.8458ZM68.3038 16.474C69.6468 16.474 70.7568 15.596 70.7568 14.369V13.544L68.3668 13.692C67.2138 13.777 66.5588 14.295 66.5588 15.099C66.5588 15.945 67.2568 16.474 68.3038 16.474ZM67.2878 18.706C65.1308 18.706 63.4918 17.309 63.4918 15.268C63.4918 13.206 65.0778 12.011 67.9018 11.841L70.7568 11.672V10.922C70.7568 9.864 70.0168 9.25 68.8538 9.25C67.7008 9.25 66.9708 9.821 66.8228 10.657H63.9988C64.1158 8.457 65.9878 6.945 68.9908 6.945C71.8998 6.945 73.7928 8.447 73.7928 10.731V18.526H70.8098V16.791H70.7468C70.1118 17.997 68.7058 18.705 67.2878 18.705V18.706ZM75.8548 18.526V3.264H78.9428V18.526H75.8548ZM81.1008 18.526V3.264H84.1888V18.526H81.1008ZM91.3598 9.229C90.0058 9.229 89.0328 10.255 88.9268 11.672H93.7398C93.6758 10.223 92.7348 9.229 91.3598 9.229ZM93.7818 15.057H96.6158C96.2778 17.277 94.2468 18.769 91.4448 18.769C87.9538 18.769 85.8598 16.537 85.8598 12.909C85.8598 9.293 87.9758 6.945 91.3278 6.945C94.6278 6.945 96.7118 9.176 96.7118 12.625V13.565H88.8958V13.755C88.8958 15.374 89.9218 16.485 91.4968 16.485C92.6288 16.485 93.4958 15.924 93.7818 15.057ZM99.1228 4.576H102.211V7.188H104.305V9.515H102.211V14.94C102.211 15.808 102.634 16.22 103.544 16.22C103.819 16.22 104.104 16.199 104.295 16.167V18.441C103.977 18.515 103.449 18.568 102.825 18.568C100.159 18.568 99.1228 17.68 99.1228 15.469V9.515H97.5258V7.188H99.1228V4.576ZM113.01 18.79C108.568 18.79 105.786 15.818 105.786 10.89C105.786 5.972 108.589 3 113.01 3C116.68 3 119.472 5.326 119.715 8.743H116.606C116.309 6.871 114.871 5.643 113.01 5.643C110.598 5.643 109.044 7.663 109.044 10.879C109.044 14.136 110.577 16.146 113.02 16.146C114.913 16.146 116.278 15.036 116.616 13.227H119.726C119.366 16.632 116.754 18.79 113.01 18.79ZM126.632 18.769C123.205 18.769 121.016 16.569 121.016 12.846C121.016 9.176 123.237 6.945 126.632 6.945C130.027 6.945 132.248 9.165 132.248 12.846C132.248 16.58 130.059 18.769 126.632 18.769ZM126.632 16.41C128.144 16.41 129.107 15.13 129.107 12.857C129.107 10.604 128.134 9.303 126.632 9.303C125.13 9.303 124.146 10.604 124.146 12.857C124.146 15.131 125.109 16.41 126.632 16.41ZM133.834 18.526V7.188H136.817V9.208H136.88C137.483 7.801 138.678 6.976 140.423 6.976C142.941 6.976 144.358 8.563 144.358 11.218V18.526H141.269V11.863C141.269 10.382 140.571 9.536 139.186 9.536C137.8 9.536 136.923 10.551 136.923 12.021V18.526H133.834ZM146.314 18.526V7.188H149.297V9.208H149.36C149.963 7.801 151.158 6.976 152.903 6.976C155.421 6.976 156.838 8.563 156.838 11.218V18.526H153.749V11.863C153.749 10.382 153.051 9.536 151.666 9.536C150.28 9.536 149.403 10.551 149.403 12.021V18.526H146.314ZM163.882 9.229C162.528 9.229 161.555 10.255 161.449 11.672H166.261C166.198 10.223 165.256 9.229 163.882 9.229ZM166.303 15.057H169.138C168.8 17.277 166.769 18.769 163.966 18.769C160.476 18.769 158.382 16.537 158.382 12.909C158.382 9.293 160.497 6.945 163.85 6.945C167.15 6.945 169.233 9.176 169.233 12.625V13.565H161.417V13.755C161.417 15.374 162.443 16.485 164.019 16.485C165.151 16.485 166.018 15.924 166.303 15.057ZM181.121 11.407H178.255C178.075 10.213 177.282 9.367 176.013 9.367C174.49 9.367 173.538 10.657 173.538 12.847C173.538 15.077 174.49 16.347 176.023 16.347C177.261 16.347 178.064 15.607 178.255 14.369H181.131C180.973 17.045 178.974 18.769 175.991 18.769C172.575 18.769 170.407 16.548 170.407 12.846C170.407 9.208 172.575 6.945 175.97 6.945C179.037 6.945 180.983 8.838 181.121 11.408V11.407ZM183.448 4.576H186.536V7.188H188.63V9.515H186.536V14.94C186.536 15.808 186.959 16.22 187.869 16.22C188.144 16.22 188.429 16.199 188.619 16.167V18.441C188.302 18.515 187.773 18.568 187.149 18.568C184.484 18.568 183.448 17.68 183.448 15.469V9.515H181.851V7.188H183.448V4.576Z" fill="#403D3C"/>
    <path d="M7.34823 4.29804C13.2024 -1.43268 22.6926 -1.43268 28.5462 4.29804L29.25 4.98775C29.3195 5.05514 29.3747 5.1358 29.4124 5.22493C29.4501 5.31406 29.4695 5.40985 29.4695 5.50663C29.4695 5.60341 29.4501 5.69921 29.4124 5.78834C29.3747 5.87747 29.3195 5.95812 29.25 6.02551L26.8405 8.38511C26.7696 8.45405 26.6745 8.49262 26.5756 8.49262C26.4767 8.49262 26.3817 8.45405 26.3107 8.38511L25.3414 7.43564C21.2576 3.43751 14.6369 3.43751 10.553 7.43564L9.51524 8.45293C9.44428 8.52207 9.34912 8.56075 9.25004 8.56075C9.15097 8.56075 9.05581 8.52207 8.98485 8.45293L6.57534 6.09269C6.50588 6.0253 6.45066 5.94465 6.41295 5.85552C6.37524 5.76639 6.35581 5.67059 6.35581 5.57381C6.35581 5.47703 6.37524 5.38124 6.41295 5.29211C6.45066 5.20298 6.50588 5.12232 6.57534 5.05493L7.34823 4.29804ZM33.5296 9.17783L35.6743 11.2777C35.7437 11.3451 35.799 11.4257 35.8367 11.5148C35.8744 11.604 35.8938 11.6998 35.8938 11.7965C35.8938 11.8933 35.8744 11.9891 35.8367 12.0783C35.799 12.1674 35.7437 12.248 35.6743 12.3154L26.0036 21.7845C25.8616 21.9223 25.6715 21.9994 25.4736 21.9994C25.2757 21.9994 25.0855 21.9223 24.9435 21.7845L18.0797 15.064C18.0442 15.0296 17.9967 15.0103 17.9472 15.0103C17.8978 15.0103 17.8502 15.0296 17.8148 15.064L10.951 21.7852C10.8089 21.9229 10.6188 22 10.4209 22C10.223 22 10.0329 21.9229 9.89081 21.7852L0.21953 12.3154C0.150071 12.248 0.0948503 12.1674 0.0571406 12.0783C0.0194308 11.9891 0 11.8933 0 11.7965C0 11.6998 0.0194308 11.604 0.0571406 11.5148C0.0948503 11.4257 0.150071 11.3451 0.21953 11.2777L2.36415 9.17783C2.50621 9.04005 2.69633 8.96299 2.89423 8.96299C3.09213 8.96299 3.28225 9.04005 3.42431 9.17783L10.2881 15.8983C10.3617 15.97 10.4801 15.97 10.5536 15.8983L17.4168 9.17783C17.5589 9.04005 17.749 8.96299 17.9469 8.96299C18.1448 8.96299 18.3349 9.04005 18.477 9.17783L25.3408 15.8983C25.4144 15.97 25.5327 15.97 25.6063 15.8983L32.4701 9.17783C32.6122 9.04024 32.8021 8.9633 32.9999 8.9633C33.1976 8.9633 33.3876 9.04024 33.5296 9.17783Z" fill="#3B99FC"/>
</svg>