<svg width="30" height="30" viewBox="0 0 30 30" fill="none" xmlns="http://www.w3.org/2000/svg">
<path fill-rule="evenodd" clip-rule="evenodd" d="M22.9726 10.0471C18.5695 5.65097 11.4307 5.65097 7.02754 10.0471L6.4459 10.6278C6.22575 10.8476 6.22575 11.204 6.4459 11.4238L8.25866 13.2336C8.36874 13.3436 8.54721 13.3436 8.65729 13.2336L9.43824 12.4539C12.51 9.38711 17.4902 9.38711 20.5619 12.4539L21.2912 13.182C21.4013 13.2919 21.5797 13.2919 21.6898 13.182L23.5026 11.3721C23.7227 11.1523 23.7227 10.796 23.5026 10.5762L22.9726 10.0471ZM28.3349 15.4011L26.7215 13.7903C26.5014 13.5705 26.1444 13.5705 25.9243 13.7903L20.7611 18.9452C20.7061 19.0002 20.6168 19.0002 20.5618 18.9452L15.3986 13.7902L15.3985 13.7902C15.1784 13.5704 14.8214 13.5704 14.6013 13.7902L9.4383 18.9452C9.38326 19.0002 9.29402 19.0002 9.23898 18.9452L4.07573 13.7902C3.85558 13.5704 3.49863 13.5704 3.27848 13.7902L1.66512 15.401C1.44496 15.6208 1.44496 15.9772 1.66512 16.197L8.94007 23.4604C9.16023 23.6802 9.51717 23.6802 9.73733 23.4604L14.9004 18.3054C14.9554 18.2505 15.0447 18.2505 15.0997 18.3054L20.2629 23.4604C20.483 23.6802 20.84 23.6802 21.0601 23.4604L28.3349 16.1971C28.555 15.9773 28.555 15.6209 28.3349 15.4011Z" fill="#4296FC"/>
</svg>
